mtllib mesh.mtl

################################ Vertices

v 0.000000 0.000000 0.000000                  # 1
v 1.500000 0.000000 0.000000                  # 2
v 1.500000 1.384615 0.000000                  # 3
v 0.000000 1.384615 0.000000                  # 4
v 1.500000 2.769231 0.000000                  # 5
v 0.000000 2.769231 0.000000                  # 6
v 1.500000 4.153846 0.000000                  # 7
v 0.000000 4.153846 0.000000                  # 8
v 1.500000 5.538462 0.000000                  # 9
v 0.000000 5.538462 0.000000                  # 10
v 1.500000 6.923077 0.000000                  # 11
v 0.000000 6.923077 0.000000                  # 12
v 1.500000 8.307692 0.000000                  # 13
v 0.000000 8.307692 0.000000                  # 14
v 1.500000 9.692308 0.000000                  # 15
v 0.000000 9.692308 0.000000                  # 16
v 1.500000 11.076923 0.000000                  # 17
v 0.000000 11.076923 0.000000                  # 18
v 1.500000 12.461538 0.000000                  # 19
v 0.000000 12.461538 0.000000                  # 20
v 1.500000 13.846154 0.000000                  # 21
v 0.000000 13.846154 0.000000                  # 22
v 1.500000 15.230769 0.000000                  # 23
v 0.000000 15.230769 0.000000                  # 24
v 1.500000 16.615385 0.000000                  # 25
v 0.000000 16.615385 0.000000                  # 26
v 1.500000 18.000000 0.000000                  # 27
v 0.000000 18.000000 0.000000                  # 28
v 3.000000 0.000000 0.000000                  # 29
v 3.000000 1.384615 0.000000                  # 30
v 3.000000 2.769231 0.000000                  # 31
v 3.000000 4.153846 0.000000                  # 32
v 3.000000 5.538462 0.000000                  # 33
v 3.000000 6.923077 0.000000                  # 34
v 3.000000 8.307692 0.000000                  # 35
v 3.000000 9.692308 0.000000                  # 36
v 3.000000 11.076923 0.000000                  # 37
v 3.000000 12.461538 0.000000                  # 38
v 3.000000 13.846154 0.000000                  # 39
v 3.000000 15.230769 0.000000                  # 40
v 3.000000 16.615385 0.000000                  # 41
v 3.000000 18.000000 0.000000                  # 42
v 4.500000 0.000000 0.000000                  # 43
v 4.500000 1.384615 0.000000                  # 44
v 4.500000 2.769231 0.000000                  # 45
v 4.500000 4.153846 0.000000                  # 46
v 4.500000 5.538462 0.000000                  # 47
v 4.500000 6.923077 0.000000                  # 48
v 4.500000 8.307692 0.000000                  # 49
v 4.500000 9.692308 0.000000                  # 50
v 4.500000 11.076923 0.000000                  # 51
v 4.500000 12.461538 0.000000                  # 52
v 4.500000 13.846154 0.000000                  # 53
v 4.500000 15.230769 0.000000                  # 54
v 4.500000 16.615385 0.000000                  # 55
v 4.500000 18.000000 0.000000                  # 56
v 0.000000 0.000000 2.800000                  # 57
v 1.500000 0.000000 2.800000                  # 58
v 1.500000 1.384615 2.800000                  # 59
v 0.000000 1.384615 2.800000                  # 60
v 1.500000 2.769231 2.800000                  # 61
v 0.000000 2.769231 2.800000                  # 62
v 1.500000 4.153846 2.800000                  # 63
v 0.000000 4.153846 2.800000                  # 64
v 1.500000 5.538462 2.800000                  # 65
v 0.000000 5.538462 2.800000                  # 66
v 1.500000 6.923077 2.800000                  # 67
v 0.000000 6.923077 2.800000                  # 68
v 1.500000 8.307692 2.800000                  # 69
v 0.000000 8.307692 2.800000                  # 70
v 1.500000 9.692308 2.800000                  # 71
v 0.000000 9.692308 2.800000                  # 72
v 1.500000 11.076923 2.800000                  # 73
v 0.000000 11.076923 2.800000                  # 74
v 1.500000 12.461538 2.800000                  # 75
v 0.000000 12.461538 2.800000                  # 76
v 1.500000 13.846154 2.800000                  # 77
v 0.000000 13.846154 2.800000                  # 78
v 1.500000 15.230769 2.800000                  # 79
v 0.000000 15.230769 2.800000                  # 80
v 1.500000 16.615385 2.800000                  # 81
v 0.000000 16.615385 2.800000                  # 82
v 1.500000 18.000000 2.800000                  # 83
v 0.000000 18.000000 2.800000                  # 84
v 3.000000 0.000000 2.800000                  # 85
v 3.000000 1.384615 2.800000                  # 86
v 3.000000 2.769231 2.800000                  # 87
v 3.000000 4.153846 2.800000                  # 88
v 3.000000 5.538462 2.800000                  # 89
v 3.000000 6.923077 2.800000                  # 90
v 3.000000 8.307692 2.800000                  # 91
v 3.000000 9.692308 2.800000                  # 92
v 3.000000 11.076923 2.800000                  # 93
v 3.000000 12.461538 2.800000                  # 94
v 3.000000 13.846154 2.800000                  # 95
v 3.000000 15.230769 2.800000                  # 96
v 3.000000 16.615385 2.800000                  # 97
v 3.000000 18.000000 2.800000                  # 98
v 4.500000 0.000000 2.800000                  # 99
v 4.500000 1.384615 2.800000                  # 100
v 4.500000 2.769231 2.800000                  # 101
v 4.500000 4.153846 2.800000                  # 102
v 4.500000 5.538462 2.800000                  # 103
v 4.500000 6.923077 2.800000                  # 104
v 4.500000 8.307692 2.800000                  # 105
v 4.500000 9.692308 2.800000                  # 106
v 4.500000 11.076923 2.800000                  # 107
v 4.500000 12.461538 2.800000                  # 108
v 4.500000 13.846154 2.800000                  # 109
v 4.500000 15.230769 2.800000                  # 110
v 4.500000 16.615385 2.800000                  # 111
v 4.500000 18.000000 2.800000                  # 112
v 0.000000 1.384615 1.400000                  # 113
v 0.000000 0.000000 1.400000                  # 114
v 0.000000 2.769231 1.400000                  # 115
v 0.000000 4.153846 1.400000                  # 116
v 0.000000 5.538462 1.400000                  # 117
v 0.000000 6.923077 1.400000                  # 118
v 0.000000 8.307692 1.400000                  # 119
v 0.000000 9.692308 1.400000                  # 120
v 0.000000 11.076923 1.400000                  # 121
v 0.000000 12.461538 1.400000                  # 122
v 0.000000 13.846154 1.400000                  # 123
v 0.000000 15.230769 1.400000                  # 124
v 0.000000 16.615385 1.400000                  # 125
v 0.000000 18.000000 1.400000                  # 126
v 1.500000 0.000000 1.400000                  # 127
v 3.000000 0.000000 1.400000                  # 128
v 4.500000 0.000000 1.400000                  # 129
v 1.500000 18.000000 1.400000                  # 130
v 3.000000 18.000000 1.400000                  # 131
v 4.500000 18.000000 1.400000                  # 132
v 4.500000 1.400000 0.000000                  # 133
v 4.500000 1.400000 1.400000                  # 134
v 4.500000 1.400000 2.800000                  # 135
v 4.500000 2.800000 0.000000                  # 136
v 4.500000 2.800000 1.400000                  # 137
v 4.500000 2.800000 2.800000                  # 138
v 4.500000 4.200000 0.000000                  # 139
v 4.500000 4.200000 1.400000                  # 140
v 4.500000 4.200000 2.800000                  # 141
v 4.500000 5.600000 0.000000                  # 142
v 4.500000 5.600000 1.400000                  # 143
v 4.500000 5.600000 2.800000                  # 144
v 4.500000 7.000000 0.000000                  # 145
v 4.500000 7.000000 1.400000                  # 146
v 4.500000 7.000000 2.800000                  # 147
v 4.500000 13.600000 0.000000                  # 148
v 4.500000 15.066667 0.000000                  # 149
v 4.500000 15.066667 1.400000                  # 150
v 4.500000 13.600000 1.400000                  # 151
v 4.500000 15.066667 2.800000                  # 152
v 4.500000 13.600000 2.800000                  # 153
v 4.500000 16.533333 0.000000                  # 154
v 4.500000 16.533333 1.400000                  # 155
v 4.500000 16.533333 2.800000                  # 156
v 4.500000 8.250000 0.000000                  # 157
v 4.500000 8.250000 1.400000                  # 158
v 4.500000 8.250000 2.800000                  # 159
v 4.500000 9.500000 0.000000                  # 160
v 4.500000 9.500000 1.400000                  # 161
v 4.500000 9.500000 2.800000                  # 162
v 4.500000 9.500000 2.000000                  # 163
v 4.500000 10.500000 2.000000                  # 164
v 4.500000 10.500000 2.800000                  # 165
v 4.500000 10.500000 0.000000                  # 166
v 4.500000 12.050000 0.000000                  # 167
v 4.500000 12.050000 1.400000                  # 168
v 4.500000 10.500000 1.400000                  # 169
v 4.500000 12.050000 2.800000                  # 170
v 6.033333 7.000000 0.000000                  # 171
v 6.033333 8.320000 0.000000                  # 172
v 4.500000 8.320000 0.000000                  # 173
v 6.033333 9.640000 0.000000                  # 174
v 4.500000 9.640000 0.000000                  # 175
v 6.033333 10.960000 0.000000                  # 176
v 4.500000 10.960000 0.000000                  # 177
v 6.033333 12.280000 0.000000                  # 178
v 4.500000 12.280000 0.000000                  # 179
v 6.033333 13.600000 0.000000                  # 180
v 7.566667 7.000000 0.000000                  # 181
v 7.566667 8.320000 0.000000                  # 182
v 7.566667 9.640000 0.000000                  # 183
v 7.566667 10.960000 0.000000                  # 184
v 7.566667 12.280000 0.000000                  # 185
v 7.566667 13.600000 0.000000                  # 186
v 9.100000 7.000000 0.000000                  # 187
v 9.100000 8.320000 0.000000                  # 188
v 9.100000 9.640000 0.000000                  # 189
v 9.100000 10.960000 0.000000                  # 190
v 9.100000 12.280000 0.000000                  # 191
v 9.100000 13.600000 0.000000                  # 192
v 6.033333 7.000000 2.800000                  # 193
v 6.033333 8.320000 2.800000                  # 194
v 4.500000 8.320000 2.800000                  # 195
v 6.033333 9.640000 2.800000                  # 196
v 4.500000 9.640000 2.800000                  # 197
v 6.033333 10.960000 2.800000                  # 198
v 4.500000 10.960000 2.800000                  # 199
v 6.033333 12.280000 2.800000                  # 200
v 4.500000 12.280000 2.800000                  # 201
v 6.033333 13.600000 2.800000                  # 202
v 7.566667 7.000000 2.800000                  # 203
v 7.566667 8.320000 2.800000                  # 204
v 7.566667 9.640000 2.800000                  # 205
v 7.566667 10.960000 2.800000                  # 206
v 7.566667 12.280000 2.800000                  # 207
v 7.566667 13.600000 2.800000                  # 208
v 9.100000 7.000000 2.800000                  # 209
v 9.100000 8.320000 2.800000                  # 210
v 9.100000 9.640000 2.800000                  # 211
v 9.100000 10.960000 2.800000                  # 212
v 9.100000 12.280000 2.800000                  # 213
v 9.100000 13.600000 2.800000                  # 214
v 9.100000 8.320000 1.400000                  # 215
v 9.100000 7.000000 1.400000                  # 216
v 9.100000 9.640000 1.400000                  # 217
v 9.100000 10.960000 1.400000                  # 218
v 9.100000 12.280000 1.400000                  # 219
v 9.100000 13.600000 1.400000                  # 220
v 6.033333 7.000000 1.400000                  # 221
v 7.566667 7.000000 1.400000                  # 222
v 6.033333 13.600000 1.400000                  # 223
v 7.566667 13.600000 1.400000                  # 224

################################ Faces

usemtl Patch_1_Mat_HallwayWall
f 1 2 3
f 1 3 4

usemtl Patch_2_Mat_HallwayWall
f 4 3 5
f 4 5 6

usemtl Patch_3_Mat_HallwayWall
f 6 5 7
f 6 7 8

usemtl Patch_4_Mat_HallwayWall
f 8 7 9
f 8 9 10

usemtl Patch_5_Mat_HallwayWall
f 10 9 11
f 10 11 12

usemtl Patch_6_Mat_HallwayWall
f 12 11 13
f 12 13 14

usemtl Patch_7_Mat_HallwayWall
f 14 13 15
f 14 15 16

usemtl Patch_8_Mat_HallwayWall
f 16 15 17
f 16 17 18

usemtl Patch_9_Mat_HallwayWall
f 18 17 19
f 18 19 20

usemtl Patch_10_Mat_HallwayWall
f 20 19 21
f 20 21 22

usemtl Patch_11_Mat_HallwayWall
f 22 21 23
f 22 23 24

usemtl Patch_12_Mat_HallwayWall
f 24 23 25
f 24 25 26

usemtl Patch_13_Mat_HallwayWall
f 26 25 27
f 26 27 28

usemtl Patch_14_Mat_HallwayWall
f 2 29 30
f 2 30 3

usemtl Patch_15_Mat_HallwayWall
f 3 30 31
f 3 31 5

usemtl Patch_16_Mat_HallwayWall
f 5 31 32
f 5 32 7

usemtl Patch_17_Mat_HallwayWall
f 7 32 33
f 7 33 9

usemtl Patch_18_Mat_HallwayWall
f 9 33 34
f 9 34 11

usemtl Patch_19_Mat_HallwayWall
f 11 34 35
f 11 35 13

usemtl Patch_20_Mat_HallwayWall
f 13 35 36
f 13 36 15

usemtl Patch_21_Mat_HallwayWall
f 15 36 37
f 15 37 17

usemtl Patch_22_Mat_HallwayWall
f 17 37 38
f 17 38 19

usemtl Patch_23_Mat_HallwayWall
f 19 38 39
f 19 39 21

usemtl Patch_24_Mat_HallwayWall
f 21 39 40
f 21 40 23

usemtl Patch_25_Mat_HallwayWall
f 23 40 41
f 23 41 25

usemtl Patch_26_Mat_HallwayWall
f 25 41 42
f 25 42 27

usemtl Patch_27_Mat_HallwayWall
f 29 43 44
f 29 44 30

usemtl Patch_28_Mat_HallwayWall
f 30 44 45
f 30 45 31

usemtl Patch_29_Mat_HallwayWall
f 31 45 46
f 31 46 32

usemtl Patch_30_Mat_HallwayWall
f 32 46 47
f 32 47 33

usemtl Patch_31_Mat_HallwayWall
f 33 47 48
f 33 48 34

usemtl Patch_32_Mat_HallwayWall
f 34 48 49
f 34 49 35

usemtl Patch_33_Mat_HallwayWall
f 35 49 50
f 35 50 36

usemtl Patch_34_Mat_HallwayWall
f 36 50 51
f 36 51 37

usemtl Patch_35_Mat_HallwayWall
f 37 51 52
f 37 52 38

usemtl Patch_36_Mat_HallwayWall
f 38 52 53
f 38 53 39

usemtl Patch_37_Mat_HallwayWall
f 39 53 54
f 39 54 40

usemtl Patch_38_Mat_HallwayWall
f 40 54 55
f 40 55 41

usemtl Patch_39_Mat_HallwayWall
f 41 55 56
f 41 56 42

usemtl Patch_40_Mat_HallwayWall
f 57 60 59
f 57 59 58

usemtl Patch_41_Mat_HallwayWall
f 60 62 61
f 60 61 59

usemtl Patch_42_Mat_HallwayWall
f 62 64 63
f 62 63 61

usemtl Patch_43_Mat_HallwayWall
f 64 66 65
f 64 65 63

usemtl Patch_44_Mat_HallwayWall
f 66 68 67
f 66 67 65

usemtl Patch_45_Mat_HallwayWall
f 68 70 69
f 68 69 67

usemtl Patch_46_Mat_HallwayWall
f 70 72 71
f 70 71 69

usemtl Patch_47_Mat_HallwayWall
f 72 74 73
f 72 73 71

usemtl Patch_48_Mat_HallwayWall
f 74 76 75
f 74 75 73

usemtl Patch_49_Mat_HallwayWall
f 76 78 77
f 76 77 75

usemtl Patch_50_Mat_HallwayWall
f 78 80 79
f 78 79 77

usemtl Patch_51_Mat_HallwayWall
f 80 82 81
f 80 81 79

usemtl Patch_52_Mat_HallwayWall
f 82 84 83
f 82 83 81

usemtl Patch_53_Mat_HallwayWall
f 58 59 86
f 58 86 85

usemtl Patch_54_Mat_HallwayWall
f 59 61 87
f 59 87 86

usemtl Patch_55_Mat_HallwayWall
f 61 63 88
f 61 88 87

usemtl Patch_56_Mat_HallwayWall
f 63 65 89
f 63 89 88

usemtl Patch_57_Mat_HallwayWall
f 65 67 90
f 65 90 89

usemtl Patch_58_Mat_HallwayWall
f 67 69 91
f 67 91 90

usemtl Patch_59_Mat_HallwayWall
f 69 71 92
f 69 92 91

usemtl Patch_60_Mat_HallwayWall
f 71 73 93
f 71 93 92

usemtl Patch_61_Mat_HallwayWall
f 73 75 94
f 73 94 93

usemtl Patch_62_Mat_HallwayWall
f 75 77 95
f 75 95 94

usemtl Patch_63_Mat_HallwayWall
f 77 79 96
f 77 96 95

usemtl Patch_64_Mat_HallwayWall
f 79 81 97
f 79 97 96

usemtl Patch_65_Mat_HallwayWall
f 81 83 98
f 81 98 97

usemtl Patch_66_Mat_HallwayWall
f 85 86 100
f 85 100 99

usemtl Patch_67_Mat_HallwayWall
f 86 87 101
f 86 101 100

usemtl Patch_68_Mat_HallwayWall
f 87 88 102
f 87 102 101

usemtl Patch_69_Mat_HallwayWall
f 88 89 103
f 88 103 102

usemtl Patch_70_Mat_HallwayWall
f 89 90 104
f 89 104 103

usemtl Patch_71_Mat_HallwayWall
f 90 91 105
f 90 105 104

usemtl Patch_72_Mat_HallwayWall
f 91 92 106
f 91 106 105

usemtl Patch_73_Mat_HallwayWall
f 92 93 107
f 92 107 106

usemtl Patch_74_Mat_HallwayWall
f 93 94 108
f 93 108 107

usemtl Patch_75_Mat_HallwayWall
f 94 95 109
f 94 109 108

usemtl Patch_76_Mat_HallwayWall
f 95 96 110
f 95 110 109

usemtl Patch_77_Mat_HallwayWall
f 96 97 111
f 96 111 110

usemtl Patch_78_Mat_HallwayWall
f 97 98 112
f 97 112 111

usemtl Patch_79_Mat_HallwayWall
f 1 4 113
f 1 113 114

usemtl Patch_80_Mat_HallwayWall
f 114 113 60
f 114 60 57

usemtl Patch_81_Mat_HallwayWall
f 4 6 115
f 4 115 113

usemtl Patch_82_Mat_HallwayWall
f 113 115 62
f 113 62 60

usemtl Patch_83_Mat_HallwayWall
f 6 8 116
f 6 116 115

usemtl Patch_84_Mat_HallwayWall
f 115 116 64
f 115 64 62

usemtl Patch_85_Mat_HallwayWall
f 8 10 117
f 8 117 116

usemtl Patch_86_Mat_HallwayWall
f 116 117 66
f 116 66 64

usemtl Patch_87_Mat_HallwayWall
f 10 12 118
f 10 118 117

usemtl Patch_88_Mat_HallwayWall
f 117 118 68
f 117 68 66

usemtl Patch_89_Mat_HallwayWall
f 12 14 119
f 12 119 118

usemtl Patch_90_Mat_HallwayWall
f 118 119 70
f 118 70 68

usemtl Patch_91_Mat_HallwayWall
f 14 16 120
f 14 120 119

usemtl Patch_92_Mat_HallwayWall
f 119 120 72
f 119 72 70

usemtl Patch_93_Mat_HallwayWall
f 16 18 121
f 16 121 120

usemtl Patch_94_Mat_HallwayWall
f 120 121 74
f 120 74 72

usemtl Patch_95_Mat_HallwayWall
f 18 20 122
f 18 122 121

usemtl Patch_96_Mat_HallwayWall
f 121 122 76
f 121 76 74

usemtl Patch_97_Mat_HallwayWall
f 20 22 123
f 20 123 122

usemtl Patch_98_Mat_HallwayWall
f 122 123 78
f 122 78 76

usemtl Patch_99_Mat_HallwayWall
f 22 24 124
f 22 124 123

usemtl Patch_100_Mat_HallwayWall
f 123 124 80
f 123 80 78

usemtl Patch_101_Mat_HallwayWall
f 24 26 125
f 24 125 124

usemtl Patch_102_Mat_HallwayWall
f 124 125 82
f 124 82 80

usemtl Patch_103_Mat_HallwayWall
f 26 28 126
f 26 126 125

usemtl Patch_104_Mat_HallwayWall
f 125 126 84
f 125 84 82

usemtl Patch_105_Mat_HallwayWall
f 1 114 127
f 1 127 2

usemtl Patch_106_Mat_HallwayWall
f 114 57 58
f 114 58 127

usemtl Patch_107_Mat_HallwayWall
f 2 127 128
f 2 128 29

usemtl Patch_108_Mat_HallwayWall
f 127 58 85
f 127 85 128

usemtl Patch_109_Mat_HallwayWall
f 29 128 129
f 29 129 43

usemtl Patch_110_Mat_HallwayWall
f 128 85 99
f 128 99 129

usemtl Patch_111_Mat_HallwayWall
f 28 27 130
f 28 130 126

usemtl Patch_112_Mat_HallwayWall
f 126 130 83
f 126 83 84

usemtl Patch_113_Mat_HallwayWall
f 27 42 131
f 27 131 130

usemtl Patch_114_Mat_HallwayWall
f 130 131 98
f 130 98 83

usemtl Patch_115_Mat_HallwayWall
f 42 56 132
f 42 132 131

usemtl Patch_116_Mat_HallwayWall
f 131 132 112
f 131 112 98

usemtl Patch_117_Mat_HallwayWall
f 43 129 134
f 43 134 133

usemtl Patch_118_Mat_HallwayWall
f 129 99 135
f 129 135 134

usemtl Patch_119_Mat_HallwayWall
f 133 134 137
f 133 137 136

usemtl Patch_120_Mat_HallwayWall
f 134 135 138
f 134 138 137

usemtl Patch_121_Mat_HallwayWall
f 136 137 140
f 136 140 139

usemtl Patch_122_Mat_HallwayWall
f 137 138 141
f 137 141 140

usemtl Patch_123_Mat_HallwayWall
f 139 140 143
f 139 143 142

usemtl Patch_124_Mat_HallwayWall
f 140 141 144
f 140 144 143

usemtl Patch_125_Mat_HallwayWall
f 142 143 146
f 142 146 145

usemtl Patch_126_Mat_HallwayWall
f 143 144 147
f 143 147 146

usemtl Patch_127_Mat_HallwayWall
f 148 151 150
f 148 150 149

usemtl Patch_128_Mat_HallwayWall
f 151 153 152
f 151 152 150

usemtl Patch_129_Mat_HallwayWall
f 149 150 155
f 149 155 154

usemtl Patch_130_Mat_HallwayWall
f 150 152 156
f 150 156 155

usemtl Patch_131_Mat_HallwayWall
f 154 155 132
f 154 132 56

usemtl Patch_132_Mat_HallwayWall
f 155 156 112
f 155 112 132

usemtl Patch_133_Mat_HallwayWall
f 145 146 158
f 145 158 157

usemtl Patch_134_Mat_HallwayWall
f 146 147 159
f 146 159 158

usemtl Patch_135_Mat_HallwayWall
f 157 158 161
f 157 161 160

usemtl Patch_136_Mat_HallwayWall
f 158 159 162
f 158 162 161

usemtl Patch_137_Mat_HallwayWall
f 163 162 165
f 163 165 164

usemtl Patch_138_Mat_HallwayWall
f 166 169 168
f 166 168 167

usemtl Patch_139_Mat_HallwayWall
f 169 165 170
f 169 170 168

usemtl Patch_140_Mat_HallwayWall
f 167 168 151
f 167 151 148

usemtl Patch_141_Mat_HallwayWall
f 168 170 153
f 168 153 151

usemtl Patch_142_Mat_MeetingRoomWall
f 145 171 172
f 145 172 173

usemtl Patch_143_Mat_MeetingRoomWall
f 173 172 174
f 173 174 175

usemtl Patch_144_Mat_MeetingRoomWall
f 175 174 176
f 175 176 177

usemtl Patch_145_Mat_MeetingRoomWall
f 177 176 178
f 177 178 179

usemtl Patch_146_Mat_MeetingRoomWall
f 179 178 180
f 179 180 148

usemtl Patch_147_Mat_MeetingRoomWall
f 171 181 182
f 171 182 172

usemtl Patch_148_Mat_MeetingRoomWall
f 172 182 183
f 172 183 174

usemtl Patch_149_Mat_MeetingRoomWall
f 174 183 184
f 174 184 176

usemtl Patch_150_Mat_MeetingRoomWall
f 176 184 185
f 176 185 178

usemtl Patch_151_Mat_MeetingRoomWall
f 178 185 186
f 178 186 180

usemtl Patch_152_Mat_MeetingRoomWall
f 181 187 188
f 181 188 182

usemtl Patch_153_Mat_MeetingRoomWall
f 182 188 189
f 182 189 183

usemtl Patch_154_Mat_MeetingRoomWall
f 183 189 190
f 183 190 184

usemtl Patch_155_Mat_MeetingRoomWall
f 184 190 191
f 184 191 185

usemtl Patch_156_Mat_MeetingRoomWall
f 185 191 192
f 185 192 186

usemtl Patch_157_Mat_MeetingRoomWall
f 147 195 194
f 147 194 193

usemtl Patch_158_Mat_MeetingRoomWall
f 195 197 196
f 195 196 194

usemtl Patch_159_Mat_MeetingRoomWall
f 197 199 198
f 197 198 196

usemtl Patch_160_Mat_MeetingRoomWall
f 199 201 200
f 199 200 198

usemtl Patch_161_Mat_MeetingRoomWall
f 201 153 202
f 201 202 200

usemtl Patch_162_Mat_MeetingRoomWall
f 193 194 204
f 193 204 203

usemtl Patch_163_Mat_MeetingRoomWall
f 194 196 205
f 194 205 204

usemtl Patch_164_Mat_MeetingRoomWall
f 196 198 206
f 196 206 205

usemtl Patch_165_Mat_MeetingRoomWall
f 198 200 207
f 198 207 206

usemtl Patch_166_Mat_MeetingRoomWall
f 200 202 208
f 200 208 207

usemtl Patch_167_Mat_MeetingRoomWall
f 203 204 210
f 203 210 209

usemtl Patch_168_Mat_MeetingRoomWall
f 204 205 211
f 204 211 210

usemtl Patch_169_Mat_MeetingRoomWall
f 205 206 212
f 205 212 211

usemtl Patch_170_Mat_MeetingRoomWall
f 206 207 213
f 206 213 212

usemtl Patch_171_Mat_MeetingRoomWall
f 207 208 214
f 207 214 213

usemtl Patch_172_Mat_MeetingRoomWall
f 187 216 215
f 187 215 188

usemtl Patch_173_Mat_MeetingRoomWall
f 216 209 210
f 216 210 215

usemtl Patch_174_Mat_MeetingRoomWall
f 188 215 217
f 188 217 189

usemtl Patch_175_Mat_MeetingRoomWall
f 215 210 211
f 215 211 217

usemtl Patch_176_Mat_MeetingRoomWall
f 189 217 218
f 189 218 190

usemtl Patch_177_Mat_MeetingRoomWall
f 217 211 212
f 217 212 218

usemtl Patch_178_Mat_MeetingRoomWall
f 190 218 219
f 190 219 191

usemtl Patch_179_Mat_MeetingRoomWall
f 218 212 213
f 218 213 219

usemtl Patch_180_Mat_MeetingRoomWall
f 191 219 220
f 191 220 192

usemtl Patch_181_Mat_MeetingRoomWall
f 219 213 214
f 219 214 220

usemtl Patch_182_Mat_MeetingRoomWall
f 145 146 221
f 145 221 171

usemtl Patch_183_Mat_MeetingRoomWall
f 146 147 193
f 146 193 221

usemtl Patch_184_Mat_MeetingRoomWall
f 171 221 222
f 171 222 181

usemtl Patch_185_Mat_MeetingRoomWall
f 221 193 203
f 221 203 222

usemtl Patch_186_Mat_MeetingRoomWall
f 181 222 216
f 181 216 187

usemtl Patch_187_Mat_MeetingRoomWall
f 222 203 209
f 222 209 216

usemtl Patch_188_Mat_MeetingRoomWall
f 148 180 223
f 148 223 151

usemtl Patch_189_Mat_MeetingRoomWall
f 151 223 202
f 151 202 153

usemtl Patch_190_Mat_MeetingRoomWall
f 180 186 224
f 180 224 223

usemtl Patch_191_Mat_MeetingRoomWall
f 223 224 208
f 223 208 202

usemtl Patch_192_Mat_MeetingRoomWall
f 186 192 220
f 186 220 224

usemtl Patch_193_Mat_MeetingRoomWall
f 224 220 214
f 224 214 208

usemtl Patch_194_Mat_MeetingRoomWall
f 145 157 158
f 145 158 146

usemtl Patch_195_Mat_MeetingRoomWall
f 146 158 159
f 146 159 147

usemtl Patch_196_Mat_MeetingRoomWall
f 157 160 161
f 157 161 158

usemtl Patch_197_Mat_MeetingRoomWall
f 158 161 162
f 158 162 159

usemtl Patch_198_Mat_MeetingRoomWall
f 163 164 165
f 163 165 162

usemtl Patch_199_Mat_MeetingRoomWall
f 166 167 168
f 166 168 169

usemtl Patch_200_Mat_MeetingRoomWall
f 169 168 170
f 169 170 165

usemtl Patch_201_Mat_MeetingRoomWall
f 167 148 151
f 167 151 168

usemtl Patch_202_Mat_MeetingRoomWall
f 168 151 153
f 168 153 170

