mtllib mesh.mtl

################################ Vertices

v 0.0 0.0 0.0                  # Vertex 1
v 0.0 0.0 2.8                  # Vertex 2
v 0.0 18.0 0.0                 # Vertex 3
v 0.0 18.0 2.8                 # Vertex 4
v 4.5 0.0 0.0                  # Vertex 5
v 4.5 0.0 2.8                  # Vertex 6
v 4.5 7.0 0.0                  # Vertex 7
v 4.5 7.0 2.8                  # Vertex 8
v 4.5 9.5 0.0                  # Vertex 9
v 4.5 9.5 2.0                  # Vertex 10
v 4.5 9.5 2.8                  # Vertex 11
v 4.5 10.5 0.0                 # Vertex 12
v 4.5 10.5 2.0                 # Vertex 13
v 4.5 10.5 2.8                 # Vertex 14
v 4.5 13.6 0.0                 # Vertex 15
v 4.5 13.6 2.8                 # Vertex 16
v 4.5 18.0 0.0                 # Vertex 17
v 4.5 18.0 2.8                 # Vertex 18
v 9.1 7.0 0.0                  # Vertex 19
v 9.1 7.0 2.8                  # Vertex 20
v 9.1 13.6 0.0                 # Vertex 21
v 9.1 13.6 2.8                 # Vertex 22

################################ Faces

usemtl Patch_1_Mat_HallwayWall
f 3 1 5
f 3 5 17
usemtl Patch_2_Mat_HallwayWall
f 2 4 6
f 6 4 18
usemtl Patch_3_Mat_HallwayWall
f 4 2 1
f 3 4 1
usemtl Patch_4_Mat_HallwayWall
f 2 6 5
f 1 2 5
usemtl Patch_5_Mat_HallwayWall
f 3 18 4
f 3 17 18
usemtl Patch_6_Mat_HallwayWall
f 15 7 19
f 15 19 21
usemtl Patch_7_Mat_HallwayWall
f 8 16 20
f 20 16 22
usemtl Patch_8_Mat_MeetingRoomWall
f 19 20 22
f 19 22 21
usemtl Patch_9_Mat_MeetingRoomWall
f 8 20 19
f 7 8 19
usemtl Patch_10_Mat_MeetingRoomWall
f 15 22 16
f 15 21 22
usemtl Patch_11_Mat_MeetingRoomWall
f 5 6 8
f 5 8 7
f 7 8 11
f 7 11 9
usemtl Patch_12_Mat_MeetingRoomWall
f 12 16 15
f 12 13 16
f 13 11 16
f 13 10 11
f 15 16 18
f 15 18 17
usemtl Patch_13_Mat_MeetingRoomWall
f 11 8 7
f 9 11 7
usemtl Patch_14_Mat_MeetingRoomWall
f 12 15 16
f 12 16 13
f 13 16 11
f 13 11 10
