mtllib mesh.mtl

################################ Vertices

v 0.000000 0.000000 0.000000                  # 1
v 0.900000 0.000000 0.000000                  # 2
v 0.900000 1.000000 0.000000                  # 3
v 0.000000 1.000000 0.000000                  # 4
v 0.900000 2.000000 0.000000                  # 5
v 0.000000 2.000000 0.000000                  # 6
v 0.900000 3.000000 0.000000                  # 7
v 0.000000 3.000000 0.000000                  # 8
v 0.900000 4.000000 0.000000                  # 9
v 0.000000 4.000000 0.000000                  # 10
v 0.900000 5.000000 0.000000                  # 11
v 0.000000 5.000000 0.000000                  # 12
v 0.900000 6.000000 0.000000                  # 13
v 0.000000 6.000000 0.000000                  # 14
v 0.900000 7.000000 0.000000                  # 15
v 0.000000 7.000000 0.000000                  # 16
v 0.900000 8.000000 0.000000                  # 17
v 0.000000 8.000000 0.000000                  # 18
v 0.900000 9.000000 0.000000                  # 19
v 0.000000 9.000000 0.000000                  # 20
v 0.900000 10.000000 0.000000                  # 21
v 0.000000 10.000000 0.000000                  # 22
v 0.900000 11.000000 0.000000                  # 23
v 0.000000 11.000000 0.000000                  # 24
v 0.900000 12.000000 0.000000                  # 25
v 0.000000 12.000000 0.000000                  # 26
v 0.900000 13.000000 0.000000                  # 27
v 0.000000 13.000000 0.000000                  # 28
v 0.900000 14.000000 0.000000                  # 29
v 0.000000 14.000000 0.000000                  # 30
v 0.900000 15.000000 0.000000                  # 31
v 0.000000 15.000000 0.000000                  # 32
v 0.900000 16.000000 0.000000                  # 33
v 0.000000 16.000000 0.000000                  # 34
v 0.900000 17.000000 0.000000                  # 35
v 0.000000 17.000000 0.000000                  # 36
v 0.900000 18.000000 0.000000                  # 37
v 0.000000 18.000000 0.000000                  # 38
v 1.800000 0.000000 0.000000                  # 39
v 1.800000 1.000000 0.000000                  # 40
v 1.800000 2.000000 0.000000                  # 41
v 1.800000 3.000000 0.000000                  # 42
v 1.800000 4.000000 0.000000                  # 43
v 1.800000 5.000000 0.000000                  # 44
v 1.800000 6.000000 0.000000                  # 45
v 1.800000 7.000000 0.000000                  # 46
v 1.800000 8.000000 0.000000                  # 47
v 1.800000 9.000000 0.000000                  # 48
v 1.800000 10.000000 0.000000                  # 49
v 1.800000 11.000000 0.000000                  # 50
v 1.800000 12.000000 0.000000                  # 51
v 1.800000 13.000000 0.000000                  # 52
v 1.800000 14.000000 0.000000                  # 53
v 1.800000 15.000000 0.000000                  # 54
v 1.800000 16.000000 0.000000                  # 55
v 1.800000 17.000000 0.000000                  # 56
v 1.800000 18.000000 0.000000                  # 57
v 2.700000 0.000000 0.000000                  # 58
v 2.700000 1.000000 0.000000                  # 59
v 2.700000 2.000000 0.000000                  # 60
v 2.700000 3.000000 0.000000                  # 61
v 2.700000 4.000000 0.000000                  # 62
v 2.700000 5.000000 0.000000                  # 63
v 2.700000 6.000000 0.000000                  # 64
v 2.700000 7.000000 0.000000                  # 65
v 2.700000 8.000000 0.000000                  # 66
v 2.700000 9.000000 0.000000                  # 67
v 2.700000 10.000000 0.000000                  # 68
v 2.700000 11.000000 0.000000                  # 69
v 2.700000 12.000000 0.000000                  # 70
v 2.700000 13.000000 0.000000                  # 71
v 2.700000 14.000000 0.000000                  # 72
v 2.700000 15.000000 0.000000                  # 73
v 2.700000 16.000000 0.000000                  # 74
v 2.700000 17.000000 0.000000                  # 75
v 2.700000 18.000000 0.000000                  # 76
v 3.600000 0.000000 0.000000                  # 77
v 3.600000 1.000000 0.000000                  # 78
v 3.600000 2.000000 0.000000                  # 79
v 3.600000 3.000000 0.000000                  # 80
v 3.600000 4.000000 0.000000                  # 81
v 3.600000 5.000000 0.000000                  # 82
v 3.600000 6.000000 0.000000                  # 83
v 3.600000 7.000000 0.000000                  # 84
v 3.600000 8.000000 0.000000                  # 85
v 3.600000 9.000000 0.000000                  # 86
v 3.600000 10.000000 0.000000                  # 87
v 3.600000 11.000000 0.000000                  # 88
v 3.600000 12.000000 0.000000                  # 89
v 3.600000 13.000000 0.000000                  # 90
v 3.600000 14.000000 0.000000                  # 91
v 3.600000 15.000000 0.000000                  # 92
v 3.600000 16.000000 0.000000                  # 93
v 3.600000 17.000000 0.000000                  # 94
v 3.600000 18.000000 0.000000                  # 95
v 4.500000 0.000000 0.000000                  # 96
v 4.500000 1.000000 0.000000                  # 97
v 4.500000 2.000000 0.000000                  # 98
v 4.500000 3.000000 0.000000                  # 99
v 4.500000 4.000000 0.000000                  # 100
v 4.500000 5.000000 0.000000                  # 101
v 4.500000 6.000000 0.000000                  # 102
v 4.500000 7.000000 0.000000                  # 103
v 4.500000 8.000000 0.000000                  # 104
v 4.500000 9.000000 0.000000                  # 105
v 4.500000 10.000000 0.000000                  # 106
v 4.500000 11.000000 0.000000                  # 107
v 4.500000 12.000000 0.000000                  # 108
v 4.500000 13.000000 0.000000                  # 109
v 4.500000 14.000000 0.000000                  # 110
v 4.500000 15.000000 0.000000                  # 111
v 4.500000 16.000000 0.000000                  # 112
v 4.500000 17.000000 0.000000                  # 113
v 4.500000 18.000000 0.000000                  # 114
v 0.000000 0.000000 2.800000                  # 115
v 0.900000 0.000000 2.800000                  # 116
v 0.900000 1.000000 2.800000                  # 117
v 0.000000 1.000000 2.800000                  # 118
v 0.900000 2.000000 2.800000                  # 119
v 0.000000 2.000000 2.800000                  # 120
v 0.900000 3.000000 2.800000                  # 121
v 0.000000 3.000000 2.800000                  # 122
v 0.900000 4.000000 2.800000                  # 123
v 0.000000 4.000000 2.800000                  # 124
v 0.900000 5.000000 2.800000                  # 125
v 0.000000 5.000000 2.800000                  # 126
v 0.900000 6.000000 2.800000                  # 127
v 0.000000 6.000000 2.800000                  # 128
v 0.900000 7.000000 2.800000                  # 129
v 0.000000 7.000000 2.800000                  # 130
v 0.900000 8.000000 2.800000                  # 131
v 0.000000 8.000000 2.800000                  # 132
v 0.900000 9.000000 2.800000                  # 133
v 0.000000 9.000000 2.800000                  # 134
v 0.900000 10.000000 2.800000                  # 135
v 0.000000 10.000000 2.800000                  # 136
v 0.900000 11.000000 2.800000                  # 137
v 0.000000 11.000000 2.800000                  # 138
v 0.900000 12.000000 2.800000                  # 139
v 0.000000 12.000000 2.800000                  # 140
v 0.900000 13.000000 2.800000                  # 141
v 0.000000 13.000000 2.800000                  # 142
v 0.900000 14.000000 2.800000                  # 143
v 0.000000 14.000000 2.800000                  # 144
v 0.900000 15.000000 2.800000                  # 145
v 0.000000 15.000000 2.800000                  # 146
v 0.900000 16.000000 2.800000                  # 147
v 0.000000 16.000000 2.800000                  # 148
v 0.900000 17.000000 2.800000                  # 149
v 0.000000 17.000000 2.800000                  # 150
v 0.900000 18.000000 2.800000                  # 151
v 0.000000 18.000000 2.800000                  # 152
v 1.800000 0.000000 2.800000                  # 153
v 1.800000 1.000000 2.800000                  # 154
v 1.800000 2.000000 2.800000                  # 155
v 1.800000 3.000000 2.800000                  # 156
v 1.800000 4.000000 2.800000                  # 157
v 1.800000 5.000000 2.800000                  # 158
v 1.800000 6.000000 2.800000                  # 159
v 1.800000 7.000000 2.800000                  # 160
v 1.800000 8.000000 2.800000                  # 161
v 1.800000 9.000000 2.800000                  # 162
v 1.800000 10.000000 2.800000                  # 163
v 1.800000 11.000000 2.800000                  # 164
v 1.800000 12.000000 2.800000                  # 165
v 1.800000 13.000000 2.800000                  # 166
v 1.800000 14.000000 2.800000                  # 167
v 1.800000 15.000000 2.800000                  # 168
v 1.800000 16.000000 2.800000                  # 169
v 1.800000 17.000000 2.800000                  # 170
v 1.800000 18.000000 2.800000                  # 171
v 2.700000 0.000000 2.800000                  # 172
v 2.700000 1.000000 2.800000                  # 173
v 2.700000 2.000000 2.800000                  # 174
v 2.700000 3.000000 2.800000                  # 175
v 2.700000 4.000000 2.800000                  # 176
v 2.700000 5.000000 2.800000                  # 177
v 2.700000 6.000000 2.800000                  # 178
v 2.700000 7.000000 2.800000                  # 179
v 2.700000 8.000000 2.800000                  # 180
v 2.700000 9.000000 2.800000                  # 181
v 2.700000 10.000000 2.800000                  # 182
v 2.700000 11.000000 2.800000                  # 183
v 2.700000 12.000000 2.800000                  # 184
v 2.700000 13.000000 2.800000                  # 185
v 2.700000 14.000000 2.800000                  # 186
v 2.700000 15.000000 2.800000                  # 187
v 2.700000 16.000000 2.800000                  # 188
v 2.700000 17.000000 2.800000                  # 189
v 2.700000 18.000000 2.800000                  # 190
v 3.600000 0.000000 2.800000                  # 191
v 3.600000 1.000000 2.800000                  # 192
v 3.600000 2.000000 2.800000                  # 193
v 3.600000 3.000000 2.800000                  # 194
v 3.600000 4.000000 2.800000                  # 195
v 3.600000 5.000000 2.800000                  # 196
v 3.600000 6.000000 2.800000                  # 197
v 3.600000 7.000000 2.800000                  # 198
v 3.600000 8.000000 2.800000                  # 199
v 3.600000 9.000000 2.800000                  # 200
v 3.600000 10.000000 2.800000                  # 201
v 3.600000 11.000000 2.800000                  # 202
v 3.600000 12.000000 2.800000                  # 203
v 3.600000 13.000000 2.800000                  # 204
v 3.600000 14.000000 2.800000                  # 205
v 3.600000 15.000000 2.800000                  # 206
v 3.600000 16.000000 2.800000                  # 207
v 3.600000 17.000000 2.800000                  # 208
v 3.600000 18.000000 2.800000                  # 209
v 4.500000 0.000000 2.800000                  # 210
v 4.500000 1.000000 2.800000                  # 211
v 4.500000 2.000000 2.800000                  # 212
v 4.500000 3.000000 2.800000                  # 213
v 4.500000 4.000000 2.800000                  # 214
v 4.500000 5.000000 2.800000                  # 215
v 4.500000 6.000000 2.800000                  # 216
v 4.500000 7.000000 2.800000                  # 217
v 4.500000 8.000000 2.800000                  # 218
v 4.500000 9.000000 2.800000                  # 219
v 4.500000 10.000000 2.800000                  # 220
v 4.500000 11.000000 2.800000                  # 221
v 4.500000 12.000000 2.800000                  # 222
v 4.500000 13.000000 2.800000                  # 223
v 4.500000 14.000000 2.800000                  # 224
v 4.500000 15.000000 2.800000                  # 225
v 4.500000 16.000000 2.800000                  # 226
v 4.500000 17.000000 2.800000                  # 227
v 4.500000 18.000000 2.800000                  # 228
v 0.000000 1.000000 0.933333                  # 229
v 0.000000 0.000000 0.933333                  # 230
v 0.000000 1.000000 1.866667                  # 231
v 0.000000 0.000000 1.866667                  # 232
v 0.000000 2.000000 0.933333                  # 233
v 0.000000 2.000000 1.866667                  # 234
v 0.000000 3.000000 0.933333                  # 235
v 0.000000 3.000000 1.866667                  # 236
v 0.000000 4.000000 0.933333                  # 237
v 0.000000 4.000000 1.866667                  # 238
v 0.000000 5.000000 0.933333                  # 239
v 0.000000 5.000000 1.866667                  # 240
v 0.000000 6.000000 0.933333                  # 241
v 0.000000 6.000000 1.866667                  # 242
v 0.000000 7.000000 0.933333                  # 243
v 0.000000 7.000000 1.866667                  # 244
v 0.000000 8.000000 0.933333                  # 245
v 0.000000 8.000000 1.866667                  # 246
v 0.000000 9.000000 0.933333                  # 247
v 0.000000 9.000000 1.866667                  # 248
v 0.000000 10.000000 0.933333                  # 249
v 0.000000 10.000000 1.866667                  # 250
v 0.000000 11.000000 0.933333                  # 251
v 0.000000 11.000000 1.866667                  # 252
v 0.000000 12.000000 0.933333                  # 253
v 0.000000 12.000000 1.866667                  # 254
v 0.000000 13.000000 0.933333                  # 255
v 0.000000 13.000000 1.866667                  # 256
v 0.000000 14.000000 0.933333                  # 257
v 0.000000 14.000000 1.866667                  # 258
v 0.000000 15.000000 0.933333                  # 259
v 0.000000 15.000000 1.866667                  # 260
v 0.000000 16.000000 0.933333                  # 261
v 0.000000 16.000000 1.866667                  # 262
v 0.000000 17.000000 0.933333                  # 263
v 0.000000 17.000000 1.866667                  # 264
v 0.000000 18.000000 0.933333                  # 265
v 0.000000 18.000000 1.866667                  # 266
v 1.125000 0.000000 0.000000                  # 267
v 1.125000 0.000000 0.933333                  # 268
v 1.125000 0.000000 1.866667                  # 269
v 1.125000 0.000000 2.800000                  # 270
v 2.250000 0.000000 0.000000                  # 271
v 2.250000 0.000000 0.933333                  # 272
v 2.250000 0.000000 1.866667                  # 273
v 2.250000 0.000000 2.800000                  # 274
v 3.375000 0.000000 0.000000                  # 275
v 3.375000 0.000000 0.933333                  # 276
v 3.375000 0.000000 1.866667                  # 277
v 3.375000 0.000000 2.800000                  # 278
v 4.500000 0.000000 0.933333                  # 279
v 4.500000 0.000000 1.866667                  # 280
v 1.125000 18.000000 0.000000                  # 281
v 1.125000 18.000000 0.933333                  # 282
v 1.125000 18.000000 1.866667                  # 283
v 1.125000 18.000000 2.800000                  # 284
v 2.250000 18.000000 0.000000                  # 285
v 2.250000 18.000000 0.933333                  # 286
v 2.250000 18.000000 1.866667                  # 287
v 2.250000 18.000000 2.800000                  # 288
v 3.375000 18.000000 0.000000                  # 289
v 3.375000 18.000000 0.933333                  # 290
v 3.375000 18.000000 1.866667                  # 291
v 3.375000 18.000000 2.800000                  # 292
v 4.500000 18.000000 0.933333                  # 293
v 4.500000 18.000000 1.866667                  # 294
v 4.500000 1.000000 0.933333                  # 295
v 4.500000 1.000000 1.866667                  # 296
v 4.500000 2.000000 0.933333                  # 297
v 4.500000 2.000000 1.866667                  # 298
v 4.500000 3.000000 0.933333                  # 299
v 4.500000 3.000000 1.866667                  # 300
v 4.500000 4.000000 0.933333                  # 301
v 4.500000 4.000000 1.866667                  # 302
v 4.500000 5.000000 0.933333                  # 303
v 4.500000 5.000000 1.866667                  # 304
v 4.500000 6.000000 0.933333                  # 305
v 4.500000 6.000000 1.866667                  # 306
v 4.500000 7.000000 0.933333                  # 307
v 4.500000 7.000000 1.866667                  # 308
v 4.500000 13.600000 0.000000                  # 309
v 4.500000 14.700000 0.000000                  # 310
v 4.500000 14.700000 0.933333                  # 311
v 4.500000 13.600000 0.933333                  # 312
v 4.500000 14.700000 1.866667                  # 313
v 4.500000 13.600000 1.866667                  # 314
v 4.500000 14.700000 2.800000                  # 315
v 4.500000 13.600000 2.800000                  # 316
v 4.500000 15.800000 0.000000                  # 317
v 4.500000 15.800000 0.933333                  # 318
v 4.500000 15.800000 1.866667                  # 319
v 4.500000 15.800000 2.800000                  # 320
v 4.500000 16.900000 0.000000                  # 321
v 4.500000 16.900000 0.933333                  # 322
v 4.500000 16.900000 1.866667                  # 323
v 4.500000 16.900000 2.800000                  # 324
v 4.500000 8.250000 0.000000                  # 325
v 4.500000 8.250000 0.933333                  # 326
v 4.500000 8.250000 1.866667                  # 327
v 4.500000 8.250000 2.800000                  # 328
v 4.500000 9.500000 0.000000                  # 329
v 4.500000 9.500000 0.933333                  # 330
v 4.500000 9.500000 1.866667                  # 331
v 4.500000 9.500000 2.800000                  # 332
v 4.500000 9.500000 2.000000                  # 333
v 4.500000 10.500000 2.000000                  # 334
v 4.500000 10.500000 2.800000                  # 335
v 4.500000 10.500000 0.000000                  # 336
v 4.500000 11.533333 0.000000                  # 337
v 4.500000 11.533333 0.933333                  # 338
v 4.500000 10.500000 0.933333                  # 339
v 4.500000 11.533333 1.866667                  # 340
v 4.500000 10.500000 1.866667                  # 341
v 4.500000 11.533333 2.800000                  # 342
v 4.500000 12.566667 0.000000                  # 343
v 4.500000 12.566667 0.933333                  # 344
v 4.500000 12.566667 1.866667                  # 345
v 4.500000 12.566667 2.800000                  # 346
v 5.420000 7.000000 0.000000                  # 347
v 5.420000 8.100000 0.000000                  # 348
v 4.500000 8.100000 0.000000                  # 349
v 5.420000 9.200000 0.000000                  # 350
v 4.500000 9.200000 0.000000                  # 351
v 5.420000 10.300000 0.000000                  # 352
v 4.500000 10.300000 0.000000                  # 353
v 5.420000 11.400000 0.000000                  # 354
v 4.500000 11.400000 0.000000                  # 355
v 5.420000 12.500000 0.000000                  # 356
v 4.500000 12.500000 0.000000                  # 357
v 5.420000 13.600000 0.000000                  # 358
v 6.340000 7.000000 0.000000                  # 359
v 6.340000 8.100000 0.000000                  # 360
v 6.340000 9.200000 0.000000                  # 361
v 6.340000 10.300000 0.000000                  # 362
v 6.340000 11.400000 0.000000                  # 363
v 6.340000 12.500000 0.000000                  # 364
v 6.340000 13.600000 0.000000                  # 365
v 7.260000 7.000000 0.000000                  # 366
v 7.260000 8.100000 0.000000                  # 367
v 7.260000 9.200000 0.000000                  # 368
v 7.260000 10.300000 0.000000                  # 369
v 7.260000 11.400000 0.000000                  # 370
v 7.260000 12.500000 0.000000                  # 371
v 7.260000 13.600000 0.000000                  # 372
v 8.180000 7.000000 0.000000                  # 373
v 8.180000 8.100000 0.000000                  # 374
v 8.180000 9.200000 0.000000                  # 375
v 8.180000 10.300000 0.000000                  # 376
v 8.180000 11.400000 0.000000                  # 377
v 8.180000 12.500000 0.000000                  # 378
v 8.180000 13.600000 0.000000                  # 379
v 9.100000 7.000000 0.000000                  # 380
v 9.100000 8.100000 0.000000                  # 381
v 9.100000 9.200000 0.000000                  # 382
v 9.100000 10.300000 0.000000                  # 383
v 9.100000 11.400000 0.000000                  # 384
v 9.100000 12.500000 0.000000                  # 385
v 9.100000 13.600000 0.000000                  # 386
v 5.420000 7.000000 2.800000                  # 387
v 5.420000 8.100000 2.800000                  # 388
v 4.500000 8.100000 2.800000                  # 389
v 5.420000 9.200000 2.800000                  # 390
v 4.500000 9.200000 2.800000                  # 391
v 5.420000 10.300000 2.800000                  # 392
v 4.500000 10.300000 2.800000                  # 393
v 5.420000 11.400000 2.800000                  # 394
v 4.500000 11.400000 2.800000                  # 395
v 5.420000 12.500000 2.800000                  # 396
v 4.500000 12.500000 2.800000                  # 397
v 5.420000 13.600000 2.800000                  # 398
v 6.340000 7.000000 2.800000                  # 399
v 6.340000 8.100000 2.800000                  # 400
v 6.340000 9.200000 2.800000                  # 401
v 6.340000 10.300000 2.800000                  # 402
v 6.340000 11.400000 2.800000                  # 403
v 6.340000 12.500000 2.800000                  # 404
v 6.340000 13.600000 2.800000                  # 405
v 7.260000 7.000000 2.800000                  # 406
v 7.260000 8.100000 2.800000                  # 407
v 7.260000 9.200000 2.800000                  # 408
v 7.260000 10.300000 2.800000                  # 409
v 7.260000 11.400000 2.800000                  # 410
v 7.260000 12.500000 2.800000                  # 411
v 7.260000 13.600000 2.800000                  # 412
v 8.180000 7.000000 2.800000                  # 413
v 8.180000 8.100000 2.800000                  # 414
v 8.180000 9.200000 2.800000                  # 415
v 8.180000 10.300000 2.800000                  # 416
v 8.180000 11.400000 2.800000                  # 417
v 8.180000 12.500000 2.800000                  # 418
v 8.180000 13.600000 2.800000                  # 419
v 9.100000 7.000000 2.800000                  # 420
v 9.100000 8.100000 2.800000                  # 421
v 9.100000 9.200000 2.800000                  # 422
v 9.100000 10.300000 2.800000                  # 423
v 9.100000 11.400000 2.800000                  # 424
v 9.100000 12.500000 2.800000                  # 425
v 9.100000 13.600000 2.800000                  # 426
v 9.100000 8.100000 0.933333                  # 427
v 9.100000 7.000000 0.933333                  # 428
v 9.100000 8.100000 1.866667                  # 429
v 9.100000 7.000000 1.866667                  # 430
v 9.100000 9.200000 0.933333                  # 431
v 9.100000 9.200000 1.866667                  # 432
v 9.100000 10.300000 0.933333                  # 433
v 9.100000 10.300000 1.866667                  # 434
v 9.100000 11.400000 0.933333                  # 435
v 9.100000 11.400000 1.866667                  # 436
v 9.100000 12.500000 0.933333                  # 437
v 9.100000 12.500000 1.866667                  # 438
v 9.100000 13.600000 0.933333                  # 439
v 9.100000 13.600000 1.866667                  # 440
v 5.650000 7.000000 0.000000                  # 441
v 5.650000 7.000000 0.933333                  # 442
v 5.650000 7.000000 1.866667                  # 443
v 5.650000 7.000000 2.800000                  # 444
v 6.800000 7.000000 0.000000                  # 445
v 6.800000 7.000000 0.933333                  # 446
v 6.800000 7.000000 1.866667                  # 447
v 6.800000 7.000000 2.800000                  # 448
v 7.950000 7.000000 0.000000                  # 449
v 7.950000 7.000000 0.933333                  # 450
v 7.950000 7.000000 1.866667                  # 451
v 7.950000 7.000000 2.800000                  # 452
v 5.650000 13.600000 0.000000                  # 453
v 5.650000 13.600000 0.933333                  # 454
v 5.650000 13.600000 1.866667                  # 455
v 5.650000 13.600000 2.800000                  # 456
v 6.800000 13.600000 0.000000                  # 457
v 6.800000 13.600000 0.933333                  # 458
v 6.800000 13.600000 1.866667                  # 459
v 6.800000 13.600000 2.800000                  # 460
v 7.950000 13.600000 0.000000                  # 461
v 7.950000 13.600000 0.933333                  # 462
v 7.950000 13.600000 1.866667                  # 463
v 7.950000 13.600000 2.800000                  # 464

################################ Faces

usemtl Patch_1_Mat_HallwayWall
f 1 2 3
f 1 3 4

usemtl Patch_2_Mat_HallwayWall
f 4 3 5
f 4 5 6

usemtl Patch_3_Mat_HallwayWall
f 6 5 7
f 6 7 8

usemtl Patch_4_Mat_HallwayWall
f 8 7 9
f 8 9 10

usemtl Patch_5_Mat_HallwayWall
f 10 9 11
f 10 11 12

usemtl Patch_6_Mat_HallwayWall
f 12 11 13
f 12 13 14

usemtl Patch_7_Mat_HallwayWall
f 14 13 15
f 14 15 16

usemtl Patch_8_Mat_HallwayWall
f 16 15 17
f 16 17 18

usemtl Patch_9_Mat_HallwayWall
f 18 17 19
f 18 19 20

usemtl Patch_10_Mat_HallwayWall
f 20 19 21
f 20 21 22

usemtl Patch_11_Mat_HallwayWall
f 22 21 23
f 22 23 24

usemtl Patch_12_Mat_HallwayWall
f 24 23 25
f 24 25 26

usemtl Patch_13_Mat_HallwayWall
f 26 25 27
f 26 27 28

usemtl Patch_14_Mat_HallwayWall
f 28 27 29
f 28 29 30

usemtl Patch_15_Mat_HallwayWall
f 30 29 31
f 30 31 32

usemtl Patch_16_Mat_HallwayWall
f 32 31 33
f 32 33 34

usemtl Patch_17_Mat_HallwayWall
f 34 33 35
f 34 35 36

usemtl Patch_18_Mat_HallwayWall
f 36 35 37
f 36 37 38

usemtl Patch_19_Mat_HallwayWall
f 2 39 40
f 2 40 3

usemtl Patch_20_Mat_HallwayWall
f 3 40 41
f 3 41 5

usemtl Patch_21_Mat_HallwayWall
f 5 41 42
f 5 42 7

usemtl Patch_22_Mat_HallwayWall
f 7 42 43
f 7 43 9

usemtl Patch_23_Mat_HallwayWall
f 9 43 44
f 9 44 11

usemtl Patch_24_Mat_HallwayWall
f 11 44 45
f 11 45 13

usemtl Patch_25_Mat_HallwayWall
f 13 45 46
f 13 46 15

usemtl Patch_26_Mat_HallwayWall
f 15 46 47
f 15 47 17

usemtl Patch_27_Mat_HallwayWall
f 17 47 48
f 17 48 19

usemtl Patch_28_Mat_HallwayWall
f 19 48 49
f 19 49 21

usemtl Patch_29_Mat_HallwayWall
f 21 49 50
f 21 50 23

usemtl Patch_30_Mat_HallwayWall
f 23 50 51
f 23 51 25

usemtl Patch_31_Mat_HallwayWall
f 25 51 52
f 25 52 27

usemtl Patch_32_Mat_HallwayWall
f 27 52 53
f 27 53 29

usemtl Patch_33_Mat_HallwayWall
f 29 53 54
f 29 54 31

usemtl Patch_34_Mat_HallwayWall
f 31 54 55
f 31 55 33

usemtl Patch_35_Mat_HallwayWall
f 33 55 56
f 33 56 35

usemtl Patch_36_Mat_HallwayWall
f 35 56 57
f 35 57 37

usemtl Patch_37_Mat_HallwayWall
f 39 58 59
f 39 59 40

usemtl Patch_38_Mat_HallwayWall
f 40 59 60
f 40 60 41

usemtl Patch_39_Mat_HallwayWall
f 41 60 61
f 41 61 42

usemtl Patch_40_Mat_HallwayWall
f 42 61 62
f 42 62 43

usemtl Patch_41_Mat_HallwayWall
f 43 62 63
f 43 63 44

usemtl Patch_42_Mat_HallwayWall
f 44 63 64
f 44 64 45

usemtl Patch_43_Mat_HallwayWall
f 45 64 65
f 45 65 46

usemtl Patch_44_Mat_HallwayWall
f 46 65 66
f 46 66 47

usemtl Patch_45_Mat_HallwayWall
f 47 66 67
f 47 67 48

usemtl Patch_46_Mat_HallwayWall
f 48 67 68
f 48 68 49

usemtl Patch_47_Mat_HallwayWall
f 49 68 69
f 49 69 50

usemtl Patch_48_Mat_HallwayWall
f 50 69 70
f 50 70 51

usemtl Patch_49_Mat_HallwayWall
f 51 70 71
f 51 71 52

usemtl Patch_50_Mat_HallwayWall
f 52 71 72
f 52 72 53

usemtl Patch_51_Mat_HallwayWall
f 53 72 73
f 53 73 54

usemtl Patch_52_Mat_HallwayWall
f 54 73 74
f 54 74 55

usemtl Patch_53_Mat_HallwayWall
f 55 74 75
f 55 75 56

usemtl Patch_54_Mat_HallwayWall
f 56 75 76
f 56 76 57

usemtl Patch_55_Mat_HallwayWall
f 58 77 78
f 58 78 59

usemtl Patch_56_Mat_HallwayWall
f 59 78 79
f 59 79 60

usemtl Patch_57_Mat_HallwayWall
f 60 79 80
f 60 80 61

usemtl Patch_58_Mat_HallwayWall
f 61 80 81
f 61 81 62

usemtl Patch_59_Mat_HallwayWall
f 62 81 82
f 62 82 63

usemtl Patch_60_Mat_HallwayWall
f 63 82 83
f 63 83 64

usemtl Patch_61_Mat_HallwayWall
f 64 83 84
f 64 84 65

usemtl Patch_62_Mat_HallwayWall
f 65 84 85
f 65 85 66

usemtl Patch_63_Mat_HallwayWall
f 66 85 86
f 66 86 67

usemtl Patch_64_Mat_HallwayWall
f 67 86 87
f 67 87 68

usemtl Patch_65_Mat_HallwayWall
f 68 87 88
f 68 88 69

usemtl Patch_66_Mat_HallwayWall
f 69 88 89
f 69 89 70

usemtl Patch_67_Mat_HallwayWall
f 70 89 90
f 70 90 71

usemtl Patch_68_Mat_HallwayWall
f 71 90 91
f 71 91 72

usemtl Patch_69_Mat_HallwayWall
f 72 91 92
f 72 92 73

usemtl Patch_70_Mat_HallwayWall
f 73 92 93
f 73 93 74

usemtl Patch_71_Mat_HallwayWall
f 74 93 94
f 74 94 75

usemtl Patch_72_Mat_HallwayWall
f 75 94 95
f 75 95 76

usemtl Patch_73_Mat_HallwayWall
f 77 96 97
f 77 97 78

usemtl Patch_74_Mat_HallwayWall
f 78 97 98
f 78 98 79

usemtl Patch_75_Mat_HallwayWall
f 79 98 99
f 79 99 80

usemtl Patch_76_Mat_HallwayWall
f 80 99 100
f 80 100 81

usemtl Patch_77_Mat_HallwayWall
f 81 100 101
f 81 101 82

usemtl Patch_78_Mat_HallwayWall
f 82 101 102
f 82 102 83

usemtl Patch_79_Mat_HallwayWall
f 83 102 103
f 83 103 84

usemtl Patch_80_Mat_HallwayWall
f 84 103 104
f 84 104 85

usemtl Patch_81_Mat_HallwayWall
f 85 104 105
f 85 105 86

usemtl Patch_82_Mat_HallwayWall
f 86 105 106
f 86 106 87

usemtl Patch_83_Mat_HallwayWall
f 87 106 107
f 87 107 88

usemtl Patch_84_Mat_HallwayWall
f 88 107 108
f 88 108 89

usemtl Patch_85_Mat_HallwayWall
f 89 108 109
f 89 109 90

usemtl Patch_86_Mat_HallwayWall
f 90 109 110
f 90 110 91

usemtl Patch_87_Mat_HallwayWall
f 91 110 111
f 91 111 92

usemtl Patch_88_Mat_HallwayWall
f 92 111 112
f 92 112 93

usemtl Patch_89_Mat_HallwayWall
f 93 112 113
f 93 113 94

usemtl Patch_90_Mat_HallwayWall
f 94 113 114
f 94 114 95

usemtl Patch_91_Mat_HallwayWall
f 115 118 117
f 115 117 116

usemtl Patch_92_Mat_HallwayWall
f 118 120 119
f 118 119 117

usemtl Patch_93_Mat_HallwayWall
f 120 122 121
f 120 121 119

usemtl Patch_94_Mat_HallwayWall
f 122 124 123
f 122 123 121

usemtl Patch_95_Mat_HallwayWall
f 124 126 125
f 124 125 123

usemtl Patch_96_Mat_HallwayWall
f 126 128 127
f 126 127 125

usemtl Patch_97_Mat_HallwayWall
f 128 130 129
f 128 129 127

usemtl Patch_98_Mat_HallwayWall
f 130 132 131
f 130 131 129

usemtl Patch_99_Mat_HallwayWall
f 132 134 133
f 132 133 131

usemtl Patch_100_Mat_HallwayWall
f 134 136 135
f 134 135 133

usemtl Patch_101_Mat_HallwayWall
f 136 138 137
f 136 137 135

usemtl Patch_102_Mat_HallwayWall
f 138 140 139
f 138 139 137

usemtl Patch_103_Mat_HallwayWall
f 140 142 141
f 140 141 139

usemtl Patch_104_Mat_HallwayWall
f 142 144 143
f 142 143 141

usemtl Patch_105_Mat_HallwayWall
f 144 146 145
f 144 145 143

usemtl Patch_106_Mat_HallwayWall
f 146 148 147
f 146 147 145

usemtl Patch_107_Mat_HallwayWall
f 148 150 149
f 148 149 147

usemtl Patch_108_Mat_HallwayWall
f 150 152 151
f 150 151 149

usemtl Patch_109_Mat_HallwayWall
f 116 117 154
f 116 154 153

usemtl Patch_110_Mat_HallwayWall
f 117 119 155
f 117 155 154

usemtl Patch_111_Mat_HallwayWall
f 119 121 156
f 119 156 155

usemtl Patch_112_Mat_HallwayWall
f 121 123 157
f 121 157 156

usemtl Patch_113_Mat_HallwayWall
f 123 125 158
f 123 158 157

usemtl Patch_114_Mat_HallwayWall
f 125 127 159
f 125 159 158

usemtl Patch_115_Mat_HallwayWall
f 127 129 160
f 127 160 159

usemtl Patch_116_Mat_HallwayWall
f 129 131 161
f 129 161 160

usemtl Patch_117_Mat_HallwayWall
f 131 133 162
f 131 162 161

usemtl Patch_118_Mat_HallwayWall
f 133 135 163
f 133 163 162

usemtl Patch_119_Mat_HallwayWall
f 135 137 164
f 135 164 163

usemtl Patch_120_Mat_HallwayWall
f 137 139 165
f 137 165 164

usemtl Patch_121_Mat_HallwayWall
f 139 141 166
f 139 166 165

usemtl Patch_122_Mat_HallwayWall
f 141 143 167
f 141 167 166

usemtl Patch_123_Mat_HallwayWall
f 143 145 168
f 143 168 167

usemtl Patch_124_Mat_HallwayWall
f 145 147 169
f 145 169 168

usemtl Patch_125_Mat_HallwayWall
f 147 149 170
f 147 170 169

usemtl Patch_126_Mat_HallwayWall
f 149 151 171
f 149 171 170

usemtl Patch_127_Mat_HallwayWall
f 153 154 173
f 153 173 172

usemtl Patch_128_Mat_HallwayWall
f 154 155 174
f 154 174 173

usemtl Patch_129_Mat_HallwayWall
f 155 156 175
f 155 175 174

usemtl Patch_130_Mat_HallwayWall
f 156 157 176
f 156 176 175

usemtl Patch_131_Mat_HallwayWall
f 157 158 177
f 157 177 176

usemtl Patch_132_Mat_HallwayWall
f 158 159 178
f 158 178 177

usemtl Patch_133_Mat_HallwayWall
f 159 160 179
f 159 179 178

usemtl Patch_134_Mat_HallwayWall
f 160 161 180
f 160 180 179

usemtl Patch_135_Mat_HallwayWall
f 161 162 181
f 161 181 180

usemtl Patch_136_Mat_HallwayWall
f 162 163 182
f 162 182 181

usemtl Patch_137_Mat_HallwayWall
f 163 164 183
f 163 183 182

usemtl Patch_138_Mat_HallwayWall
f 164 165 184
f 164 184 183

usemtl Patch_139_Mat_HallwayWall
f 165 166 185
f 165 185 184

usemtl Patch_140_Mat_HallwayWall
f 166 167 186
f 166 186 185

usemtl Patch_141_Mat_HallwayWall
f 167 168 187
f 167 187 186

usemtl Patch_142_Mat_HallwayWall
f 168 169 188
f 168 188 187

usemtl Patch_143_Mat_HallwayWall
f 169 170 189
f 169 189 188

usemtl Patch_144_Mat_HallwayWall
f 170 171 190
f 170 190 189

usemtl Patch_145_Mat_HallwayWall
f 172 173 192
f 172 192 191

usemtl Patch_146_Mat_HallwayWall
f 173 174 193
f 173 193 192

usemtl Patch_147_Mat_HallwayWall
f 174 175 194
f 174 194 193

usemtl Patch_148_Mat_HallwayWall
f 175 176 195
f 175 195 194

usemtl Patch_149_Mat_HallwayWall
f 176 177 196
f 176 196 195

usemtl Patch_150_Mat_HallwayWall
f 177 178 197
f 177 197 196

usemtl Patch_151_Mat_HallwayWall
f 178 179 198
f 178 198 197

usemtl Patch_152_Mat_HallwayWall
f 179 180 199
f 179 199 198

usemtl Patch_153_Mat_HallwayWall
f 180 181 200
f 180 200 199

usemtl Patch_154_Mat_HallwayWall
f 181 182 201
f 181 201 200

usemtl Patch_155_Mat_HallwayWall
f 182 183 202
f 182 202 201

usemtl Patch_156_Mat_HallwayWall
f 183 184 203
f 183 203 202

usemtl Patch_157_Mat_HallwayWall
f 184 185 204
f 184 204 203

usemtl Patch_158_Mat_HallwayWall
f 185 186 205
f 185 205 204

usemtl Patch_159_Mat_HallwayWall
f 186 187 206
f 186 206 205

usemtl Patch_160_Mat_HallwayWall
f 187 188 207
f 187 207 206

usemtl Patch_161_Mat_HallwayWall
f 188 189 208
f 188 208 207

usemtl Patch_162_Mat_HallwayWall
f 189 190 209
f 189 209 208

usemtl Patch_163_Mat_HallwayWall
f 191 192 211
f 191 211 210

usemtl Patch_164_Mat_HallwayWall
f 192 193 212
f 192 212 211

usemtl Patch_165_Mat_HallwayWall
f 193 194 213
f 193 213 212

usemtl Patch_166_Mat_HallwayWall
f 194 195 214
f 194 214 213

usemtl Patch_167_Mat_HallwayWall
f 195 196 215
f 195 215 214

usemtl Patch_168_Mat_HallwayWall
f 196 197 216
f 196 216 215

usemtl Patch_169_Mat_HallwayWall
f 197 198 217
f 197 217 216

usemtl Patch_170_Mat_HallwayWall
f 198 199 218
f 198 218 217

usemtl Patch_171_Mat_HallwayWall
f 199 200 219
f 199 219 218

usemtl Patch_172_Mat_HallwayWall
f 200 201 220
f 200 220 219

usemtl Patch_173_Mat_HallwayWall
f 201 202 221
f 201 221 220

usemtl Patch_174_Mat_HallwayWall
f 202 203 222
f 202 222 221

usemtl Patch_175_Mat_HallwayWall
f 203 204 223
f 203 223 222

usemtl Patch_176_Mat_HallwayWall
f 204 205 224
f 204 224 223

usemtl Patch_177_Mat_HallwayWall
f 205 206 225
f 205 225 224

usemtl Patch_178_Mat_HallwayWall
f 206 207 226
f 206 226 225

usemtl Patch_179_Mat_HallwayWall
f 207 208 227
f 207 227 226

usemtl Patch_180_Mat_HallwayWall
f 208 209 228
f 208 228 227

usemtl Patch_181_Mat_HallwayWall
f 1 4 229
f 1 229 230

usemtl Patch_182_Mat_HallwayWall
f 230 229 231
f 230 231 232

usemtl Patch_183_Mat_HallwayWall
f 232 231 118
f 232 118 115

usemtl Patch_184_Mat_HallwayWall
f 4 6 233
f 4 233 229

usemtl Patch_185_Mat_HallwayWall
f 229 233 234
f 229 234 231

usemtl Patch_186_Mat_HallwayWall
f 231 234 120
f 231 120 118

usemtl Patch_187_Mat_HallwayWall
f 6 8 235
f 6 235 233

usemtl Patch_188_Mat_HallwayWall
f 233 235 236
f 233 236 234

usemtl Patch_189_Mat_HallwayWall
f 234 236 122
f 234 122 120

usemtl Patch_190_Mat_HallwayWall
f 8 10 237
f 8 237 235

usemtl Patch_191_Mat_HallwayWall
f 235 237 238
f 235 238 236

usemtl Patch_192_Mat_HallwayWall
f 236 238 124
f 236 124 122

usemtl Patch_193_Mat_HallwayWall
f 10 12 239
f 10 239 237

usemtl Patch_194_Mat_HallwayWall
f 237 239 240
f 237 240 238

usemtl Patch_195_Mat_HallwayWall
f 238 240 126
f 238 126 124

usemtl Patch_196_Mat_HallwayWall
f 12 14 241
f 12 241 239

usemtl Patch_197_Mat_HallwayWall
f 239 241 242
f 239 242 240

usemtl Patch_198_Mat_HallwayWall
f 240 242 128
f 240 128 126

usemtl Patch_199_Mat_HallwayWall
f 14 16 243
f 14 243 241

usemtl Patch_200_Mat_HallwayWall
f 241 243 244
f 241 244 242

usemtl Patch_201_Mat_HallwayWall
f 242 244 130
f 242 130 128

usemtl Patch_202_Mat_HallwayWall
f 16 18 245
f 16 245 243

usemtl Patch_203_Mat_HallwayWall
f 243 245 246
f 243 246 244

usemtl Patch_204_Mat_HallwayWall
f 244 246 132
f 244 132 130

usemtl Patch_205_Mat_HallwayWall
f 18 20 247
f 18 247 245

usemtl Patch_206_Mat_HallwayWall
f 245 247 248
f 245 248 246

usemtl Patch_207_Mat_HallwayWall
f 246 248 134
f 246 134 132

usemtl Patch_208_Mat_HallwayWall
f 20 22 249
f 20 249 247

usemtl Patch_209_Mat_HallwayWall
f 247 249 250
f 247 250 248

usemtl Patch_210_Mat_HallwayWall
f 248 250 136
f 248 136 134

usemtl Patch_211_Mat_HallwayWall
f 22 24 251
f 22 251 249

usemtl Patch_212_Mat_HallwayWall
f 249 251 252
f 249 252 250

usemtl Patch_213_Mat_HallwayWall
f 250 252 138
f 250 138 136

usemtl Patch_214_Mat_HallwayWall
f 24 26 253
f 24 253 251

usemtl Patch_215_Mat_HallwayWall
f 251 253 254
f 251 254 252

usemtl Patch_216_Mat_HallwayWall
f 252 254 140
f 252 140 138

usemtl Patch_217_Mat_HallwayWall
f 26 28 255
f 26 255 253

usemtl Patch_218_Mat_HallwayWall
f 253 255 256
f 253 256 254

usemtl Patch_219_Mat_HallwayWall
f 254 256 142
f 254 142 140

usemtl Patch_220_Mat_HallwayWall
f 28 30 257
f 28 257 255

usemtl Patch_221_Mat_HallwayWall
f 255 257 258
f 255 258 256

usemtl Patch_222_Mat_HallwayWall
f 256 258 144
f 256 144 142

usemtl Patch_223_Mat_HallwayWall
f 30 32 259
f 30 259 257

usemtl Patch_224_Mat_HallwayWall
f 257 259 260
f 257 260 258

usemtl Patch_225_Mat_HallwayWall
f 258 260 146
f 258 146 144

usemtl Patch_226_Mat_HallwayWall
f 32 34 261
f 32 261 259

usemtl Patch_227_Mat_HallwayWall
f 259 261 262
f 259 262 260

usemtl Patch_228_Mat_HallwayWall
f 260 262 148
f 260 148 146

usemtl Patch_229_Mat_HallwayWall
f 34 36 263
f 34 263 261

usemtl Patch_230_Mat_HallwayWall
f 261 263 264
f 261 264 262

usemtl Patch_231_Mat_HallwayWall
f 262 264 150
f 262 150 148

usemtl Patch_232_Mat_HallwayWall
f 36 38 265
f 36 265 263

usemtl Patch_233_Mat_HallwayWall
f 263 265 266
f 263 266 264

usemtl Patch_234_Mat_HallwayWall
f 264 266 152
f 264 152 150

usemtl Patch_235_Mat_HallwayWall
f 1 230 268
f 1 268 267

usemtl Patch_236_Mat_HallwayWall
f 230 232 269
f 230 269 268

usemtl Patch_237_Mat_HallwayWall
f 232 115 270
f 232 270 269

usemtl Patch_238_Mat_HallwayWall
f 267 268 272
f 267 272 271

usemtl Patch_239_Mat_HallwayWall
f 268 269 273
f 268 273 272

usemtl Patch_240_Mat_HallwayWall
f 269 270 274
f 269 274 273

usemtl Patch_241_Mat_HallwayWall
f 271 272 276
f 271 276 275

usemtl Patch_242_Mat_HallwayWall
f 272 273 277
f 272 277 276

usemtl Patch_243_Mat_HallwayWall
f 273 274 278
f 273 278 277

usemtl Patch_244_Mat_HallwayWall
f 275 276 279
f 275 279 96

usemtl Patch_245_Mat_HallwayWall
f 276 277 280
f 276 280 279

usemtl Patch_246_Mat_HallwayWall
f 277 278 210
f 277 210 280

usemtl Patch_247_Mat_HallwayWall
f 38 281 282
f 38 282 265

usemtl Patch_248_Mat_HallwayWall
f 265 282 283
f 265 283 266

usemtl Patch_249_Mat_HallwayWall
f 266 283 284
f 266 284 152

usemtl Patch_250_Mat_HallwayWall
f 281 285 286
f 281 286 282

usemtl Patch_251_Mat_HallwayWall
f 282 286 287
f 282 287 283

usemtl Patch_252_Mat_HallwayWall
f 283 287 288
f 283 288 284

usemtl Patch_253_Mat_HallwayWall
f 285 289 290
f 285 290 286

usemtl Patch_254_Mat_HallwayWall
f 286 290 291
f 286 291 287

usemtl Patch_255_Mat_HallwayWall
f 287 291 292
f 287 292 288

usemtl Patch_256_Mat_HallwayWall
f 289 114 293
f 289 293 290

usemtl Patch_257_Mat_HallwayWall
f 290 293 294
f 290 294 291

usemtl Patch_258_Mat_HallwayWall
f 291 294 228
f 291 228 292

usemtl Patch_259_Mat_HallwayWall
f 96 279 295
f 96 295 97

usemtl Patch_260_Mat_HallwayWall
f 279 280 296
f 279 296 295

usemtl Patch_261_Mat_HallwayWall
f 280 210 211
f 280 211 296

usemtl Patch_262_Mat_HallwayWall
f 97 295 297
f 97 297 98

usemtl Patch_263_Mat_HallwayWall
f 295 296 298
f 295 298 297

usemtl Patch_264_Mat_HallwayWall
f 296 211 212
f 296 212 298

usemtl Patch_265_Mat_HallwayWall
f 98 297 299
f 98 299 99

usemtl Patch_266_Mat_HallwayWall
f 297 298 300
f 297 300 299

usemtl Patch_267_Mat_HallwayWall
f 298 212 213
f 298 213 300

usemtl Patch_268_Mat_HallwayWall
f 99 299 301
f 99 301 100

usemtl Patch_269_Mat_HallwayWall
f 299 300 302
f 299 302 301

usemtl Patch_270_Mat_HallwayWall
f 300 213 214
f 300 214 302

usemtl Patch_271_Mat_HallwayWall
f 100 301 303
f 100 303 101

usemtl Patch_272_Mat_HallwayWall
f 301 302 304
f 301 304 303

usemtl Patch_273_Mat_HallwayWall
f 302 214 215
f 302 215 304

usemtl Patch_274_Mat_HallwayWall
f 101 303 305
f 101 305 102

usemtl Patch_275_Mat_HallwayWall
f 303 304 306
f 303 306 305

usemtl Patch_276_Mat_HallwayWall
f 304 215 216
f 304 216 306

usemtl Patch_277_Mat_HallwayWall
f 102 305 307
f 102 307 103

usemtl Patch_278_Mat_HallwayWall
f 305 306 308
f 305 308 307

usemtl Patch_279_Mat_HallwayWall
f 306 216 217
f 306 217 308

usemtl Patch_280_Mat_HallwayWall
f 309 312 311
f 309 311 310

usemtl Patch_281_Mat_HallwayWall
f 312 314 313
f 312 313 311

usemtl Patch_282_Mat_HallwayWall
f 314 316 315
f 314 315 313

usemtl Patch_283_Mat_HallwayWall
f 310 311 318
f 310 318 317

usemtl Patch_284_Mat_HallwayWall
f 311 313 319
f 311 319 318

usemtl Patch_285_Mat_HallwayWall
f 313 315 320
f 313 320 319

usemtl Patch_286_Mat_HallwayWall
f 317 318 322
f 317 322 321

usemtl Patch_287_Mat_HallwayWall
f 318 319 323
f 318 323 322

usemtl Patch_288_Mat_HallwayWall
f 319 320 324
f 319 324 323

usemtl Patch_289_Mat_HallwayWall
f 321 322 293
f 321 293 114

usemtl Patch_290_Mat_HallwayWall
f 322 323 294
f 322 294 293

usemtl Patch_291_Mat_HallwayWall
f 323 324 228
f 323 228 294

usemtl Patch_292_Mat_HallwayWall
f 103 307 326
f 103 326 325

usemtl Patch_293_Mat_HallwayWall
f 307 308 327
f 307 327 326

usemtl Patch_294_Mat_HallwayWall
f 308 217 328
f 308 328 327

usemtl Patch_295_Mat_HallwayWall
f 325 326 330
f 325 330 329

usemtl Patch_296_Mat_HallwayWall
f 326 327 331
f 326 331 330

usemtl Patch_297_Mat_HallwayWall
f 327 328 332
f 327 332 331

usemtl Patch_298_Mat_HallwayWall
f 333 332 335
f 333 335 334

usemtl Patch_299_Mat_HallwayWall
f 336 339 338
f 336 338 337

usemtl Patch_300_Mat_HallwayWall
f 339 341 340
f 339 340 338

usemtl Patch_301_Mat_HallwayWall
f 341 335 342
f 341 342 340

usemtl Patch_302_Mat_HallwayWall
f 337 338 344
f 337 344 343

usemtl Patch_303_Mat_HallwayWall
f 338 340 345
f 338 345 344

usemtl Patch_304_Mat_HallwayWall
f 340 342 346
f 340 346 345

usemtl Patch_305_Mat_HallwayWall
f 343 344 312
f 343 312 309

usemtl Patch_306_Mat_HallwayWall
f 344 345 314
f 344 314 312

usemtl Patch_307_Mat_HallwayWall
f 345 346 316
f 345 316 314

usemtl Patch_308_Mat_MeetingRoomWall
f 103 347 348
f 103 348 349

usemtl Patch_309_Mat_MeetingRoomWall
f 349 348 350
f 349 350 351

usemtl Patch_310_Mat_MeetingRoomWall
f 351 350 352
f 351 352 353

usemtl Patch_311_Mat_MeetingRoomWall
f 353 352 354
f 353 354 355

usemtl Patch_312_Mat_MeetingRoomWall
f 355 354 356
f 355 356 357

usemtl Patch_313_Mat_MeetingRoomWall
f 357 356 358
f 357 358 309

usemtl Patch_314_Mat_MeetingRoomWall
f 347 359 360
f 347 360 348

usemtl Patch_315_Mat_MeetingRoomWall
f 348 360 361
f 348 361 350

usemtl Patch_316_Mat_MeetingRoomWall
f 350 361 362
f 350 362 352

usemtl Patch_317_Mat_MeetingRoomWall
f 352 362 363
f 352 363 354

usemtl Patch_318_Mat_MeetingRoomWall
f 354 363 364
f 354 364 356

usemtl Patch_319_Mat_MeetingRoomWall
f 356 364 365
f 356 365 358

usemtl Patch_320_Mat_MeetingRoomWall
f 359 366 367
f 359 367 360

usemtl Patch_321_Mat_MeetingRoomWall
f 360 367 368
f 360 368 361

usemtl Patch_322_Mat_MeetingRoomWall
f 361 368 369
f 361 369 362

usemtl Patch_323_Mat_MeetingRoomWall
f 362 369 370
f 362 370 363

usemtl Patch_324_Mat_MeetingRoomWall
f 363 370 371
f 363 371 364

usemtl Patch_325_Mat_MeetingRoomWall
f 364 371 372
f 364 372 365

usemtl Patch_326_Mat_MeetingRoomWall
f 366 373 374
f 366 374 367

usemtl Patch_327_Mat_MeetingRoomWall
f 367 374 375
f 367 375 368

usemtl Patch_328_Mat_MeetingRoomWall
f 368 375 376
f 368 376 369

usemtl Patch_329_Mat_MeetingRoomWall
f 369 376 377
f 369 377 370

usemtl Patch_330_Mat_MeetingRoomWall
f 370 377 378
f 370 378 371

usemtl Patch_331_Mat_MeetingRoomWall
f 371 378 379
f 371 379 372

usemtl Patch_332_Mat_MeetingRoomWall
f 373 380 381
f 373 381 374

usemtl Patch_333_Mat_MeetingRoomWall
f 374 381 382
f 374 382 375

usemtl Patch_334_Mat_MeetingRoomWall
f 375 382 383
f 375 383 376

usemtl Patch_335_Mat_MeetingRoomWall
f 376 383 384
f 376 384 377

usemtl Patch_336_Mat_MeetingRoomWall
f 377 384 385
f 377 385 378

usemtl Patch_337_Mat_MeetingRoomWall
f 378 385 386
f 378 386 379

usemtl Patch_338_Mat_MeetingRoomWall
f 217 389 388
f 217 388 387

usemtl Patch_339_Mat_MeetingRoomWall
f 389 391 390
f 389 390 388

usemtl Patch_340_Mat_MeetingRoomWall
f 391 393 392
f 391 392 390

usemtl Patch_341_Mat_MeetingRoomWall
f 393 395 394
f 393 394 392

usemtl Patch_342_Mat_MeetingRoomWall
f 395 397 396
f 395 396 394

usemtl Patch_343_Mat_MeetingRoomWall
f 397 316 398
f 397 398 396

usemtl Patch_344_Mat_MeetingRoomWall
f 387 388 400
f 387 400 399

usemtl Patch_345_Mat_MeetingRoomWall
f 388 390 401
f 388 401 400

usemtl Patch_346_Mat_MeetingRoomWall
f 390 392 402
f 390 402 401

usemtl Patch_347_Mat_MeetingRoomWall
f 392 394 403
f 392 403 402

usemtl Patch_348_Mat_MeetingRoomWall
f 394 396 404
f 394 404 403

usemtl Patch_349_Mat_MeetingRoomWall
f 396 398 405
f 396 405 404

usemtl Patch_350_Mat_MeetingRoomWall
f 399 400 407
f 399 407 406

usemtl Patch_351_Mat_MeetingRoomWall
f 400 401 408
f 400 408 407

usemtl Patch_352_Mat_MeetingRoomWall
f 401 402 409
f 401 409 408

usemtl Patch_353_Mat_MeetingRoomWall
f 402 403 410
f 402 410 409

usemtl Patch_354_Mat_MeetingRoomWall
f 403 404 411
f 403 411 410

usemtl Patch_355_Mat_MeetingRoomWall
f 404 405 412
f 404 412 411

usemtl Patch_356_Mat_MeetingRoomWall
f 406 407 414
f 406 414 413

usemtl Patch_357_Mat_MeetingRoomWall
f 407 408 415
f 407 415 414

usemtl Patch_358_Mat_MeetingRoomWall
f 408 409 416
f 408 416 415

usemtl Patch_359_Mat_MeetingRoomWall
f 409 410 417
f 409 417 416

usemtl Patch_360_Mat_MeetingRoomWall
f 410 411 418
f 410 418 417

usemtl Patch_361_Mat_MeetingRoomWall
f 411 412 419
f 411 419 418

usemtl Patch_362_Mat_MeetingRoomWall
f 413 414 421
f 413 421 420

usemtl Patch_363_Mat_MeetingRoomWall
f 414 415 422
f 414 422 421

usemtl Patch_364_Mat_MeetingRoomWall
f 415 416 423
f 415 423 422

usemtl Patch_365_Mat_MeetingRoomWall
f 416 417 424
f 416 424 423

usemtl Patch_366_Mat_MeetingRoomWall
f 417 418 425
f 417 425 424

usemtl Patch_367_Mat_MeetingRoomWall
f 418 419 426
f 418 426 425

usemtl Patch_368_Mat_MeetingRoomWall
f 380 428 427
f 380 427 381

usemtl Patch_369_Mat_MeetingRoomWall
f 428 430 429
f 428 429 427

usemtl Patch_370_Mat_MeetingRoomWall
f 430 420 421
f 430 421 429

usemtl Patch_371_Mat_MeetingRoomWall
f 381 427 431
f 381 431 382

usemtl Patch_372_Mat_MeetingRoomWall
f 427 429 432
f 427 432 431

usemtl Patch_373_Mat_MeetingRoomWall
f 429 421 422
f 429 422 432

usemtl Patch_374_Mat_MeetingRoomWall
f 382 431 433
f 382 433 383

usemtl Patch_375_Mat_MeetingRoomWall
f 431 432 434
f 431 434 433

usemtl Patch_376_Mat_MeetingRoomWall
f 432 422 423
f 432 423 434

usemtl Patch_377_Mat_MeetingRoomWall
f 383 433 435
f 383 435 384

usemtl Patch_378_Mat_MeetingRoomWall
f 433 434 436
f 433 436 435

usemtl Patch_379_Mat_MeetingRoomWall
f 434 423 424
f 434 424 436

usemtl Patch_380_Mat_MeetingRoomWall
f 384 435 437
f 384 437 385

usemtl Patch_381_Mat_MeetingRoomWall
f 435 436 438
f 435 438 437

usemtl Patch_382_Mat_MeetingRoomWall
f 436 424 425
f 436 425 438

usemtl Patch_383_Mat_MeetingRoomWall
f 385 437 439
f 385 439 386

usemtl Patch_384_Mat_MeetingRoomWall
f 437 438 440
f 437 440 439

usemtl Patch_385_Mat_MeetingRoomWall
f 438 425 426
f 438 426 440

usemtl Patch_386_Mat_MeetingRoomWall
f 103 307 442
f 103 442 441

usemtl Patch_387_Mat_MeetingRoomWall
f 307 308 443
f 307 443 442

usemtl Patch_388_Mat_MeetingRoomWall
f 308 217 444
f 308 444 443

usemtl Patch_389_Mat_MeetingRoomWall
f 441 442 446
f 441 446 445

usemtl Patch_390_Mat_MeetingRoomWall
f 442 443 447
f 442 447 446

usemtl Patch_391_Mat_MeetingRoomWall
f 443 444 448
f 443 448 447

usemtl Patch_392_Mat_MeetingRoomWall
f 445 446 450
f 445 450 449

usemtl Patch_393_Mat_MeetingRoomWall
f 446 447 451
f 446 451 450

usemtl Patch_394_Mat_MeetingRoomWall
f 447 448 452
f 447 452 451

usemtl Patch_395_Mat_MeetingRoomWall
f 449 450 428
f 449 428 380

usemtl Patch_396_Mat_MeetingRoomWall
f 450 451 430
f 450 430 428

usemtl Patch_397_Mat_MeetingRoomWall
f 451 452 420
f 451 420 430

usemtl Patch_398_Mat_MeetingRoomWall
f 309 453 454
f 309 454 312

usemtl Patch_399_Mat_MeetingRoomWall
f 312 454 455
f 312 455 314

usemtl Patch_400_Mat_MeetingRoomWall
f 314 455 456
f 314 456 316

usemtl Patch_401_Mat_MeetingRoomWall
f 453 457 458
f 453 458 454

usemtl Patch_402_Mat_MeetingRoomWall
f 454 458 459
f 454 459 455

usemtl Patch_403_Mat_MeetingRoomWall
f 455 459 460
f 455 460 456

usemtl Patch_404_Mat_MeetingRoomWall
f 457 461 462
f 457 462 458

usemtl Patch_405_Mat_MeetingRoomWall
f 458 462 463
f 458 463 459

usemtl Patch_406_Mat_MeetingRoomWall
f 459 463 464
f 459 464 460

usemtl Patch_407_Mat_MeetingRoomWall
f 461 386 439
f 461 439 462

usemtl Patch_408_Mat_MeetingRoomWall
f 462 439 440
f 462 440 463

usemtl Patch_409_Mat_MeetingRoomWall
f 463 440 426
f 463 426 464

usemtl Patch_410_Mat_MeetingRoomWall
f 103 325 326
f 103 326 307

usemtl Patch_411_Mat_MeetingRoomWall
f 307 326 327
f 307 327 308

usemtl Patch_412_Mat_MeetingRoomWall
f 308 327 328
f 308 328 217

usemtl Patch_413_Mat_MeetingRoomWall
f 325 329 330
f 325 330 326

usemtl Patch_414_Mat_MeetingRoomWall
f 326 330 331
f 326 331 327

usemtl Patch_415_Mat_MeetingRoomWall
f 327 331 332
f 327 332 328

usemtl Patch_416_Mat_MeetingRoomWall
f 333 334 335
f 333 335 332

usemtl Patch_417_Mat_MeetingRoomWall
f 336 337 338
f 336 338 339

usemtl Patch_418_Mat_MeetingRoomWall
f 339 338 340
f 339 340 341

usemtl Patch_419_Mat_MeetingRoomWall
f 341 340 342
f 341 342 335

usemtl Patch_420_Mat_MeetingRoomWall
f 337 343 344
f 337 344 338

usemtl Patch_421_Mat_MeetingRoomWall
f 338 344 345
f 338 345 340

usemtl Patch_422_Mat_MeetingRoomWall
f 340 345 346
f 340 346 342

usemtl Patch_423_Mat_MeetingRoomWall
f 343 309 312
f 343 312 344

usemtl Patch_424_Mat_MeetingRoomWall
f 344 312 314
f 344 314 345

usemtl Patch_425_Mat_MeetingRoomWall
f 345 314 316
f 345 316 346

