mtllib mesh.mtl

################################ Vertices

v 0.000000 0.000000 0.000000                  # 1
v 0.750000 0.000000 0.000000                  # 2
v 0.750000 0.692308 0.000000                  # 3
v 0.000000 0.692308 0.000000                  # 4
v 0.750000 1.384615 0.000000                  # 5
v 0.000000 1.384615 0.000000                  # 6
v 0.750000 2.076923 0.000000                  # 7
v 0.000000 2.076923 0.000000                  # 8
v 0.750000 2.769231 0.000000                  # 9
v 0.000000 2.769231 0.000000                  # 10
v 0.750000 3.461538 0.000000                  # 11
v 0.000000 3.461538 0.000000                  # 12
v 0.750000 4.153846 0.000000                  # 13
v 0.000000 4.153846 0.000000                  # 14
v 0.750000 4.846154 0.000000                  # 15
v 0.000000 4.846154 0.000000                  # 16
v 0.750000 5.538462 0.000000                  # 17
v 0.000000 5.538462 0.000000                  # 18
v 0.750000 6.230769 0.000000                  # 19
v 0.000000 6.230769 0.000000                  # 20
v 0.750000 6.923077 0.000000                  # 21
v 0.000000 6.923077 0.000000                  # 22
v 0.750000 7.615385 0.000000                  # 23
v 0.000000 7.615385 0.000000                  # 24
v 0.750000 8.307692 0.000000                  # 25
v 0.000000 8.307692 0.000000                  # 26
v 0.750000 9.000000 0.000000                  # 27
v 0.000000 9.000000 0.000000                  # 28
v 0.750000 9.692308 0.000000                  # 29
v 0.000000 9.692308 0.000000                  # 30
v 0.750000 10.384615 0.000000                  # 31
v 0.000000 10.384615 0.000000                  # 32
v 0.750000 11.076923 0.000000                  # 33
v 0.000000 11.076923 0.000000                  # 34
v 0.750000 11.769231 0.000000                  # 35
v 0.000000 11.769231 0.000000                  # 36
v 0.750000 12.461538 0.000000                  # 37
v 0.000000 12.461538 0.000000                  # 38
v 0.750000 13.153846 0.000000                  # 39
v 0.000000 13.153846 0.000000                  # 40
v 0.750000 13.846154 0.000000                  # 41
v 0.000000 13.846154 0.000000                  # 42
v 0.750000 14.538462 0.000000                  # 43
v 0.000000 14.538462 0.000000                  # 44
v 0.750000 15.230769 0.000000                  # 45
v 0.000000 15.230769 0.000000                  # 46
v 0.750000 15.923077 0.000000                  # 47
v 0.000000 15.923077 0.000000                  # 48
v 0.750000 16.615385 0.000000                  # 49
v 0.000000 16.615385 0.000000                  # 50
v 0.750000 17.307692 0.000000                  # 51
v 0.000000 17.307692 0.000000                  # 52
v 0.750000 18.000000 0.000000                  # 53
v 0.000000 18.000000 0.000000                  # 54
v 1.500000 0.000000 0.000000                  # 55
v 1.500000 0.692308 0.000000                  # 56
v 1.500000 1.384615 0.000000                  # 57
v 1.500000 2.076923 0.000000                  # 58
v 1.500000 2.769231 0.000000                  # 59
v 1.500000 3.461538 0.000000                  # 60
v 1.500000 4.153846 0.000000                  # 61
v 1.500000 4.846154 0.000000                  # 62
v 1.500000 5.538462 0.000000                  # 63
v 1.500000 6.230769 0.000000                  # 64
v 1.500000 6.923077 0.000000                  # 65
v 1.500000 7.615385 0.000000                  # 66
v 1.500000 8.307692 0.000000                  # 67
v 1.500000 9.000000 0.000000                  # 68
v 1.500000 9.692308 0.000000                  # 69
v 1.500000 10.384615 0.000000                  # 70
v 1.500000 11.076923 0.000000                  # 71
v 1.500000 11.769231 0.000000                  # 72
v 1.500000 12.461538 0.000000                  # 73
v 1.500000 13.153846 0.000000                  # 74
v 1.500000 13.846154 0.000000                  # 75
v 1.500000 14.538462 0.000000                  # 76
v 1.500000 15.230769 0.000000                  # 77
v 1.500000 15.923077 0.000000                  # 78
v 1.500000 16.615385 0.000000                  # 79
v 1.500000 17.307692 0.000000                  # 80
v 1.500000 18.000000 0.000000                  # 81
v 2.250000 0.000000 0.000000                  # 82
v 2.250000 0.692308 0.000000                  # 83
v 2.250000 1.384615 0.000000                  # 84
v 2.250000 2.076923 0.000000                  # 85
v 2.250000 2.769231 0.000000                  # 86
v 2.250000 3.461538 0.000000                  # 87
v 2.250000 4.153846 0.000000                  # 88
v 2.250000 4.846154 0.000000                  # 89
v 2.250000 5.538462 0.000000                  # 90
v 2.250000 6.230769 0.000000                  # 91
v 2.250000 6.923077 0.000000                  # 92
v 2.250000 7.615385 0.000000                  # 93
v 2.250000 8.307692 0.000000                  # 94
v 2.250000 9.000000 0.000000                  # 95
v 2.250000 9.692308 0.000000                  # 96
v 2.250000 10.384615 0.000000                  # 97
v 2.250000 11.076923 0.000000                  # 98
v 2.250000 11.769231 0.000000                  # 99
v 2.250000 12.461538 0.000000                  # 100
v 2.250000 13.153846 0.000000                  # 101
v 2.250000 13.846154 0.000000                  # 102
v 2.250000 14.538462 0.000000                  # 103
v 2.250000 15.230769 0.000000                  # 104
v 2.250000 15.923077 0.000000                  # 105
v 2.250000 16.615385 0.000000                  # 106
v 2.250000 17.307692 0.000000                  # 107
v 2.250000 18.000000 0.000000                  # 108
v 3.000000 0.000000 0.000000                  # 109
v 3.000000 0.692308 0.000000                  # 110
v 3.000000 1.384615 0.000000                  # 111
v 3.000000 2.076923 0.000000                  # 112
v 3.000000 2.769231 0.000000                  # 113
v 3.000000 3.461538 0.000000                  # 114
v 3.000000 4.153846 0.000000                  # 115
v 3.000000 4.846154 0.000000                  # 116
v 3.000000 5.538462 0.000000                  # 117
v 3.000000 6.230769 0.000000                  # 118
v 3.000000 6.923077 0.000000                  # 119
v 3.000000 7.615385 0.000000                  # 120
v 3.000000 8.307692 0.000000                  # 121
v 3.000000 9.000000 0.000000                  # 122
v 3.000000 9.692308 0.000000                  # 123
v 3.000000 10.384615 0.000000                  # 124
v 3.000000 11.076923 0.000000                  # 125
v 3.000000 11.769231 0.000000                  # 126
v 3.000000 12.461538 0.000000                  # 127
v 3.000000 13.153846 0.000000                  # 128
v 3.000000 13.846154 0.000000                  # 129
v 3.000000 14.538462 0.000000                  # 130
v 3.000000 15.230769 0.000000                  # 131
v 3.000000 15.923077 0.000000                  # 132
v 3.000000 16.615385 0.000000                  # 133
v 3.000000 17.307692 0.000000                  # 134
v 3.000000 18.000000 0.000000                  # 135
v 3.750000 0.000000 0.000000                  # 136
v 3.750000 0.692308 0.000000                  # 137
v 3.750000 1.384615 0.000000                  # 138
v 3.750000 2.076923 0.000000                  # 139
v 3.750000 2.769231 0.000000                  # 140
v 3.750000 3.461538 0.000000                  # 141
v 3.750000 4.153846 0.000000                  # 142
v 3.750000 4.846154 0.000000                  # 143
v 3.750000 5.538462 0.000000                  # 144
v 3.750000 6.230769 0.000000                  # 145
v 3.750000 6.923077 0.000000                  # 146
v 3.750000 7.615385 0.000000                  # 147
v 3.750000 8.307692 0.000000                  # 148
v 3.750000 9.000000 0.000000                  # 149
v 3.750000 9.692308 0.000000                  # 150
v 3.750000 10.384615 0.000000                  # 151
v 3.750000 11.076923 0.000000                  # 152
v 3.750000 11.769231 0.000000                  # 153
v 3.750000 12.461538 0.000000                  # 154
v 3.750000 13.153846 0.000000                  # 155
v 3.750000 13.846154 0.000000                  # 156
v 3.750000 14.538462 0.000000                  # 157
v 3.750000 15.230769 0.000000                  # 158
v 3.750000 15.923077 0.000000                  # 159
v 3.750000 16.615385 0.000000                  # 160
v 3.750000 17.307692 0.000000                  # 161
v 3.750000 18.000000 0.000000                  # 162
v 4.500000 0.000000 0.000000                  # 163
v 4.500000 0.692308 0.000000                  # 164
v 4.500000 1.384615 0.000000                  # 165
v 4.500000 2.076923 0.000000                  # 166
v 4.500000 2.769231 0.000000                  # 167
v 4.500000 3.461538 0.000000                  # 168
v 4.500000 4.153846 0.000000                  # 169
v 4.500000 4.846154 0.000000                  # 170
v 4.500000 5.538462 0.000000                  # 171
v 4.500000 6.230769 0.000000                  # 172
v 4.500000 6.923077 0.000000                  # 173
v 4.500000 7.615385 0.000000                  # 174
v 4.500000 8.307692 0.000000                  # 175
v 4.500000 9.000000 0.000000                  # 176
v 4.500000 9.692308 0.000000                  # 177
v 4.500000 10.384615 0.000000                  # 178
v 4.500000 11.076923 0.000000                  # 179
v 4.500000 11.769231 0.000000                  # 180
v 4.500000 12.461538 0.000000                  # 181
v 4.500000 13.153846 0.000000                  # 182
v 4.500000 13.846154 0.000000                  # 183
v 4.500000 14.538462 0.000000                  # 184
v 4.500000 15.230769 0.000000                  # 185
v 4.500000 15.923077 0.000000                  # 186
v 4.500000 16.615385 0.000000                  # 187
v 4.500000 17.307692 0.000000                  # 188
v 4.500000 18.000000 0.000000                  # 189
v 0.000000 0.000000 2.800000                  # 190
v 0.750000 0.000000 2.800000                  # 191
v 0.750000 0.692308 2.800000                  # 192
v 0.000000 0.692308 2.800000                  # 193
v 0.750000 1.384615 2.800000                  # 194
v 0.000000 1.384615 2.800000                  # 195
v 0.750000 2.076923 2.800000                  # 196
v 0.000000 2.076923 2.800000                  # 197
v 0.750000 2.769231 2.800000                  # 198
v 0.000000 2.769231 2.800000                  # 199
v 0.750000 3.461538 2.800000                  # 200
v 0.000000 3.461538 2.800000                  # 201
v 0.750000 4.153846 2.800000                  # 202
v 0.000000 4.153846 2.800000                  # 203
v 0.750000 4.846154 2.800000                  # 204
v 0.000000 4.846154 2.800000                  # 205
v 0.750000 5.538462 2.800000                  # 206
v 0.000000 5.538462 2.800000                  # 207
v 0.750000 6.230769 2.800000                  # 208
v 0.000000 6.230769 2.800000                  # 209
v 0.750000 6.923077 2.800000                  # 210
v 0.000000 6.923077 2.800000                  # 211
v 0.750000 7.615385 2.800000                  # 212
v 0.000000 7.615385 2.800000                  # 213
v 0.750000 8.307692 2.800000                  # 214
v 0.000000 8.307692 2.800000                  # 215
v 0.750000 9.000000 2.800000                  # 216
v 0.000000 9.000000 2.800000                  # 217
v 0.750000 9.692308 2.800000                  # 218
v 0.000000 9.692308 2.800000                  # 219
v 0.750000 10.384615 2.800000                  # 220
v 0.000000 10.384615 2.800000                  # 221
v 0.750000 11.076923 2.800000                  # 222
v 0.000000 11.076923 2.800000                  # 223
v 0.750000 11.769231 2.800000                  # 224
v 0.000000 11.769231 2.800000                  # 225
v 0.750000 12.461538 2.800000                  # 226
v 0.000000 12.461538 2.800000                  # 227
v 0.750000 13.153846 2.800000                  # 228
v 0.000000 13.153846 2.800000                  # 229
v 0.750000 13.846154 2.800000                  # 230
v 0.000000 13.846154 2.800000                  # 231
v 0.750000 14.538462 2.800000                  # 232
v 0.000000 14.538462 2.800000                  # 233
v 0.750000 15.230769 2.800000                  # 234
v 0.000000 15.230769 2.800000                  # 235
v 0.750000 15.923077 2.800000                  # 236
v 0.000000 15.923077 2.800000                  # 237
v 0.750000 16.615385 2.800000                  # 238
v 0.000000 16.615385 2.800000                  # 239
v 0.750000 17.307692 2.800000                  # 240
v 0.000000 17.307692 2.800000                  # 241
v 0.750000 18.000000 2.800000                  # 242
v 0.000000 18.000000 2.800000                  # 243
v 1.500000 0.000000 2.800000                  # 244
v 1.500000 0.692308 2.800000                  # 245
v 1.500000 1.384615 2.800000                  # 246
v 1.500000 2.076923 2.800000                  # 247
v 1.500000 2.769231 2.800000                  # 248
v 1.500000 3.461538 2.800000                  # 249
v 1.500000 4.153846 2.800000                  # 250
v 1.500000 4.846154 2.800000                  # 251
v 1.500000 5.538462 2.800000                  # 252
v 1.500000 6.230769 2.800000                  # 253
v 1.500000 6.923077 2.800000                  # 254
v 1.500000 7.615385 2.800000                  # 255
v 1.500000 8.307692 2.800000                  # 256
v 1.500000 9.000000 2.800000                  # 257
v 1.500000 9.692308 2.800000                  # 258
v 1.500000 10.384615 2.800000                  # 259
v 1.500000 11.076923 2.800000                  # 260
v 1.500000 11.769231 2.800000                  # 261
v 1.500000 12.461538 2.800000                  # 262
v 1.500000 13.153846 2.800000                  # 263
v 1.500000 13.846154 2.800000                  # 264
v 1.500000 14.538462 2.800000                  # 265
v 1.500000 15.230769 2.800000                  # 266
v 1.500000 15.923077 2.800000                  # 267
v 1.500000 16.615385 2.800000                  # 268
v 1.500000 17.307692 2.800000                  # 269
v 1.500000 18.000000 2.800000                  # 270
v 2.250000 0.000000 2.800000                  # 271
v 2.250000 0.692308 2.800000                  # 272
v 2.250000 1.384615 2.800000                  # 273
v 2.250000 2.076923 2.800000                  # 274
v 2.250000 2.769231 2.800000                  # 275
v 2.250000 3.461538 2.800000                  # 276
v 2.250000 4.153846 2.800000                  # 277
v 2.250000 4.846154 2.800000                  # 278
v 2.250000 5.538462 2.800000                  # 279
v 2.250000 6.230769 2.800000                  # 280
v 2.250000 6.923077 2.800000                  # 281
v 2.250000 7.615385 2.800000                  # 282
v 2.250000 8.307692 2.800000                  # 283
v 2.250000 9.000000 2.800000                  # 284
v 2.250000 9.692308 2.800000                  # 285
v 2.250000 10.384615 2.800000                  # 286
v 2.250000 11.076923 2.800000                  # 287
v 2.250000 11.769231 2.800000                  # 288
v 2.250000 12.461538 2.800000                  # 289
v 2.250000 13.153846 2.800000                  # 290
v 2.250000 13.846154 2.800000                  # 291
v 2.250000 14.538462 2.800000                  # 292
v 2.250000 15.230769 2.800000                  # 293
v 2.250000 15.923077 2.800000                  # 294
v 2.250000 16.615385 2.800000                  # 295
v 2.250000 17.307692 2.800000                  # 296
v 2.250000 18.000000 2.800000                  # 297
v 3.000000 0.000000 2.800000                  # 298
v 3.000000 0.692308 2.800000                  # 299
v 3.000000 1.384615 2.800000                  # 300
v 3.000000 2.076923 2.800000                  # 301
v 3.000000 2.769231 2.800000                  # 302
v 3.000000 3.461538 2.800000                  # 303
v 3.000000 4.153846 2.800000                  # 304
v 3.000000 4.846154 2.800000                  # 305
v 3.000000 5.538462 2.800000                  # 306
v 3.000000 6.230769 2.800000                  # 307
v 3.000000 6.923077 2.800000                  # 308
v 3.000000 7.615385 2.800000                  # 309
v 3.000000 8.307692 2.800000                  # 310
v 3.000000 9.000000 2.800000                  # 311
v 3.000000 9.692308 2.800000                  # 312
v 3.000000 10.384615 2.800000                  # 313
v 3.000000 11.076923 2.800000                  # 314
v 3.000000 11.769231 2.800000                  # 315
v 3.000000 12.461538 2.800000                  # 316
v 3.000000 13.153846 2.800000                  # 317
v 3.000000 13.846154 2.800000                  # 318
v 3.000000 14.538462 2.800000                  # 319
v 3.000000 15.230769 2.800000                  # 320
v 3.000000 15.923077 2.800000                  # 321
v 3.000000 16.615385 2.800000                  # 322
v 3.000000 17.307692 2.800000                  # 323
v 3.000000 18.000000 2.800000                  # 324
v 3.750000 0.000000 2.800000                  # 325
v 3.750000 0.692308 2.800000                  # 326
v 3.750000 1.384615 2.800000                  # 327
v 3.750000 2.076923 2.800000                  # 328
v 3.750000 2.769231 2.800000                  # 329
v 3.750000 3.461538 2.800000                  # 330
v 3.750000 4.153846 2.800000                  # 331
v 3.750000 4.846154 2.800000                  # 332
v 3.750000 5.538462 2.800000                  # 333
v 3.750000 6.230769 2.800000                  # 334
v 3.750000 6.923077 2.800000                  # 335
v 3.750000 7.615385 2.800000                  # 336
v 3.750000 8.307692 2.800000                  # 337
v 3.750000 9.000000 2.800000                  # 338
v 3.750000 9.692308 2.800000                  # 339
v 3.750000 10.384615 2.800000                  # 340
v 3.750000 11.076923 2.800000                  # 341
v 3.750000 11.769231 2.800000                  # 342
v 3.750000 12.461538 2.800000                  # 343
v 3.750000 13.153846 2.800000                  # 344
v 3.750000 13.846154 2.800000                  # 345
v 3.750000 14.538462 2.800000                  # 346
v 3.750000 15.230769 2.800000                  # 347
v 3.750000 15.923077 2.800000                  # 348
v 3.750000 16.615385 2.800000                  # 349
v 3.750000 17.307692 2.800000                  # 350
v 3.750000 18.000000 2.800000                  # 351
v 4.500000 0.000000 2.800000                  # 352
v 4.500000 0.692308 2.800000                  # 353
v 4.500000 1.384615 2.800000                  # 354
v 4.500000 2.076923 2.800000                  # 355
v 4.500000 2.769231 2.800000                  # 356
v 4.500000 3.461538 2.800000                  # 357
v 4.500000 4.153846 2.800000                  # 358
v 4.500000 4.846154 2.800000                  # 359
v 4.500000 5.538462 2.800000                  # 360
v 4.500000 6.230769 2.800000                  # 361
v 4.500000 6.923077 2.800000                  # 362
v 4.500000 7.615385 2.800000                  # 363
v 4.500000 8.307692 2.800000                  # 364
v 4.500000 9.000000 2.800000                  # 365
v 4.500000 9.692308 2.800000                  # 366
v 4.500000 10.384615 2.800000                  # 367
v 4.500000 11.076923 2.800000                  # 368
v 4.500000 11.769231 2.800000                  # 369
v 4.500000 12.461538 2.800000                  # 370
v 4.500000 13.153846 2.800000                  # 371
v 4.500000 13.846154 2.800000                  # 372
v 4.500000 14.538462 2.800000                  # 373
v 4.500000 15.230769 2.800000                  # 374
v 4.500000 15.923077 2.800000                  # 375
v 4.500000 16.615385 2.800000                  # 376
v 4.500000 17.307692 2.800000                  # 377
v 4.500000 18.000000 2.800000                  # 378
v 0.000000 0.720000 0.000000                  # 379
v 0.000000 0.720000 0.700000                  # 380
v 0.000000 0.000000 0.700000                  # 381
v 0.000000 0.720000 1.400000                  # 382
v 0.000000 0.000000 1.400000                  # 383
v 0.000000 0.720000 2.100000                  # 384
v 0.000000 0.000000 2.100000                  # 385
v 0.000000 0.720000 2.800000                  # 386
v 0.000000 1.440000 0.000000                  # 387
v 0.000000 1.440000 0.700000                  # 388
v 0.000000 1.440000 1.400000                  # 389
v 0.000000 1.440000 2.100000                  # 390
v 0.000000 1.440000 2.800000                  # 391
v 0.000000 2.160000 0.000000                  # 392
v 0.000000 2.160000 0.700000                  # 393
v 0.000000 2.160000 1.400000                  # 394
v 0.000000 2.160000 2.100000                  # 395
v 0.000000 2.160000 2.800000                  # 396
v 0.000000 2.880000 0.000000                  # 397
v 0.000000 2.880000 0.700000                  # 398
v 0.000000 2.880000 1.400000                  # 399
v 0.000000 2.880000 2.100000                  # 400
v 0.000000 2.880000 2.800000                  # 401
v 0.000000 3.600000 0.000000                  # 402
v 0.000000 3.600000 0.700000                  # 403
v 0.000000 3.600000 1.400000                  # 404
v 0.000000 3.600000 2.100000                  # 405
v 0.000000 3.600000 2.800000                  # 406
v 0.000000 4.320000 0.000000                  # 407
v 0.000000 4.320000 0.700000                  # 408
v 0.000000 4.320000 1.400000                  # 409
v 0.000000 4.320000 2.100000                  # 410
v 0.000000 4.320000 2.800000                  # 411
v 0.000000 5.040000 0.000000                  # 412
v 0.000000 5.040000 0.700000                  # 413
v 0.000000 5.040000 1.400000                  # 414
v 0.000000 5.040000 2.100000                  # 415
v 0.000000 5.040000 2.800000                  # 416
v 0.000000 5.760000 0.000000                  # 417
v 0.000000 5.760000 0.700000                  # 418
v 0.000000 5.760000 1.400000                  # 419
v 0.000000 5.760000 2.100000                  # 420
v 0.000000 5.760000 2.800000                  # 421
v 0.000000 6.480000 0.000000                  # 422
v 0.000000 6.480000 0.700000                  # 423
v 0.000000 6.480000 1.400000                  # 424
v 0.000000 6.480000 2.100000                  # 425
v 0.000000 6.480000 2.800000                  # 426
v 0.000000 7.200000 0.000000                  # 427
v 0.000000 7.200000 0.700000                  # 428
v 0.000000 7.200000 1.400000                  # 429
v 0.000000 7.200000 2.100000                  # 430
v 0.000000 7.200000 2.800000                  # 431
v 0.000000 7.920000 0.000000                  # 432
v 0.000000 7.920000 0.700000                  # 433
v 0.000000 7.920000 1.400000                  # 434
v 0.000000 7.920000 2.100000                  # 435
v 0.000000 7.920000 2.800000                  # 436
v 0.000000 8.640000 0.000000                  # 437
v 0.000000 8.640000 0.700000                  # 438
v 0.000000 8.640000 1.400000                  # 439
v 0.000000 8.640000 2.100000                  # 440
v 0.000000 8.640000 2.800000                  # 441
v 0.000000 9.360000 0.000000                  # 442
v 0.000000 9.360000 0.700000                  # 443
v 0.000000 9.360000 1.400000                  # 444
v 0.000000 9.360000 2.100000                  # 445
v 0.000000 9.360000 2.800000                  # 446
v 0.000000 10.080000 0.000000                  # 447
v 0.000000 10.080000 0.700000                  # 448
v 0.000000 10.080000 1.400000                  # 449
v 0.000000 10.080000 2.100000                  # 450
v 0.000000 10.080000 2.800000                  # 451
v 0.000000 10.800000 0.000000                  # 452
v 0.000000 10.800000 0.700000                  # 453
v 0.000000 10.800000 1.400000                  # 454
v 0.000000 10.800000 2.100000                  # 455
v 0.000000 10.800000 2.800000                  # 456
v 0.000000 11.520000 0.000000                  # 457
v 0.000000 11.520000 0.700000                  # 458
v 0.000000 11.520000 1.400000                  # 459
v 0.000000 11.520000 2.100000                  # 460
v 0.000000 11.520000 2.800000                  # 461
v 0.000000 12.240000 0.000000                  # 462
v 0.000000 12.240000 0.700000                  # 463
v 0.000000 12.240000 1.400000                  # 464
v 0.000000 12.240000 2.100000                  # 465
v 0.000000 12.240000 2.800000                  # 466
v 0.000000 12.960000 0.000000                  # 467
v 0.000000 12.960000 0.700000                  # 468
v 0.000000 12.960000 1.400000                  # 469
v 0.000000 12.960000 2.100000                  # 470
v 0.000000 12.960000 2.800000                  # 471
v 0.000000 13.680000 0.000000                  # 472
v 0.000000 13.680000 0.700000                  # 473
v 0.000000 13.680000 1.400000                  # 474
v 0.000000 13.680000 2.100000                  # 475
v 0.000000 13.680000 2.800000                  # 476
v 0.000000 14.400000 0.000000                  # 477
v 0.000000 14.400000 0.700000                  # 478
v 0.000000 14.400000 1.400000                  # 479
v 0.000000 14.400000 2.100000                  # 480
v 0.000000 14.400000 2.800000                  # 481
v 0.000000 15.120000 0.000000                  # 482
v 0.000000 15.120000 0.700000                  # 483
v 0.000000 15.120000 1.400000                  # 484
v 0.000000 15.120000 2.100000                  # 485
v 0.000000 15.120000 2.800000                  # 486
v 0.000000 15.840000 0.000000                  # 487
v 0.000000 15.840000 0.700000                  # 488
v 0.000000 15.840000 1.400000                  # 489
v 0.000000 15.840000 2.100000                  # 490
v 0.000000 15.840000 2.800000                  # 491
v 0.000000 16.560000 0.000000                  # 492
v 0.000000 16.560000 0.700000                  # 493
v 0.000000 16.560000 1.400000                  # 494
v 0.000000 16.560000 2.100000                  # 495
v 0.000000 16.560000 2.800000                  # 496
v 0.000000 17.280000 0.000000                  # 497
v 0.000000 17.280000 0.700000                  # 498
v 0.000000 17.280000 1.400000                  # 499
v 0.000000 17.280000 2.100000                  # 500
v 0.000000 17.280000 2.800000                  # 501
v 0.000000 18.000000 0.700000                  # 502
v 0.000000 18.000000 1.400000                  # 503
v 0.000000 18.000000 2.100000                  # 504
v 0.750000 0.000000 0.700000                  # 505
v 0.750000 0.000000 1.400000                  # 506
v 0.750000 0.000000 2.100000                  # 507
v 1.500000 0.000000 0.700000                  # 508
v 1.500000 0.000000 1.400000                  # 509
v 1.500000 0.000000 2.100000                  # 510
v 2.250000 0.000000 0.700000                  # 511
v 2.250000 0.000000 1.400000                  # 512
v 2.250000 0.000000 2.100000                  # 513
v 3.000000 0.000000 0.700000                  # 514
v 3.000000 0.000000 1.400000                  # 515
v 3.000000 0.000000 2.100000                  # 516
v 3.750000 0.000000 0.700000                  # 517
v 3.750000 0.000000 1.400000                  # 518
v 3.750000 0.000000 2.100000                  # 519
v 4.500000 0.000000 0.700000                  # 520
v 4.500000 0.000000 1.400000                  # 521
v 4.500000 0.000000 2.100000                  # 522
v 0.750000 18.000000 0.700000                  # 523
v 0.750000 18.000000 1.400000                  # 524
v 0.750000 18.000000 2.100000                  # 525
v 1.500000 18.000000 0.700000                  # 526
v 1.500000 18.000000 1.400000                  # 527
v 1.500000 18.000000 2.100000                  # 528
v 2.250000 18.000000 0.700000                  # 529
v 2.250000 18.000000 1.400000                  # 530
v 2.250000 18.000000 2.100000                  # 531
v 3.000000 18.000000 0.700000                  # 532
v 3.000000 18.000000 1.400000                  # 533
v 3.000000 18.000000 2.100000                  # 534
v 3.750000 18.000000 0.700000                  # 535
v 3.750000 18.000000 1.400000                  # 536
v 3.750000 18.000000 2.100000                  # 537
v 4.500000 18.000000 0.700000                  # 538
v 4.500000 18.000000 1.400000                  # 539
v 4.500000 18.000000 2.100000                  # 540
v 4.500000 0.700000 0.000000                  # 541
v 4.500000 0.700000 0.700000                  # 542
v 4.500000 0.700000 1.400000                  # 543
v 4.500000 0.700000 2.100000                  # 544
v 4.500000 0.700000 2.800000                  # 545
v 4.500000 1.400000 0.000000                  # 546
v 4.500000 1.400000 0.700000                  # 547
v 4.500000 1.400000 1.400000                  # 548
v 4.500000 1.400000 2.100000                  # 549
v 4.500000 1.400000 2.800000                  # 550
v 4.500000 2.100000 0.000000                  # 551
v 4.500000 2.100000 0.700000                  # 552
v 4.500000 2.100000 1.400000                  # 553
v 4.500000 2.100000 2.100000                  # 554
v 4.500000 2.100000 2.800000                  # 555
v 4.500000 2.800000 0.000000                  # 556
v 4.500000 2.800000 0.700000                  # 557
v 4.500000 2.800000 1.400000                  # 558
v 4.500000 2.800000 2.100000                  # 559
v 4.500000 2.800000 2.800000                  # 560
v 4.500000 3.500000 0.000000                  # 561
v 4.500000 3.500000 0.700000                  # 562
v 4.500000 3.500000 1.400000                  # 563
v 4.500000 3.500000 2.100000                  # 564
v 4.500000 3.500000 2.800000                  # 565
v 4.500000 4.200000 0.000000                  # 566
v 4.500000 4.200000 0.700000                  # 567
v 4.500000 4.200000 1.400000                  # 568
v 4.500000 4.200000 2.100000                  # 569
v 4.500000 4.200000 2.800000                  # 570
v 4.500000 4.900000 0.000000                  # 571
v 4.500000 4.900000 0.700000                  # 572
v 4.500000 4.900000 1.400000                  # 573
v 4.500000 4.900000 2.100000                  # 574
v 4.500000 4.900000 2.800000                  # 575
v 4.500000 5.600000 0.000000                  # 576
v 4.500000 5.600000 0.700000                  # 577
v 4.500000 5.600000 1.400000                  # 578
v 4.500000 5.600000 2.100000                  # 579
v 4.500000 5.600000 2.800000                  # 580
v 4.500000 6.300000 0.000000                  # 581
v 4.500000 6.300000 0.700000                  # 582
v 4.500000 6.300000 1.400000                  # 583
v 4.500000 6.300000 2.100000                  # 584
v 4.500000 6.300000 2.800000                  # 585
v 4.500000 7.000000 0.000000                  # 586
v 4.500000 7.000000 0.700000                  # 587
v 4.500000 7.000000 1.400000                  # 588
v 4.500000 7.000000 2.100000                  # 589
v 4.500000 7.000000 2.800000                  # 590
v 4.500000 13.600000 0.000000                  # 591
v 4.500000 14.333333 0.000000                  # 592
v 4.500000 14.333333 0.700000                  # 593
v 4.500000 13.600000 0.700000                  # 594
v 4.500000 14.333333 1.400000                  # 595
v 4.500000 13.600000 1.400000                  # 596
v 4.500000 14.333333 2.100000                  # 597
v 4.500000 13.600000 2.100000                  # 598
v 4.500000 14.333333 2.800000                  # 599
v 4.500000 13.600000 2.800000                  # 600
v 4.500000 15.066667 0.000000                  # 601
v 4.500000 15.066667 0.700000                  # 602
v 4.500000 15.066667 1.400000                  # 603
v 4.500000 15.066667 2.100000                  # 604
v 4.500000 15.066667 2.800000                  # 605
v 4.500000 15.800000 0.000000                  # 606
v 4.500000 15.800000 0.700000                  # 607
v 4.500000 15.800000 1.400000                  # 608
v 4.500000 15.800000 2.100000                  # 609
v 4.500000 15.800000 2.800000                  # 610
v 4.500000 16.533333 0.000000                  # 611
v 4.500000 16.533333 0.700000                  # 612
v 4.500000 16.533333 1.400000                  # 613
v 4.500000 16.533333 2.100000                  # 614
v 4.500000 16.533333 2.800000                  # 615
v 4.500000 17.266667 0.000000                  # 616
v 4.500000 17.266667 0.700000                  # 617
v 4.500000 17.266667 1.400000                  # 618
v 4.500000 17.266667 2.100000                  # 619
v 4.500000 17.266667 2.800000                  # 620
v 4.500000 7.625000 0.000000                  # 621
v 4.500000 7.625000 0.700000                  # 622
v 4.500000 7.625000 1.400000                  # 623
v 4.500000 7.625000 2.100000                  # 624
v 4.500000 7.625000 2.800000                  # 625
v 4.500000 8.250000 0.000000                  # 626
v 4.500000 8.250000 0.700000                  # 627
v 4.500000 8.250000 1.400000                  # 628
v 4.500000 8.250000 2.100000                  # 629
v 4.500000 8.250000 2.800000                  # 630
v 4.500000 8.875000 0.000000                  # 631
v 4.500000 8.875000 0.700000                  # 632
v 4.500000 8.875000 1.400000                  # 633
v 4.500000 8.875000 2.100000                  # 634
v 4.500000 8.875000 2.800000                  # 635
v 4.500000 9.500000 0.000000                  # 636
v 4.500000 9.500000 0.700000                  # 637
v 4.500000 9.500000 1.400000                  # 638
v 4.500000 9.500000 2.100000                  # 639
v 4.500000 9.500000 2.800000                  # 640
v 4.500000 9.500000 2.000000                  # 641
v 4.500000 10.500000 2.000000                  # 642
v 4.500000 10.500000 2.400000                  # 643
v 4.500000 9.500000 2.400000                  # 644
v 4.500000 10.500000 2.800000                  # 645
v 4.500000 10.500000 0.000000                  # 646
v 4.500000 11.275000 0.000000                  # 647
v 4.500000 11.275000 0.700000                  # 648
v 4.500000 10.500000 0.700000                  # 649
v 4.500000 11.275000 1.400000                  # 650
v 4.500000 10.500000 1.400000                  # 651
v 4.500000 11.275000 2.100000                  # 652
v 4.500000 10.500000 2.100000                  # 653
v 4.500000 11.275000 2.800000                  # 654
v 4.500000 12.050000 0.000000                  # 655
v 4.500000 12.050000 0.700000                  # 656
v 4.500000 12.050000 1.400000                  # 657
v 4.500000 12.050000 2.100000                  # 658
v 4.500000 12.050000 2.800000                  # 659
v 4.500000 12.825000 0.000000                  # 660
v 4.500000 12.825000 0.700000                  # 661
v 4.500000 12.825000 1.400000                  # 662
v 4.500000 12.825000 2.100000                  # 663
v 4.500000 12.825000 2.800000                  # 664
v 5.266667 7.000000 0.000000                  # 665
v 5.266667 7.660000 0.000000                  # 666
v 4.500000 7.660000 0.000000                  # 667
v 5.266667 8.320000 0.000000                  # 668
v 4.500000 8.320000 0.000000                  # 669
v 5.266667 8.980000 0.000000                  # 670
v 4.500000 8.980000 0.000000                  # 671
v 5.266667 9.640000 0.000000                  # 672
v 4.500000 9.640000 0.000000                  # 673
v 5.266667 10.300000 0.000000                  # 674
v 4.500000 10.300000 0.000000                  # 675
v 5.266667 10.960000 0.000000                  # 676
v 4.500000 10.960000 0.000000                  # 677
v 5.266667 11.620000 0.000000                  # 678
v 4.500000 11.620000 0.000000                  # 679
v 5.266667 12.280000 0.000000                  # 680
v 4.500000 12.280000 0.000000                  # 681
v 5.266667 12.940000 0.000000                  # 682
v 4.500000 12.940000 0.000000                  # 683
v 5.266667 13.600000 0.000000                  # 684
v 6.033333 7.000000 0.000000                  # 685
v 6.033333 7.660000 0.000000                  # 686
v 6.033333 8.320000 0.000000                  # 687
v 6.033333 8.980000 0.000000                  # 688
v 6.033333 9.640000 0.000000                  # 689
v 6.033333 10.300000 0.000000                  # 690
v 6.033333 10.960000 0.000000                  # 691
v 6.033333 11.620000 0.000000                  # 692
v 6.033333 12.280000 0.000000                  # 693
v 6.033333 12.940000 0.000000                  # 694
v 6.033333 13.600000 0.000000                  # 695
v 6.800000 7.000000 0.000000                  # 696
v 6.800000 7.660000 0.000000                  # 697
v 6.800000 8.320000 0.000000                  # 698
v 6.800000 8.980000 0.000000                  # 699
v 6.800000 9.640000 0.000000                  # 700
v 6.800000 10.300000 0.000000                  # 701
v 6.800000 10.960000 0.000000                  # 702
v 6.800000 11.620000 0.000000                  # 703
v 6.800000 12.280000 0.000000                  # 704
v 6.800000 12.940000 0.000000                  # 705
v 6.800000 13.600000 0.000000                  # 706
v 7.566667 7.000000 0.000000                  # 707
v 7.566667 7.660000 0.000000                  # 708
v 7.566667 8.320000 0.000000                  # 709
v 7.566667 8.980000 0.000000                  # 710
v 7.566667 9.640000 0.000000                  # 711
v 7.566667 10.300000 0.000000                  # 712
v 7.566667 10.960000 0.000000                  # 713
v 7.566667 11.620000 0.000000                  # 714
v 7.566667 12.280000 0.000000                  # 715
v 7.566667 12.940000 0.000000                  # 716
v 7.566667 13.600000 0.000000                  # 717
v 8.333333 7.000000 0.000000                  # 718
v 8.333333 7.660000 0.000000                  # 719
v 8.333333 8.320000 0.000000                  # 720
v 8.333333 8.980000 0.000000                  # 721
v 8.333333 9.640000 0.000000                  # 722
v 8.333333 10.300000 0.000000                  # 723
v 8.333333 10.960000 0.000000                  # 724
v 8.333333 11.620000 0.000000                  # 725
v 8.333333 12.280000 0.000000                  # 726
v 8.333333 12.940000 0.000000                  # 727
v 8.333333 13.600000 0.000000                  # 728
v 9.100000 7.000000 0.000000                  # 729
v 9.100000 7.660000 0.000000                  # 730
v 9.100000 8.320000 0.000000                  # 731
v 9.100000 8.980000 0.000000                  # 732
v 9.100000 9.640000 0.000000                  # 733
v 9.100000 10.300000 0.000000                  # 734
v 9.100000 10.960000 0.000000                  # 735
v 9.100000 11.620000 0.000000                  # 736
v 9.100000 12.280000 0.000000                  # 737
v 9.100000 12.940000 0.000000                  # 738
v 9.100000 13.600000 0.000000                  # 739
v 5.266667 7.000000 2.800000                  # 740
v 5.266667 7.660000 2.800000                  # 741
v 4.500000 7.660000 2.800000                  # 742
v 5.266667 8.320000 2.800000                  # 743
v 4.500000 8.320000 2.800000                  # 744
v 5.266667 8.980000 2.800000                  # 745
v 4.500000 8.980000 2.800000                  # 746
v 5.266667 9.640000 2.800000                  # 747
v 4.500000 9.640000 2.800000                  # 748
v 5.266667 10.300000 2.800000                  # 749
v 4.500000 10.300000 2.800000                  # 750
v 5.266667 10.960000 2.800000                  # 751
v 4.500000 10.960000 2.800000                  # 752
v 5.266667 11.620000 2.800000                  # 753
v 4.500000 11.620000 2.800000                  # 754
v 5.266667 12.280000 2.800000                  # 755
v 4.500000 12.280000 2.800000                  # 756
v 5.266667 12.940000 2.800000                  # 757
v 4.500000 12.940000 2.800000                  # 758
v 5.266667 13.600000 2.800000                  # 759
v 6.033333 7.000000 2.800000                  # 760
v 6.033333 7.660000 2.800000                  # 761
v 6.033333 8.320000 2.800000                  # 762
v 6.033333 8.980000 2.800000                  # 763
v 6.033333 9.640000 2.800000                  # 764
v 6.033333 10.300000 2.800000                  # 765
v 6.033333 10.960000 2.800000                  # 766
v 6.033333 11.620000 2.800000                  # 767
v 6.033333 12.280000 2.800000                  # 768
v 6.033333 12.940000 2.800000                  # 769
v 6.033333 13.600000 2.800000                  # 770
v 6.800000 7.000000 2.800000                  # 771
v 6.800000 7.660000 2.800000                  # 772
v 6.800000 8.320000 2.800000                  # 773
v 6.800000 8.980000 2.800000                  # 774
v 6.800000 9.640000 2.800000                  # 775
v 6.800000 10.300000 2.800000                  # 776
v 6.800000 10.960000 2.800000                  # 777
v 6.800000 11.620000 2.800000                  # 778
v 6.800000 12.280000 2.800000                  # 779
v 6.800000 12.940000 2.800000                  # 780
v 6.800000 13.600000 2.800000                  # 781
v 7.566667 7.000000 2.800000                  # 782
v 7.566667 7.660000 2.800000                  # 783
v 7.566667 8.320000 2.800000                  # 784
v 7.566667 8.980000 2.800000                  # 785
v 7.566667 9.640000 2.800000                  # 786
v 7.566667 10.300000 2.800000                  # 787
v 7.566667 10.960000 2.800000                  # 788
v 7.566667 11.620000 2.800000                  # 789
v 7.566667 12.280000 2.800000                  # 790
v 7.566667 12.940000 2.800000                  # 791
v 7.566667 13.600000 2.800000                  # 792
v 8.333333 7.000000 2.800000                  # 793
v 8.333333 7.660000 2.800000                  # 794
v 8.333333 8.320000 2.800000                  # 795
v 8.333333 8.980000 2.800000                  # 796
v 8.333333 9.640000 2.800000                  # 797
v 8.333333 10.300000 2.800000                  # 798
v 8.333333 10.960000 2.800000                  # 799
v 8.333333 11.620000 2.800000                  # 800
v 8.333333 12.280000 2.800000                  # 801
v 8.333333 12.940000 2.800000                  # 802
v 8.333333 13.600000 2.800000                  # 803
v 9.100000 7.000000 2.800000                  # 804
v 9.100000 7.660000 2.800000                  # 805
v 9.100000 8.320000 2.800000                  # 806
v 9.100000 8.980000 2.800000                  # 807
v 9.100000 9.640000 2.800000                  # 808
v 9.100000 10.300000 2.800000                  # 809
v 9.100000 10.960000 2.800000                  # 810
v 9.100000 11.620000 2.800000                  # 811
v 9.100000 12.280000 2.800000                  # 812
v 9.100000 12.940000 2.800000                  # 813
v 9.100000 13.600000 2.800000                  # 814
v 9.100000 7.733333 0.000000                  # 815
v 9.100000 7.733333 0.700000                  # 816
v 9.100000 7.000000 0.700000                  # 817
v 9.100000 7.733333 1.400000                  # 818
v 9.100000 7.000000 1.400000                  # 819
v 9.100000 7.733333 2.100000                  # 820
v 9.100000 7.000000 2.100000                  # 821
v 9.100000 7.733333 2.800000                  # 822
v 9.100000 8.466667 0.000000                  # 823
v 9.100000 8.466667 0.700000                  # 824
v 9.100000 8.466667 1.400000                  # 825
v 9.100000 8.466667 2.100000                  # 826
v 9.100000 8.466667 2.800000                  # 827
v 9.100000 9.200000 0.000000                  # 828
v 9.100000 9.200000 0.700000                  # 829
v 9.100000 9.200000 1.400000                  # 830
v 9.100000 9.200000 2.100000                  # 831
v 9.100000 9.200000 2.800000                  # 832
v 9.100000 9.933333 0.000000                  # 833
v 9.100000 9.933333 0.700000                  # 834
v 9.100000 9.933333 1.400000                  # 835
v 9.100000 9.933333 2.100000                  # 836
v 9.100000 9.933333 2.800000                  # 837
v 9.100000 10.666667 0.000000                  # 838
v 9.100000 10.666667 0.700000                  # 839
v 9.100000 10.666667 1.400000                  # 840
v 9.100000 10.666667 2.100000                  # 841
v 9.100000 10.666667 2.800000                  # 842
v 9.100000 11.400000 0.000000                  # 843
v 9.100000 11.400000 0.700000                  # 844
v 9.100000 11.400000 1.400000                  # 845
v 9.100000 11.400000 2.100000                  # 846
v 9.100000 11.400000 2.800000                  # 847
v 9.100000 12.133333 0.000000                  # 848
v 9.100000 12.133333 0.700000                  # 849
v 9.100000 12.133333 1.400000                  # 850
v 9.100000 12.133333 2.100000                  # 851
v 9.100000 12.133333 2.800000                  # 852
v 9.100000 12.866667 0.000000                  # 853
v 9.100000 12.866667 0.700000                  # 854
v 9.100000 12.866667 1.400000                  # 855
v 9.100000 12.866667 2.100000                  # 856
v 9.100000 12.866667 2.800000                  # 857
v 9.100000 13.600000 0.700000                  # 858
v 9.100000 13.600000 1.400000                  # 859
v 9.100000 13.600000 2.100000                  # 860
v 5.266667 7.000000 0.700000                  # 861
v 5.266667 7.000000 1.400000                  # 862
v 5.266667 7.000000 2.100000                  # 863
v 6.033333 7.000000 0.700000                  # 864
v 6.033333 7.000000 1.400000                  # 865
v 6.033333 7.000000 2.100000                  # 866
v 6.800000 7.000000 0.700000                  # 867
v 6.800000 7.000000 1.400000                  # 868
v 6.800000 7.000000 2.100000                  # 869
v 7.566667 7.000000 0.700000                  # 870
v 7.566667 7.000000 1.400000                  # 871
v 7.566667 7.000000 2.100000                  # 872
v 8.333333 7.000000 0.700000                  # 873
v 8.333333 7.000000 1.400000                  # 874
v 8.333333 7.000000 2.100000                  # 875
v 5.266667 13.600000 0.700000                  # 876
v 5.266667 13.600000 1.400000                  # 877
v 5.266667 13.600000 2.100000                  # 878
v 6.033333 13.600000 0.700000                  # 879
v 6.033333 13.600000 1.400000                  # 880
v 6.033333 13.600000 2.100000                  # 881
v 6.800000 13.600000 0.700000                  # 882
v 6.800000 13.600000 1.400000                  # 883
v 6.800000 13.600000 2.100000                  # 884
v 7.566667 13.600000 0.700000                  # 885
v 7.566667 13.600000 1.400000                  # 886
v 7.566667 13.600000 2.100000                  # 887
v 8.333333 13.600000 0.700000                  # 888
v 8.333333 13.600000 1.400000                  # 889
v 8.333333 13.600000 2.100000                  # 890

################################ Faces

usemtl Patch_1_Mat_HallwayWall
f 1 2 3
f 1 3 4

usemtl Patch_2_Mat_HallwayWall
f 4 3 5
f 4 5 6

usemtl Patch_3_Mat_HallwayWall
f 6 5 7
f 6 7 8

usemtl Patch_4_Mat_HallwayWall
f 8 7 9
f 8 9 10

usemtl Patch_5_Mat_HallwayWall
f 10 9 11
f 10 11 12

usemtl Patch_6_Mat_HallwayWall
f 12 11 13
f 12 13 14

usemtl Patch_7_Mat_HallwayWall
f 14 13 15
f 14 15 16

usemtl Patch_8_Mat_HallwayWall
f 16 15 17
f 16 17 18

usemtl Patch_9_Mat_HallwayWall
f 18 17 19
f 18 19 20

usemtl Patch_10_Mat_HallwayWall
f 20 19 21
f 20 21 22

usemtl Patch_11_Mat_HallwayWall
f 22 21 23
f 22 23 24

usemtl Patch_12_Mat_HallwayWall
f 24 23 25
f 24 25 26

usemtl Patch_13_Mat_HallwayWall
f 26 25 27
f 26 27 28

usemtl Patch_14_Mat_HallwayWall
f 28 27 29
f 28 29 30

usemtl Patch_15_Mat_HallwayWall
f 30 29 31
f 30 31 32

usemtl Patch_16_Mat_HallwayWall
f 32 31 33
f 32 33 34

usemtl Patch_17_Mat_HallwayWall
f 34 33 35
f 34 35 36

usemtl Patch_18_Mat_HallwayWall
f 36 35 37
f 36 37 38

usemtl Patch_19_Mat_HallwayWall
f 38 37 39
f 38 39 40

usemtl Patch_20_Mat_HallwayWall
f 40 39 41
f 40 41 42

usemtl Patch_21_Mat_HallwayWall
f 42 41 43
f 42 43 44

usemtl Patch_22_Mat_HallwayWall
f 44 43 45
f 44 45 46

usemtl Patch_23_Mat_HallwayWall
f 46 45 47
f 46 47 48

usemtl Patch_24_Mat_HallwayWall
f 48 47 49
f 48 49 50

usemtl Patch_25_Mat_HallwayWall
f 50 49 51
f 50 51 52

usemtl Patch_26_Mat_HallwayWall
f 52 51 53
f 52 53 54

usemtl Patch_27_Mat_HallwayWall
f 2 55 56
f 2 56 3

usemtl Patch_28_Mat_HallwayWall
f 3 56 57
f 3 57 5

usemtl Patch_29_Mat_HallwayWall
f 5 57 58
f 5 58 7

usemtl Patch_30_Mat_HallwayWall
f 7 58 59
f 7 59 9

usemtl Patch_31_Mat_HallwayWall
f 9 59 60
f 9 60 11

usemtl Patch_32_Mat_HallwayWall
f 11 60 61
f 11 61 13

usemtl Patch_33_Mat_HallwayWall
f 13 61 62
f 13 62 15

usemtl Patch_34_Mat_HallwayWall
f 15 62 63
f 15 63 17

usemtl Patch_35_Mat_HallwayWall
f 17 63 64
f 17 64 19

usemtl Patch_36_Mat_HallwayWall
f 19 64 65
f 19 65 21

usemtl Patch_37_Mat_HallwayWall
f 21 65 66
f 21 66 23

usemtl Patch_38_Mat_HallwayWall
f 23 66 67
f 23 67 25

usemtl Patch_39_Mat_HallwayWall
f 25 67 68
f 25 68 27

usemtl Patch_40_Mat_HallwayWall
f 27 68 69
f 27 69 29

usemtl Patch_41_Mat_HallwayWall
f 29 69 70
f 29 70 31

usemtl Patch_42_Mat_HallwayWall
f 31 70 71
f 31 71 33

usemtl Patch_43_Mat_HallwayWall
f 33 71 72
f 33 72 35

usemtl Patch_44_Mat_HallwayWall
f 35 72 73
f 35 73 37

usemtl Patch_45_Mat_HallwayWall
f 37 73 74
f 37 74 39

usemtl Patch_46_Mat_HallwayWall
f 39 74 75
f 39 75 41

usemtl Patch_47_Mat_HallwayWall
f 41 75 76
f 41 76 43

usemtl Patch_48_Mat_HallwayWall
f 43 76 77
f 43 77 45

usemtl Patch_49_Mat_HallwayWall
f 45 77 78
f 45 78 47

usemtl Patch_50_Mat_HallwayWall
f 47 78 79
f 47 79 49

usemtl Patch_51_Mat_HallwayWall
f 49 79 80
f 49 80 51

usemtl Patch_52_Mat_HallwayWall
f 51 80 81
f 51 81 53

usemtl Patch_53_Mat_HallwayWall
f 55 82 83
f 55 83 56

usemtl Patch_54_Mat_HallwayWall
f 56 83 84
f 56 84 57

usemtl Patch_55_Mat_HallwayWall
f 57 84 85
f 57 85 58

usemtl Patch_56_Mat_HallwayWall
f 58 85 86
f 58 86 59

usemtl Patch_57_Mat_HallwayWall
f 59 86 87
f 59 87 60

usemtl Patch_58_Mat_HallwayWall
f 60 87 88
f 60 88 61

usemtl Patch_59_Mat_HallwayWall
f 61 88 89
f 61 89 62

usemtl Patch_60_Mat_HallwayWall
f 62 89 90
f 62 90 63

usemtl Patch_61_Mat_HallwayWall
f 63 90 91
f 63 91 64

usemtl Patch_62_Mat_HallwayWall
f 64 91 92
f 64 92 65

usemtl Patch_63_Mat_HallwayWall
f 65 92 93
f 65 93 66

usemtl Patch_64_Mat_HallwayWall
f 66 93 94
f 66 94 67

usemtl Patch_65_Mat_HallwayWall
f 67 94 95
f 67 95 68

usemtl Patch_66_Mat_HallwayWall
f 68 95 96
f 68 96 69

usemtl Patch_67_Mat_HallwayWall
f 69 96 97
f 69 97 70

usemtl Patch_68_Mat_HallwayWall
f 70 97 98
f 70 98 71

usemtl Patch_69_Mat_HallwayWall
f 71 98 99
f 71 99 72

usemtl Patch_70_Mat_HallwayWall
f 72 99 100
f 72 100 73

usemtl Patch_71_Mat_HallwayWall
f 73 100 101
f 73 101 74

usemtl Patch_72_Mat_HallwayWall
f 74 101 102
f 74 102 75

usemtl Patch_73_Mat_HallwayWall
f 75 102 103
f 75 103 76

usemtl Patch_74_Mat_HallwayWall
f 76 103 104
f 76 104 77

usemtl Patch_75_Mat_HallwayWall
f 77 104 105
f 77 105 78

usemtl Patch_76_Mat_HallwayWall
f 78 105 106
f 78 106 79

usemtl Patch_77_Mat_HallwayWall
f 79 106 107
f 79 107 80

usemtl Patch_78_Mat_HallwayWall
f 80 107 108
f 80 108 81

usemtl Patch_79_Mat_HallwayWall
f 82 109 110
f 82 110 83

usemtl Patch_80_Mat_HallwayWall
f 83 110 111
f 83 111 84

usemtl Patch_81_Mat_HallwayWall
f 84 111 112
f 84 112 85

usemtl Patch_82_Mat_HallwayWall
f 85 112 113
f 85 113 86

usemtl Patch_83_Mat_HallwayWall
f 86 113 114
f 86 114 87

usemtl Patch_84_Mat_HallwayWall
f 87 114 115
f 87 115 88

usemtl Patch_85_Mat_HallwayWall
f 88 115 116
f 88 116 89

usemtl Patch_86_Mat_HallwayWall
f 89 116 117
f 89 117 90

usemtl Patch_87_Mat_HallwayWall
f 90 117 118
f 90 118 91

usemtl Patch_88_Mat_HallwayWall
f 91 118 119
f 91 119 92

usemtl Patch_89_Mat_HallwayWall
f 92 119 120
f 92 120 93

usemtl Patch_90_Mat_HallwayWall
f 93 120 121
f 93 121 94

usemtl Patch_91_Mat_HallwayWall
f 94 121 122
f 94 122 95

usemtl Patch_92_Mat_HallwayWall
f 95 122 123
f 95 123 96

usemtl Patch_93_Mat_HallwayWall
f 96 123 124
f 96 124 97

usemtl Patch_94_Mat_HallwayWall
f 97 124 125
f 97 125 98

usemtl Patch_95_Mat_HallwayWall
f 98 125 126
f 98 126 99

usemtl Patch_96_Mat_HallwayWall
f 99 126 127
f 99 127 100

usemtl Patch_97_Mat_HallwayWall
f 100 127 128
f 100 128 101

usemtl Patch_98_Mat_HallwayWall
f 101 128 129
f 101 129 102

usemtl Patch_99_Mat_HallwayWall
f 102 129 130
f 102 130 103

usemtl Patch_100_Mat_HallwayWall
f 103 130 131
f 103 131 104

usemtl Patch_101_Mat_HallwayWall
f 104 131 132
f 104 132 105

usemtl Patch_102_Mat_HallwayWall
f 105 132 133
f 105 133 106

usemtl Patch_103_Mat_HallwayWall
f 106 133 134
f 106 134 107

usemtl Patch_104_Mat_HallwayWall
f 107 134 135
f 107 135 108

usemtl Patch_105_Mat_HallwayWall
f 109 136 137
f 109 137 110

usemtl Patch_106_Mat_HallwayWall
f 110 137 138
f 110 138 111

usemtl Patch_107_Mat_HallwayWall
f 111 138 139
f 111 139 112

usemtl Patch_108_Mat_HallwayWall
f 112 139 140
f 112 140 113

usemtl Patch_109_Mat_HallwayWall
f 113 140 141
f 113 141 114

usemtl Patch_110_Mat_HallwayWall
f 114 141 142
f 114 142 115

usemtl Patch_111_Mat_HallwayWall
f 115 142 143
f 115 143 116

usemtl Patch_112_Mat_HallwayWall
f 116 143 144
f 116 144 117

usemtl Patch_113_Mat_HallwayWall
f 117 144 145
f 117 145 118

usemtl Patch_114_Mat_HallwayWall
f 118 145 146
f 118 146 119

usemtl Patch_115_Mat_HallwayWall
f 119 146 147
f 119 147 120

usemtl Patch_116_Mat_HallwayWall
f 120 147 148
f 120 148 121

usemtl Patch_117_Mat_HallwayWall
f 121 148 149
f 121 149 122

usemtl Patch_118_Mat_HallwayWall
f 122 149 150
f 122 150 123

usemtl Patch_119_Mat_HallwayWall
f 123 150 151
f 123 151 124

usemtl Patch_120_Mat_HallwayWall
f 124 151 152
f 124 152 125

usemtl Patch_121_Mat_HallwayWall
f 125 152 153
f 125 153 126

usemtl Patch_122_Mat_HallwayWall
f 126 153 154
f 126 154 127

usemtl Patch_123_Mat_HallwayWall
f 127 154 155
f 127 155 128

usemtl Patch_124_Mat_HallwayWall
f 128 155 156
f 128 156 129

usemtl Patch_125_Mat_HallwayWall
f 129 156 157
f 129 157 130

usemtl Patch_126_Mat_HallwayWall
f 130 157 158
f 130 158 131

usemtl Patch_127_Mat_HallwayWall
f 131 158 159
f 131 159 132

usemtl Patch_128_Mat_HallwayWall
f 132 159 160
f 132 160 133

usemtl Patch_129_Mat_HallwayWall
f 133 160 161
f 133 161 134

usemtl Patch_130_Mat_HallwayWall
f 134 161 162
f 134 162 135

usemtl Patch_131_Mat_HallwayWall
f 136 163 164
f 136 164 137

usemtl Patch_132_Mat_HallwayWall
f 137 164 165
f 137 165 138

usemtl Patch_133_Mat_HallwayWall
f 138 165 166
f 138 166 139

usemtl Patch_134_Mat_HallwayWall
f 139 166 167
f 139 167 140

usemtl Patch_135_Mat_HallwayWall
f 140 167 168
f 140 168 141

usemtl Patch_136_Mat_HallwayWall
f 141 168 169
f 141 169 142

usemtl Patch_137_Mat_HallwayWall
f 142 169 170
f 142 170 143

usemtl Patch_138_Mat_HallwayWall
f 143 170 171
f 143 171 144

usemtl Patch_139_Mat_HallwayWall
f 144 171 172
f 144 172 145

usemtl Patch_140_Mat_HallwayWall
f 145 172 173
f 145 173 146

usemtl Patch_141_Mat_HallwayWall
f 146 173 174
f 146 174 147

usemtl Patch_142_Mat_HallwayWall
f 147 174 175
f 147 175 148

usemtl Patch_143_Mat_HallwayWall
f 148 175 176
f 148 176 149

usemtl Patch_144_Mat_HallwayWall
f 149 176 177
f 149 177 150

usemtl Patch_145_Mat_HallwayWall
f 150 177 178
f 150 178 151

usemtl Patch_146_Mat_HallwayWall
f 151 178 179
f 151 179 152

usemtl Patch_147_Mat_HallwayWall
f 152 179 180
f 152 180 153

usemtl Patch_148_Mat_HallwayWall
f 153 180 181
f 153 181 154

usemtl Patch_149_Mat_HallwayWall
f 154 181 182
f 154 182 155

usemtl Patch_150_Mat_HallwayWall
f 155 182 183
f 155 183 156

usemtl Patch_151_Mat_HallwayWall
f 156 183 184
f 156 184 157

usemtl Patch_152_Mat_HallwayWall
f 157 184 185
f 157 185 158

usemtl Patch_153_Mat_HallwayWall
f 158 185 186
f 158 186 159

usemtl Patch_154_Mat_HallwayWall
f 159 186 187
f 159 187 160

usemtl Patch_155_Mat_HallwayWall
f 160 187 188
f 160 188 161

usemtl Patch_156_Mat_HallwayWall
f 161 188 189
f 161 189 162

usemtl Patch_157_Mat_HallwayWall
f 190 193 192
f 190 192 191

usemtl Patch_158_Mat_HallwayWall
f 193 195 194
f 193 194 192

usemtl Patch_159_Mat_HallwayWall
f 195 197 196
f 195 196 194

usemtl Patch_160_Mat_HallwayWall
f 197 199 198
f 197 198 196

usemtl Patch_161_Mat_HallwayWall
f 199 201 200
f 199 200 198

usemtl Patch_162_Mat_HallwayWall
f 201 203 202
f 201 202 200

usemtl Patch_163_Mat_HallwayWall
f 203 205 204
f 203 204 202

usemtl Patch_164_Mat_HallwayWall
f 205 207 206
f 205 206 204

usemtl Patch_165_Mat_HallwayWall
f 207 209 208
f 207 208 206

usemtl Patch_166_Mat_HallwayWall
f 209 211 210
f 209 210 208

usemtl Patch_167_Mat_HallwayWall
f 211 213 212
f 211 212 210

usemtl Patch_168_Mat_HallwayWall
f 213 215 214
f 213 214 212

usemtl Patch_169_Mat_HallwayWall
f 215 217 216
f 215 216 214

usemtl Patch_170_Mat_HallwayWall
f 217 219 218
f 217 218 216

usemtl Patch_171_Mat_HallwayWall
f 219 221 220
f 219 220 218

usemtl Patch_172_Mat_HallwayWall
f 221 223 222
f 221 222 220

usemtl Patch_173_Mat_HallwayWall
f 223 225 224
f 223 224 222

usemtl Patch_174_Mat_HallwayWall
f 225 227 226
f 225 226 224

usemtl Patch_175_Mat_HallwayWall
f 227 229 228
f 227 228 226

usemtl Patch_176_Mat_HallwayWall
f 229 231 230
f 229 230 228

usemtl Patch_177_Mat_HallwayWall
f 231 233 232
f 231 232 230

usemtl Patch_178_Mat_HallwayWall
f 233 235 234
f 233 234 232

usemtl Patch_179_Mat_HallwayWall
f 235 237 236
f 235 236 234

usemtl Patch_180_Mat_HallwayWall
f 237 239 238
f 237 238 236

usemtl Patch_181_Mat_HallwayWall
f 239 241 240
f 239 240 238

usemtl Patch_182_Mat_HallwayWall
f 241 243 242
f 241 242 240

usemtl Patch_183_Mat_HallwayWall
f 191 192 245
f 191 245 244

usemtl Patch_184_Mat_HallwayWall
f 192 194 246
f 192 246 245

usemtl Patch_185_Mat_HallwayWall
f 194 196 247
f 194 247 246

usemtl Patch_186_Mat_HallwayWall
f 196 198 248
f 196 248 247

usemtl Patch_187_Mat_HallwayWall
f 198 200 249
f 198 249 248

usemtl Patch_188_Mat_HallwayWall
f 200 202 250
f 200 250 249

usemtl Patch_189_Mat_HallwayWall
f 202 204 251
f 202 251 250

usemtl Patch_190_Mat_HallwayWall
f 204 206 252
f 204 252 251

usemtl Patch_191_Mat_HallwayWall
f 206 208 253
f 206 253 252

usemtl Patch_192_Mat_HallwayWall
f 208 210 254
f 208 254 253

usemtl Patch_193_Mat_HallwayWall
f 210 212 255
f 210 255 254

usemtl Patch_194_Mat_HallwayWall
f 212 214 256
f 212 256 255

usemtl Patch_195_Mat_HallwayWall
f 214 216 257
f 214 257 256

usemtl Patch_196_Mat_HallwayWall
f 216 218 258
f 216 258 257

usemtl Patch_197_Mat_HallwayWall
f 218 220 259
f 218 259 258

usemtl Patch_198_Mat_HallwayWall
f 220 222 260
f 220 260 259

usemtl Patch_199_Mat_HallwayWall
f 222 224 261
f 222 261 260

usemtl Patch_200_Mat_HallwayWall
f 224 226 262
f 224 262 261

usemtl Patch_201_Mat_HallwayWall
f 226 228 263
f 226 263 262

usemtl Patch_202_Mat_HallwayWall
f 228 230 264
f 228 264 263

usemtl Patch_203_Mat_HallwayWall
f 230 232 265
f 230 265 264

usemtl Patch_204_Mat_HallwayWall
f 232 234 266
f 232 266 265

usemtl Patch_205_Mat_HallwayWall
f 234 236 267
f 234 267 266

usemtl Patch_206_Mat_HallwayWall
f 236 238 268
f 236 268 267

usemtl Patch_207_Mat_HallwayWall
f 238 240 269
f 238 269 268

usemtl Patch_208_Mat_HallwayWall
f 240 242 270
f 240 270 269

usemtl Patch_209_Mat_HallwayWall
f 244 245 272
f 244 272 271

usemtl Patch_210_Mat_HallwayWall
f 245 246 273
f 245 273 272

usemtl Patch_211_Mat_HallwayWall
f 246 247 274
f 246 274 273

usemtl Patch_212_Mat_HallwayWall
f 247 248 275
f 247 275 274

usemtl Patch_213_Mat_HallwayWall
f 248 249 276
f 248 276 275

usemtl Patch_214_Mat_HallwayWall
f 249 250 277
f 249 277 276

usemtl Patch_215_Mat_HallwayWall
f 250 251 278
f 250 278 277

usemtl Patch_216_Mat_HallwayWall
f 251 252 279
f 251 279 278

usemtl Patch_217_Mat_HallwayWall
f 252 253 280
f 252 280 279

usemtl Patch_218_Mat_HallwayWall
f 253 254 281
f 253 281 280

usemtl Patch_219_Mat_HallwayWall
f 254 255 282
f 254 282 281

usemtl Patch_220_Mat_HallwayWall
f 255 256 283
f 255 283 282

usemtl Patch_221_Mat_HallwayWall
f 256 257 284
f 256 284 283

usemtl Patch_222_Mat_HallwayWall
f 257 258 285
f 257 285 284

usemtl Patch_223_Mat_HallwayWall
f 258 259 286
f 258 286 285

usemtl Patch_224_Mat_HallwayWall
f 259 260 287
f 259 287 286

usemtl Patch_225_Mat_HallwayWall
f 260 261 288
f 260 288 287

usemtl Patch_226_Mat_HallwayWall
f 261 262 289
f 261 289 288

usemtl Patch_227_Mat_HallwayWall
f 262 263 290
f 262 290 289

usemtl Patch_228_Mat_HallwayWall
f 263 264 291
f 263 291 290

usemtl Patch_229_Mat_HallwayWall
f 264 265 292
f 264 292 291

usemtl Patch_230_Mat_HallwayWall
f 265 266 293
f 265 293 292

usemtl Patch_231_Mat_HallwayWall
f 266 267 294
f 266 294 293

usemtl Patch_232_Mat_HallwayWall
f 267 268 295
f 267 295 294

usemtl Patch_233_Mat_HallwayWall
f 268 269 296
f 268 296 295

usemtl Patch_234_Mat_HallwayWall
f 269 270 297
f 269 297 296

usemtl Patch_235_Mat_HallwayWall
f 271 272 299
f 271 299 298

usemtl Patch_236_Mat_HallwayWall
f 272 273 300
f 272 300 299

usemtl Patch_237_Mat_HallwayWall
f 273 274 301
f 273 301 300

usemtl Patch_238_Mat_HallwayWall
f 274 275 302
f 274 302 301

usemtl Patch_239_Mat_HallwayWall
f 275 276 303
f 275 303 302

usemtl Patch_240_Mat_HallwayWall
f 276 277 304
f 276 304 303

usemtl Patch_241_Mat_HallwayWall
f 277 278 305
f 277 305 304

usemtl Patch_242_Mat_HallwayWall
f 278 279 306
f 278 306 305

usemtl Patch_243_Mat_HallwayWall
f 279 280 307
f 279 307 306

usemtl Patch_244_Mat_HallwayWall
f 280 281 308
f 280 308 307

usemtl Patch_245_Mat_HallwayWall
f 281 282 309
f 281 309 308

usemtl Patch_246_Mat_HallwayWall
f 282 283 310
f 282 310 309

usemtl Patch_247_Mat_HallwayWall
f 283 284 311
f 283 311 310

usemtl Patch_248_Mat_HallwayWall
f 284 285 312
f 284 312 311

usemtl Patch_249_Mat_HallwayWall
f 285 286 313
f 285 313 312

usemtl Patch_250_Mat_HallwayWall
f 286 287 314
f 286 314 313

usemtl Patch_251_Mat_HallwayWall
f 287 288 315
f 287 315 314

usemtl Patch_252_Mat_HallwayWall
f 288 289 316
f 288 316 315

usemtl Patch_253_Mat_HallwayWall
f 289 290 317
f 289 317 316

usemtl Patch_254_Mat_HallwayWall
f 290 291 318
f 290 318 317

usemtl Patch_255_Mat_HallwayWall
f 291 292 319
f 291 319 318

usemtl Patch_256_Mat_HallwayWall
f 292 293 320
f 292 320 319

usemtl Patch_257_Mat_HallwayWall
f 293 294 321
f 293 321 320

usemtl Patch_258_Mat_HallwayWall
f 294 295 322
f 294 322 321

usemtl Patch_259_Mat_HallwayWall
f 295 296 323
f 295 323 322

usemtl Patch_260_Mat_HallwayWall
f 296 297 324
f 296 324 323

usemtl Patch_261_Mat_HallwayWall
f 298 299 326
f 298 326 325

usemtl Patch_262_Mat_HallwayWall
f 299 300 327
f 299 327 326

usemtl Patch_263_Mat_HallwayWall
f 300 301 328
f 300 328 327

usemtl Patch_264_Mat_HallwayWall
f 301 302 329
f 301 329 328

usemtl Patch_265_Mat_HallwayWall
f 302 303 330
f 302 330 329

usemtl Patch_266_Mat_HallwayWall
f 303 304 331
f 303 331 330

usemtl Patch_267_Mat_HallwayWall
f 304 305 332
f 304 332 331

usemtl Patch_268_Mat_HallwayWall
f 305 306 333
f 305 333 332

usemtl Patch_269_Mat_HallwayWall
f 306 307 334
f 306 334 333

usemtl Patch_270_Mat_HallwayWall
f 307 308 335
f 307 335 334

usemtl Patch_271_Mat_HallwayWall
f 308 309 336
f 308 336 335

usemtl Patch_272_Mat_HallwayWall
f 309 310 337
f 309 337 336

usemtl Patch_273_Mat_HallwayWall
f 310 311 338
f 310 338 337

usemtl Patch_274_Mat_HallwayWall
f 311 312 339
f 311 339 338

usemtl Patch_275_Mat_HallwayWall
f 312 313 340
f 312 340 339

usemtl Patch_276_Mat_HallwayWall
f 313 314 341
f 313 341 340

usemtl Patch_277_Mat_HallwayWall
f 314 315 342
f 314 342 341

usemtl Patch_278_Mat_HallwayWall
f 315 316 343
f 315 343 342

usemtl Patch_279_Mat_HallwayWall
f 316 317 344
f 316 344 343

usemtl Patch_280_Mat_HallwayWall
f 317 318 345
f 317 345 344

usemtl Patch_281_Mat_HallwayWall
f 318 319 346
f 318 346 345

usemtl Patch_282_Mat_HallwayWall
f 319 320 347
f 319 347 346

usemtl Patch_283_Mat_HallwayWall
f 320 321 348
f 320 348 347

usemtl Patch_284_Mat_HallwayWall
f 321 322 349
f 321 349 348

usemtl Patch_285_Mat_HallwayWall
f 322 323 350
f 322 350 349

usemtl Patch_286_Mat_HallwayWall
f 323 324 351
f 323 351 350

usemtl Patch_287_Mat_HallwayWall
f 325 326 353
f 325 353 352

usemtl Patch_288_Mat_HallwayWall
f 326 327 354
f 326 354 353

usemtl Patch_289_Mat_HallwayWall
f 327 328 355
f 327 355 354

usemtl Patch_290_Mat_HallwayWall
f 328 329 356
f 328 356 355

usemtl Patch_291_Mat_HallwayWall
f 329 330 357
f 329 357 356

usemtl Patch_292_Mat_HallwayWall
f 330 331 358
f 330 358 357

usemtl Patch_293_Mat_HallwayWall
f 331 332 359
f 331 359 358

usemtl Patch_294_Mat_HallwayWall
f 332 333 360
f 332 360 359

usemtl Patch_295_Mat_HallwayWall
f 333 334 361
f 333 361 360

usemtl Patch_296_Mat_HallwayWall
f 334 335 362
f 334 362 361

usemtl Patch_297_Mat_HallwayWall
f 335 336 363
f 335 363 362

usemtl Patch_298_Mat_HallwayWall
f 336 337 364
f 336 364 363

usemtl Patch_299_Mat_HallwayWall
f 337 338 365
f 337 365 364

usemtl Patch_300_Mat_HallwayWall
f 338 339 366
f 338 366 365

usemtl Patch_301_Mat_HallwayWall
f 339 340 367
f 339 367 366

usemtl Patch_302_Mat_HallwayWall
f 340 341 368
f 340 368 367

usemtl Patch_303_Mat_HallwayWall
f 341 342 369
f 341 369 368

usemtl Patch_304_Mat_HallwayWall
f 342 343 370
f 342 370 369

usemtl Patch_305_Mat_HallwayWall
f 343 344 371
f 343 371 370

usemtl Patch_306_Mat_HallwayWall
f 344 345 372
f 344 372 371

usemtl Patch_307_Mat_HallwayWall
f 345 346 373
f 345 373 372

usemtl Patch_308_Mat_HallwayWall
f 346 347 374
f 346 374 373

usemtl Patch_309_Mat_HallwayWall
f 347 348 375
f 347 375 374

usemtl Patch_310_Mat_HallwayWall
f 348 349 376
f 348 376 375

usemtl Patch_311_Mat_HallwayWall
f 349 350 377
f 349 377 376

usemtl Patch_312_Mat_HallwayWall
f 350 351 378
f 350 378 377

usemtl Patch_313_Mat_HallwayWall
f 1 379 380
f 1 380 381

usemtl Patch_314_Mat_HallwayWall
f 381 380 382
f 381 382 383

usemtl Patch_315_Mat_HallwayWall
f 383 382 384
f 383 384 385

usemtl Patch_316_Mat_HallwayWall
f 385 384 386
f 385 386 190

usemtl Patch_317_Mat_HallwayWall
f 379 387 388
f 379 388 380

usemtl Patch_318_Mat_HallwayWall
f 380 388 389
f 380 389 382

usemtl Patch_319_Mat_HallwayWall
f 382 389 390
f 382 390 384

usemtl Patch_320_Mat_HallwayWall
f 384 390 391
f 384 391 386

usemtl Patch_321_Mat_HallwayWall
f 387 392 393
f 387 393 388

usemtl Patch_322_Mat_HallwayWall
f 388 393 394
f 388 394 389

usemtl Patch_323_Mat_HallwayWall
f 389 394 395
f 389 395 390

usemtl Patch_324_Mat_HallwayWall
f 390 395 396
f 390 396 391

usemtl Patch_325_Mat_HallwayWall
f 392 397 398
f 392 398 393

usemtl Patch_326_Mat_HallwayWall
f 393 398 399
f 393 399 394

usemtl Patch_327_Mat_HallwayWall
f 394 399 400
f 394 400 395

usemtl Patch_328_Mat_HallwayWall
f 395 400 401
f 395 401 396

usemtl Patch_329_Mat_HallwayWall
f 397 402 403
f 397 403 398

usemtl Patch_330_Mat_HallwayWall
f 398 403 404
f 398 404 399

usemtl Patch_331_Mat_HallwayWall
f 399 404 405
f 399 405 400

usemtl Patch_332_Mat_HallwayWall
f 400 405 406
f 400 406 401

usemtl Patch_333_Mat_HallwayWall
f 402 407 408
f 402 408 403

usemtl Patch_334_Mat_HallwayWall
f 403 408 409
f 403 409 404

usemtl Patch_335_Mat_HallwayWall
f 404 409 410
f 404 410 405

usemtl Patch_336_Mat_HallwayWall
f 405 410 411
f 405 411 406

usemtl Patch_337_Mat_HallwayWall
f 407 412 413
f 407 413 408

usemtl Patch_338_Mat_HallwayWall
f 408 413 414
f 408 414 409

usemtl Patch_339_Mat_HallwayWall
f 409 414 415
f 409 415 410

usemtl Patch_340_Mat_HallwayWall
f 410 415 416
f 410 416 411

usemtl Patch_341_Mat_HallwayWall
f 412 417 418
f 412 418 413

usemtl Patch_342_Mat_HallwayWall
f 413 418 419
f 413 419 414

usemtl Patch_343_Mat_HallwayWall
f 414 419 420
f 414 420 415

usemtl Patch_344_Mat_HallwayWall
f 415 420 421
f 415 421 416

usemtl Patch_345_Mat_HallwayWall
f 417 422 423
f 417 423 418

usemtl Patch_346_Mat_HallwayWall
f 418 423 424
f 418 424 419

usemtl Patch_347_Mat_HallwayWall
f 419 424 425
f 419 425 420

usemtl Patch_348_Mat_HallwayWall
f 420 425 426
f 420 426 421

usemtl Patch_349_Mat_HallwayWall
f 422 427 428
f 422 428 423

usemtl Patch_350_Mat_HallwayWall
f 423 428 429
f 423 429 424

usemtl Patch_351_Mat_HallwayWall
f 424 429 430
f 424 430 425

usemtl Patch_352_Mat_HallwayWall
f 425 430 431
f 425 431 426

usemtl Patch_353_Mat_HallwayWall
f 427 432 433
f 427 433 428

usemtl Patch_354_Mat_HallwayWall
f 428 433 434
f 428 434 429

usemtl Patch_355_Mat_HallwayWall
f 429 434 435
f 429 435 430

usemtl Patch_356_Mat_HallwayWall
f 430 435 436
f 430 436 431

usemtl Patch_357_Mat_HallwayWall
f 432 437 438
f 432 438 433

usemtl Patch_358_Mat_HallwayWall
f 433 438 439
f 433 439 434

usemtl Patch_359_Mat_HallwayWall
f 434 439 440
f 434 440 435

usemtl Patch_360_Mat_HallwayWall
f 435 440 441
f 435 441 436

usemtl Patch_361_Mat_HallwayWall
f 437 442 443
f 437 443 438

usemtl Patch_362_Mat_HallwayWall
f 438 443 444
f 438 444 439

usemtl Patch_363_Mat_HallwayWall
f 439 444 445
f 439 445 440

usemtl Patch_364_Mat_HallwayWall
f 440 445 446
f 440 446 441

usemtl Patch_365_Mat_HallwayWall
f 442 447 448
f 442 448 443

usemtl Patch_366_Mat_HallwayWall
f 443 448 449
f 443 449 444

usemtl Patch_367_Mat_HallwayWall
f 444 449 450
f 444 450 445

usemtl Patch_368_Mat_HallwayWall
f 445 450 451
f 445 451 446

usemtl Patch_369_Mat_HallwayWall
f 447 452 453
f 447 453 448

usemtl Patch_370_Mat_HallwayWall
f 448 453 454
f 448 454 449

usemtl Patch_371_Mat_HallwayWall
f 449 454 455
f 449 455 450

usemtl Patch_372_Mat_HallwayWall
f 450 455 456
f 450 456 451

usemtl Patch_373_Mat_HallwayWall
f 452 457 458
f 452 458 453

usemtl Patch_374_Mat_HallwayWall
f 453 458 459
f 453 459 454

usemtl Patch_375_Mat_HallwayWall
f 454 459 460
f 454 460 455

usemtl Patch_376_Mat_HallwayWall
f 455 460 461
f 455 461 456

usemtl Patch_377_Mat_HallwayWall
f 457 462 463
f 457 463 458

usemtl Patch_378_Mat_HallwayWall
f 458 463 464
f 458 464 459

usemtl Patch_379_Mat_HallwayWall
f 459 464 465
f 459 465 460

usemtl Patch_380_Mat_HallwayWall
f 460 465 466
f 460 466 461

usemtl Patch_381_Mat_HallwayWall
f 462 467 468
f 462 468 463

usemtl Patch_382_Mat_HallwayWall
f 463 468 469
f 463 469 464

usemtl Patch_383_Mat_HallwayWall
f 464 469 470
f 464 470 465

usemtl Patch_384_Mat_HallwayWall
f 465 470 471
f 465 471 466

usemtl Patch_385_Mat_HallwayWall
f 467 472 473
f 467 473 468

usemtl Patch_386_Mat_HallwayWall
f 468 473 474
f 468 474 469

usemtl Patch_387_Mat_HallwayWall
f 469 474 475
f 469 475 470

usemtl Patch_388_Mat_HallwayWall
f 470 475 476
f 470 476 471

usemtl Patch_389_Mat_HallwayWall
f 472 477 478
f 472 478 473

usemtl Patch_390_Mat_HallwayWall
f 473 478 479
f 473 479 474

usemtl Patch_391_Mat_HallwayWall
f 474 479 480
f 474 480 475

usemtl Patch_392_Mat_HallwayWall
f 475 480 481
f 475 481 476

usemtl Patch_393_Mat_HallwayWall
f 477 482 483
f 477 483 478

usemtl Patch_394_Mat_HallwayWall
f 478 483 484
f 478 484 479

usemtl Patch_395_Mat_HallwayWall
f 479 484 485
f 479 485 480

usemtl Patch_396_Mat_HallwayWall
f 480 485 486
f 480 486 481

usemtl Patch_397_Mat_HallwayWall
f 482 487 488
f 482 488 483

usemtl Patch_398_Mat_HallwayWall
f 483 488 489
f 483 489 484

usemtl Patch_399_Mat_HallwayWall
f 484 489 490
f 484 490 485

usemtl Patch_400_Mat_HallwayWall
f 485 490 491
f 485 491 486

usemtl Patch_401_Mat_HallwayWall
f 487 492 493
f 487 493 488

usemtl Patch_402_Mat_HallwayWall
f 488 493 494
f 488 494 489

usemtl Patch_403_Mat_HallwayWall
f 489 494 495
f 489 495 490

usemtl Patch_404_Mat_HallwayWall
f 490 495 496
f 490 496 491

usemtl Patch_405_Mat_HallwayWall
f 492 497 498
f 492 498 493

usemtl Patch_406_Mat_HallwayWall
f 493 498 499
f 493 499 494

usemtl Patch_407_Mat_HallwayWall
f 494 499 500
f 494 500 495

usemtl Patch_408_Mat_HallwayWall
f 495 500 501
f 495 501 496

usemtl Patch_409_Mat_HallwayWall
f 497 54 502
f 497 502 498

usemtl Patch_410_Mat_HallwayWall
f 498 502 503
f 498 503 499

usemtl Patch_411_Mat_HallwayWall
f 499 503 504
f 499 504 500

usemtl Patch_412_Mat_HallwayWall
f 500 504 243
f 500 243 501

usemtl Patch_413_Mat_HallwayWall
f 1 381 505
f 1 505 2

usemtl Patch_414_Mat_HallwayWall
f 381 383 506
f 381 506 505

usemtl Patch_415_Mat_HallwayWall
f 383 385 507
f 383 507 506

usemtl Patch_416_Mat_HallwayWall
f 385 190 191
f 385 191 507

usemtl Patch_417_Mat_HallwayWall
f 2 505 508
f 2 508 55

usemtl Patch_418_Mat_HallwayWall
f 505 506 509
f 505 509 508

usemtl Patch_419_Mat_HallwayWall
f 506 507 510
f 506 510 509

usemtl Patch_420_Mat_HallwayWall
f 507 191 244
f 507 244 510

usemtl Patch_421_Mat_HallwayWall
f 55 508 511
f 55 511 82

usemtl Patch_422_Mat_HallwayWall
f 508 509 512
f 508 512 511

usemtl Patch_423_Mat_HallwayWall
f 509 510 513
f 509 513 512

usemtl Patch_424_Mat_HallwayWall
f 510 244 271
f 510 271 513

usemtl Patch_425_Mat_HallwayWall
f 82 511 514
f 82 514 109

usemtl Patch_426_Mat_HallwayWall
f 511 512 515
f 511 515 514

usemtl Patch_427_Mat_HallwayWall
f 512 513 516
f 512 516 515

usemtl Patch_428_Mat_HallwayWall
f 513 271 298
f 513 298 516

usemtl Patch_429_Mat_HallwayWall
f 109 514 517
f 109 517 136

usemtl Patch_430_Mat_HallwayWall
f 514 515 518
f 514 518 517

usemtl Patch_431_Mat_HallwayWall
f 515 516 519
f 515 519 518

usemtl Patch_432_Mat_HallwayWall
f 516 298 325
f 516 325 519

usemtl Patch_433_Mat_HallwayWall
f 136 517 520
f 136 520 163

usemtl Patch_434_Mat_HallwayWall
f 517 518 521
f 517 521 520

usemtl Patch_435_Mat_HallwayWall
f 518 519 522
f 518 522 521

usemtl Patch_436_Mat_HallwayWall
f 519 325 352
f 519 352 522

usemtl Patch_437_Mat_HallwayWall
f 54 53 523
f 54 523 502

usemtl Patch_438_Mat_HallwayWall
f 502 523 524
f 502 524 503

usemtl Patch_439_Mat_HallwayWall
f 503 524 525
f 503 525 504

usemtl Patch_440_Mat_HallwayWall
f 504 525 242
f 504 242 243

usemtl Patch_441_Mat_HallwayWall
f 53 81 526
f 53 526 523

usemtl Patch_442_Mat_HallwayWall
f 523 526 527
f 523 527 524

usemtl Patch_443_Mat_HallwayWall
f 524 527 528
f 524 528 525

usemtl Patch_444_Mat_HallwayWall
f 525 528 270
f 525 270 242

usemtl Patch_445_Mat_HallwayWall
f 81 108 529
f 81 529 526

usemtl Patch_446_Mat_HallwayWall
f 526 529 530
f 526 530 527

usemtl Patch_447_Mat_HallwayWall
f 527 530 531
f 527 531 528

usemtl Patch_448_Mat_HallwayWall
f 528 531 297
f 528 297 270

usemtl Patch_449_Mat_HallwayWall
f 108 135 532
f 108 532 529

usemtl Patch_450_Mat_HallwayWall
f 529 532 533
f 529 533 530

usemtl Patch_451_Mat_HallwayWall
f 530 533 534
f 530 534 531

usemtl Patch_452_Mat_HallwayWall
f 531 534 324
f 531 324 297

usemtl Patch_453_Mat_HallwayWall
f 135 162 535
f 135 535 532

usemtl Patch_454_Mat_HallwayWall
f 532 535 536
f 532 536 533

usemtl Patch_455_Mat_HallwayWall
f 533 536 537
f 533 537 534

usemtl Patch_456_Mat_HallwayWall
f 534 537 351
f 534 351 324

usemtl Patch_457_Mat_HallwayWall
f 162 189 538
f 162 538 535

usemtl Patch_458_Mat_HallwayWall
f 535 538 539
f 535 539 536

usemtl Patch_459_Mat_HallwayWall
f 536 539 540
f 536 540 537

usemtl Patch_460_Mat_HallwayWall
f 537 540 378
f 537 378 351

usemtl Patch_461_Mat_HallwayWall
f 163 520 542
f 163 542 541

usemtl Patch_462_Mat_HallwayWall
f 520 521 543
f 520 543 542

usemtl Patch_463_Mat_HallwayWall
f 521 522 544
f 521 544 543

usemtl Patch_464_Mat_HallwayWall
f 522 352 545
f 522 545 544

usemtl Patch_465_Mat_HallwayWall
f 541 542 547
f 541 547 546

usemtl Patch_466_Mat_HallwayWall
f 542 543 548
f 542 548 547

usemtl Patch_467_Mat_HallwayWall
f 543 544 549
f 543 549 548

usemtl Patch_468_Mat_HallwayWall
f 544 545 550
f 544 550 549

usemtl Patch_469_Mat_HallwayWall
f 546 547 552
f 546 552 551

usemtl Patch_470_Mat_HallwayWall
f 547 548 553
f 547 553 552

usemtl Patch_471_Mat_HallwayWall
f 548 549 554
f 548 554 553

usemtl Patch_472_Mat_HallwayWall
f 549 550 555
f 549 555 554

usemtl Patch_473_Mat_HallwayWall
f 551 552 557
f 551 557 556

usemtl Patch_474_Mat_HallwayWall
f 552 553 558
f 552 558 557

usemtl Patch_475_Mat_HallwayWall
f 553 554 559
f 553 559 558

usemtl Patch_476_Mat_HallwayWall
f 554 555 560
f 554 560 559

usemtl Patch_477_Mat_HallwayWall
f 556 557 562
f 556 562 561

usemtl Patch_478_Mat_HallwayWall
f 557 558 563
f 557 563 562

usemtl Patch_479_Mat_HallwayWall
f 558 559 564
f 558 564 563

usemtl Patch_480_Mat_HallwayWall
f 559 560 565
f 559 565 564

usemtl Patch_481_Mat_HallwayWall
f 561 562 567
f 561 567 566

usemtl Patch_482_Mat_HallwayWall
f 562 563 568
f 562 568 567

usemtl Patch_483_Mat_HallwayWall
f 563 564 569
f 563 569 568

usemtl Patch_484_Mat_HallwayWall
f 564 565 570
f 564 570 569

usemtl Patch_485_Mat_HallwayWall
f 566 567 572
f 566 572 571

usemtl Patch_486_Mat_HallwayWall
f 567 568 573
f 567 573 572

usemtl Patch_487_Mat_HallwayWall
f 568 569 574
f 568 574 573

usemtl Patch_488_Mat_HallwayWall
f 569 570 575
f 569 575 574

usemtl Patch_489_Mat_HallwayWall
f 571 572 577
f 571 577 576

usemtl Patch_490_Mat_HallwayWall
f 572 573 578
f 572 578 577

usemtl Patch_491_Mat_HallwayWall
f 573 574 579
f 573 579 578

usemtl Patch_492_Mat_HallwayWall
f 574 575 580
f 574 580 579

usemtl Patch_493_Mat_HallwayWall
f 576 577 582
f 576 582 581

usemtl Patch_494_Mat_HallwayWall
f 577 578 583
f 577 583 582

usemtl Patch_495_Mat_HallwayWall
f 578 579 584
f 578 584 583

usemtl Patch_496_Mat_HallwayWall
f 579 580 585
f 579 585 584

usemtl Patch_497_Mat_HallwayWall
f 581 582 587
f 581 587 586

usemtl Patch_498_Mat_HallwayWall
f 582 583 588
f 582 588 587

usemtl Patch_499_Mat_HallwayWall
f 583 584 589
f 583 589 588

usemtl Patch_500_Mat_HallwayWall
f 584 585 590
f 584 590 589

usemtl Patch_501_Mat_HallwayWall
f 591 594 593
f 591 593 592

usemtl Patch_502_Mat_HallwayWall
f 594 596 595
f 594 595 593

usemtl Patch_503_Mat_HallwayWall
f 596 598 597
f 596 597 595

usemtl Patch_504_Mat_HallwayWall
f 598 600 599
f 598 599 597

usemtl Patch_505_Mat_HallwayWall
f 592 593 602
f 592 602 601

usemtl Patch_506_Mat_HallwayWall
f 593 595 603
f 593 603 602

usemtl Patch_507_Mat_HallwayWall
f 595 597 604
f 595 604 603

usemtl Patch_508_Mat_HallwayWall
f 597 599 605
f 597 605 604

usemtl Patch_509_Mat_HallwayWall
f 601 602 607
f 601 607 606

usemtl Patch_510_Mat_HallwayWall
f 602 603 608
f 602 608 607

usemtl Patch_511_Mat_HallwayWall
f 603 604 609
f 603 609 608

usemtl Patch_512_Mat_HallwayWall
f 604 605 610
f 604 610 609

usemtl Patch_513_Mat_HallwayWall
f 606 607 612
f 606 612 611

usemtl Patch_514_Mat_HallwayWall
f 607 608 613
f 607 613 612

usemtl Patch_515_Mat_HallwayWall
f 608 609 614
f 608 614 613

usemtl Patch_516_Mat_HallwayWall
f 609 610 615
f 609 615 614

usemtl Patch_517_Mat_HallwayWall
f 611 612 617
f 611 617 616

usemtl Patch_518_Mat_HallwayWall
f 612 613 618
f 612 618 617

usemtl Patch_519_Mat_HallwayWall
f 613 614 619
f 613 619 618

usemtl Patch_520_Mat_HallwayWall
f 614 615 620
f 614 620 619

usemtl Patch_521_Mat_HallwayWall
f 616 617 538
f 616 538 189

usemtl Patch_522_Mat_HallwayWall
f 617 618 539
f 617 539 538

usemtl Patch_523_Mat_HallwayWall
f 618 619 540
f 618 540 539

usemtl Patch_524_Mat_HallwayWall
f 619 620 378
f 619 378 540

usemtl Patch_525_Mat_HallwayWall
f 586 587 622
f 586 622 621

usemtl Patch_526_Mat_HallwayWall
f 587 588 623
f 587 623 622

usemtl Patch_527_Mat_HallwayWall
f 588 589 624
f 588 624 623

usemtl Patch_528_Mat_HallwayWall
f 589 590 625
f 589 625 624

usemtl Patch_529_Mat_HallwayWall
f 621 622 627
f 621 627 626

usemtl Patch_530_Mat_HallwayWall
f 622 623 628
f 622 628 627

usemtl Patch_531_Mat_HallwayWall
f 623 624 629
f 623 629 628

usemtl Patch_532_Mat_HallwayWall
f 624 625 630
f 624 630 629

usemtl Patch_533_Mat_HallwayWall
f 626 627 632
f 626 632 631

usemtl Patch_534_Mat_HallwayWall
f 627 628 633
f 627 633 632

usemtl Patch_535_Mat_HallwayWall
f 628 629 634
f 628 634 633

usemtl Patch_536_Mat_HallwayWall
f 629 630 635
f 629 635 634

usemtl Patch_537_Mat_HallwayWall
f 631 632 637
f 631 637 636

usemtl Patch_538_Mat_HallwayWall
f 632 633 638
f 632 638 637

usemtl Patch_539_Mat_HallwayWall
f 633 634 639
f 633 639 638

usemtl Patch_540_Mat_HallwayWall
f 634 635 640
f 634 640 639

usemtl Patch_541_Mat_HallwayWall
f 641 644 643
f 641 643 642

usemtl Patch_542_Mat_HallwayWall
f 644 640 645
f 644 645 643

usemtl Patch_543_Mat_HallwayWall
f 646 649 648
f 646 648 647

usemtl Patch_544_Mat_HallwayWall
f 649 651 650
f 649 650 648

usemtl Patch_545_Mat_HallwayWall
f 651 653 652
f 651 652 650

usemtl Patch_546_Mat_HallwayWall
f 653 645 654
f 653 654 652

usemtl Patch_547_Mat_HallwayWall
f 647 648 656
f 647 656 655

usemtl Patch_548_Mat_HallwayWall
f 648 650 657
f 648 657 656

usemtl Patch_549_Mat_HallwayWall
f 650 652 658
f 650 658 657

usemtl Patch_550_Mat_HallwayWall
f 652 654 659
f 652 659 658

usemtl Patch_551_Mat_HallwayWall
f 655 656 661
f 655 661 660

usemtl Patch_552_Mat_HallwayWall
f 656 657 662
f 656 662 661

usemtl Patch_553_Mat_HallwayWall
f 657 658 663
f 657 663 662

usemtl Patch_554_Mat_HallwayWall
f 658 659 664
f 658 664 663

usemtl Patch_555_Mat_HallwayWall
f 660 661 594
f 660 594 591

usemtl Patch_556_Mat_HallwayWall
f 661 662 596
f 661 596 594

usemtl Patch_557_Mat_HallwayWall
f 662 663 598
f 662 598 596

usemtl Patch_558_Mat_HallwayWall
f 663 664 600
f 663 600 598

usemtl Patch_559_Mat_MeetingRoomWall
f 586 665 666
f 586 666 667

usemtl Patch_560_Mat_MeetingRoomWall
f 667 666 668
f 667 668 669

usemtl Patch_561_Mat_MeetingRoomWall
f 669 668 670
f 669 670 671

usemtl Patch_562_Mat_MeetingRoomWall
f 671 670 672
f 671 672 673

usemtl Patch_563_Mat_MeetingRoomWall
f 673 672 674
f 673 674 675

usemtl Patch_564_Mat_MeetingRoomWall
f 675 674 676
f 675 676 677

usemtl Patch_565_Mat_MeetingRoomWall
f 677 676 678
f 677 678 679

usemtl Patch_566_Mat_MeetingRoomWall
f 679 678 680
f 679 680 681

usemtl Patch_567_Mat_MeetingRoomWall
f 681 680 682
f 681 682 683

usemtl Patch_568_Mat_MeetingRoomWall
f 683 682 684
f 683 684 591

usemtl Patch_569_Mat_MeetingRoomWall
f 665 685 686
f 665 686 666

usemtl Patch_570_Mat_MeetingRoomWall
f 666 686 687
f 666 687 668

usemtl Patch_571_Mat_MeetingRoomWall
f 668 687 688
f 668 688 670

usemtl Patch_572_Mat_MeetingRoomWall
f 670 688 689
f 670 689 672

usemtl Patch_573_Mat_MeetingRoomWall
f 672 689 690
f 672 690 674

usemtl Patch_574_Mat_MeetingRoomWall
f 674 690 691
f 674 691 676

usemtl Patch_575_Mat_MeetingRoomWall
f 676 691 692
f 676 692 678

usemtl Patch_576_Mat_MeetingRoomWall
f 678 692 693
f 678 693 680

usemtl Patch_577_Mat_MeetingRoomWall
f 680 693 694
f 680 694 682

usemtl Patch_578_Mat_MeetingRoomWall
f 682 694 695
f 682 695 684

usemtl Patch_579_Mat_MeetingRoomWall
f 685 696 697
f 685 697 686

usemtl Patch_580_Mat_MeetingRoomWall
f 686 697 698
f 686 698 687

usemtl Patch_581_Mat_MeetingRoomWall
f 687 698 699
f 687 699 688

usemtl Patch_582_Mat_MeetingRoomWall
f 688 699 700
f 688 700 689

usemtl Patch_583_Mat_MeetingRoomWall
f 689 700 701
f 689 701 690

usemtl Patch_584_Mat_MeetingRoomWall
f 690 701 702
f 690 702 691

usemtl Patch_585_Mat_MeetingRoomWall
f 691 702 703
f 691 703 692

usemtl Patch_586_Mat_MeetingRoomWall
f 692 703 704
f 692 704 693

usemtl Patch_587_Mat_MeetingRoomWall
f 693 704 705
f 693 705 694

usemtl Patch_588_Mat_MeetingRoomWall
f 694 705 706
f 694 706 695

usemtl Patch_589_Mat_MeetingRoomWall
f 696 707 708
f 696 708 697

usemtl Patch_590_Mat_MeetingRoomWall
f 697 708 709
f 697 709 698

usemtl Patch_591_Mat_MeetingRoomWall
f 698 709 710
f 698 710 699

usemtl Patch_592_Mat_MeetingRoomWall
f 699 710 711
f 699 711 700

usemtl Patch_593_Mat_MeetingRoomWall
f 700 711 712
f 700 712 701

usemtl Patch_594_Mat_MeetingRoomWall
f 701 712 713
f 701 713 702

usemtl Patch_595_Mat_MeetingRoomWall
f 702 713 714
f 702 714 703

usemtl Patch_596_Mat_MeetingRoomWall
f 703 714 715
f 703 715 704

usemtl Patch_597_Mat_MeetingRoomWall
f 704 715 716
f 704 716 705

usemtl Patch_598_Mat_MeetingRoomWall
f 705 716 717
f 705 717 706

usemtl Patch_599_Mat_MeetingRoomWall
f 707 718 719
f 707 719 708

usemtl Patch_600_Mat_MeetingRoomWall
f 708 719 720
f 708 720 709

usemtl Patch_601_Mat_MeetingRoomWall
f 709 720 721
f 709 721 710

usemtl Patch_602_Mat_MeetingRoomWall
f 710 721 722
f 710 722 711

usemtl Patch_603_Mat_MeetingRoomWall
f 711 722 723
f 711 723 712

usemtl Patch_604_Mat_MeetingRoomWall
f 712 723 724
f 712 724 713

usemtl Patch_605_Mat_MeetingRoomWall
f 713 724 725
f 713 725 714

usemtl Patch_606_Mat_MeetingRoomWall
f 714 725 726
f 714 726 715

usemtl Patch_607_Mat_MeetingRoomWall
f 715 726 727
f 715 727 716

usemtl Patch_608_Mat_MeetingRoomWall
f 716 727 728
f 716 728 717

usemtl Patch_609_Mat_MeetingRoomWall
f 718 729 730
f 718 730 719

usemtl Patch_610_Mat_MeetingRoomWall
f 719 730 731
f 719 731 720

usemtl Patch_611_Mat_MeetingRoomWall
f 720 731 732
f 720 732 721

usemtl Patch_612_Mat_MeetingRoomWall
f 721 732 733
f 721 733 722

usemtl Patch_613_Mat_MeetingRoomWall
f 722 733 734
f 722 734 723

usemtl Patch_614_Mat_MeetingRoomWall
f 723 734 735
f 723 735 724

usemtl Patch_615_Mat_MeetingRoomWall
f 724 735 736
f 724 736 725

usemtl Patch_616_Mat_MeetingRoomWall
f 725 736 737
f 725 737 726

usemtl Patch_617_Mat_MeetingRoomWall
f 726 737 738
f 726 738 727

usemtl Patch_618_Mat_MeetingRoomWall
f 727 738 739
f 727 739 728

usemtl Patch_619_Mat_MeetingRoomWall
f 590 742 741
f 590 741 740

usemtl Patch_620_Mat_MeetingRoomWall
f 742 744 743
f 742 743 741

usemtl Patch_621_Mat_MeetingRoomWall
f 744 746 745
f 744 745 743

usemtl Patch_622_Mat_MeetingRoomWall
f 746 748 747
f 746 747 745

usemtl Patch_623_Mat_MeetingRoomWall
f 748 750 749
f 748 749 747

usemtl Patch_624_Mat_MeetingRoomWall
f 750 752 751
f 750 751 749

usemtl Patch_625_Mat_MeetingRoomWall
f 752 754 753
f 752 753 751

usemtl Patch_626_Mat_MeetingRoomWall
f 754 756 755
f 754 755 753

usemtl Patch_627_Mat_MeetingRoomWall
f 756 758 757
f 756 757 755

usemtl Patch_628_Mat_MeetingRoomWall
f 758 600 759
f 758 759 757

usemtl Patch_629_Mat_MeetingRoomWall
f 740 741 761
f 740 761 760

usemtl Patch_630_Mat_MeetingRoomWall
f 741 743 762
f 741 762 761

usemtl Patch_631_Mat_MeetingRoomWall
f 743 745 763
f 743 763 762

usemtl Patch_632_Mat_MeetingRoomWall
f 745 747 764
f 745 764 763

usemtl Patch_633_Mat_MeetingRoomWall
f 747 749 765
f 747 765 764

usemtl Patch_634_Mat_MeetingRoomWall
f 749 751 766
f 749 766 765

usemtl Patch_635_Mat_MeetingRoomWall
f 751 753 767
f 751 767 766

usemtl Patch_636_Mat_MeetingRoomWall
f 753 755 768
f 753 768 767

usemtl Patch_637_Mat_MeetingRoomWall
f 755 757 769
f 755 769 768

usemtl Patch_638_Mat_MeetingRoomWall
f 757 759 770
f 757 770 769

usemtl Patch_639_Mat_MeetingRoomWall
f 760 761 772
f 760 772 771

usemtl Patch_640_Mat_MeetingRoomWall
f 761 762 773
f 761 773 772

usemtl Patch_641_Mat_MeetingRoomWall
f 762 763 774
f 762 774 773

usemtl Patch_642_Mat_MeetingRoomWall
f 763 764 775
f 763 775 774

usemtl Patch_643_Mat_MeetingRoomWall
f 764 765 776
f 764 776 775

usemtl Patch_644_Mat_MeetingRoomWall
f 765 766 777
f 765 777 776

usemtl Patch_645_Mat_MeetingRoomWall
f 766 767 778
f 766 778 777

usemtl Patch_646_Mat_MeetingRoomWall
f 767 768 779
f 767 779 778

usemtl Patch_647_Mat_MeetingRoomWall
f 768 769 780
f 768 780 779

usemtl Patch_648_Mat_MeetingRoomWall
f 769 770 781
f 769 781 780

usemtl Patch_649_Mat_MeetingRoomWall
f 771 772 783
f 771 783 782

usemtl Patch_650_Mat_MeetingRoomWall
f 772 773 784
f 772 784 783

usemtl Patch_651_Mat_MeetingRoomWall
f 773 774 785
f 773 785 784

usemtl Patch_652_Mat_MeetingRoomWall
f 774 775 786
f 774 786 785

usemtl Patch_653_Mat_MeetingRoomWall
f 775 776 787
f 775 787 786

usemtl Patch_654_Mat_MeetingRoomWall
f 776 777 788
f 776 788 787

usemtl Patch_655_Mat_MeetingRoomWall
f 777 778 789
f 777 789 788

usemtl Patch_656_Mat_MeetingRoomWall
f 778 779 790
f 778 790 789

usemtl Patch_657_Mat_MeetingRoomWall
f 779 780 791
f 779 791 790

usemtl Patch_658_Mat_MeetingRoomWall
f 780 781 792
f 780 792 791

usemtl Patch_659_Mat_MeetingRoomWall
f 782 783 794
f 782 794 793

usemtl Patch_660_Mat_MeetingRoomWall
f 783 784 795
f 783 795 794

usemtl Patch_661_Mat_MeetingRoomWall
f 784 785 796
f 784 796 795

usemtl Patch_662_Mat_MeetingRoomWall
f 785 786 797
f 785 797 796

usemtl Patch_663_Mat_MeetingRoomWall
f 786 787 798
f 786 798 797

usemtl Patch_664_Mat_MeetingRoomWall
f 787 788 799
f 787 799 798

usemtl Patch_665_Mat_MeetingRoomWall
f 788 789 800
f 788 800 799

usemtl Patch_666_Mat_MeetingRoomWall
f 789 790 801
f 789 801 800

usemtl Patch_667_Mat_MeetingRoomWall
f 790 791 802
f 790 802 801

usemtl Patch_668_Mat_MeetingRoomWall
f 791 792 803
f 791 803 802

usemtl Patch_669_Mat_MeetingRoomWall
f 793 794 805
f 793 805 804

usemtl Patch_670_Mat_MeetingRoomWall
f 794 795 806
f 794 806 805

usemtl Patch_671_Mat_MeetingRoomWall
f 795 796 807
f 795 807 806

usemtl Patch_672_Mat_MeetingRoomWall
f 796 797 808
f 796 808 807

usemtl Patch_673_Mat_MeetingRoomWall
f 797 798 809
f 797 809 808

usemtl Patch_674_Mat_MeetingRoomWall
f 798 799 810
f 798 810 809

usemtl Patch_675_Mat_MeetingRoomWall
f 799 800 811
f 799 811 810

usemtl Patch_676_Mat_MeetingRoomWall
f 800 801 812
f 800 812 811

usemtl Patch_677_Mat_MeetingRoomWall
f 801 802 813
f 801 813 812

usemtl Patch_678_Mat_MeetingRoomWall
f 802 803 814
f 802 814 813

usemtl Patch_679_Mat_MeetingRoomWall
f 729 817 816
f 729 816 815

usemtl Patch_680_Mat_MeetingRoomWall
f 817 819 818
f 817 818 816

usemtl Patch_681_Mat_MeetingRoomWall
f 819 821 820
f 819 820 818

usemtl Patch_682_Mat_MeetingRoomWall
f 821 804 822
f 821 822 820

usemtl Patch_683_Mat_MeetingRoomWall
f 815 816 824
f 815 824 823

usemtl Patch_684_Mat_MeetingRoomWall
f 816 818 825
f 816 825 824

usemtl Patch_685_Mat_MeetingRoomWall
f 818 820 826
f 818 826 825

usemtl Patch_686_Mat_MeetingRoomWall
f 820 822 827
f 820 827 826

usemtl Patch_687_Mat_MeetingRoomWall
f 823 824 829
f 823 829 828

usemtl Patch_688_Mat_MeetingRoomWall
f 824 825 830
f 824 830 829

usemtl Patch_689_Mat_MeetingRoomWall
f 825 826 831
f 825 831 830

usemtl Patch_690_Mat_MeetingRoomWall
f 826 827 832
f 826 832 831

usemtl Patch_691_Mat_MeetingRoomWall
f 828 829 834
f 828 834 833

usemtl Patch_692_Mat_MeetingRoomWall
f 829 830 835
f 829 835 834

usemtl Patch_693_Mat_MeetingRoomWall
f 830 831 836
f 830 836 835

usemtl Patch_694_Mat_MeetingRoomWall
f 831 832 837
f 831 837 836

usemtl Patch_695_Mat_MeetingRoomWall
f 833 834 839
f 833 839 838

usemtl Patch_696_Mat_MeetingRoomWall
f 834 835 840
f 834 840 839

usemtl Patch_697_Mat_MeetingRoomWall
f 835 836 841
f 835 841 840

usemtl Patch_698_Mat_MeetingRoomWall
f 836 837 842
f 836 842 841

usemtl Patch_699_Mat_MeetingRoomWall
f 838 839 844
f 838 844 843

usemtl Patch_700_Mat_MeetingRoomWall
f 839 840 845
f 839 845 844

usemtl Patch_701_Mat_MeetingRoomWall
f 840 841 846
f 840 846 845

usemtl Patch_702_Mat_MeetingRoomWall
f 841 842 847
f 841 847 846

usemtl Patch_703_Mat_MeetingRoomWall
f 843 844 849
f 843 849 848

usemtl Patch_704_Mat_MeetingRoomWall
f 844 845 850
f 844 850 849

usemtl Patch_705_Mat_MeetingRoomWall
f 845 846 851
f 845 851 850

usemtl Patch_706_Mat_MeetingRoomWall
f 846 847 852
f 846 852 851

usemtl Patch_707_Mat_MeetingRoomWall
f 848 849 854
f 848 854 853

usemtl Patch_708_Mat_MeetingRoomWall
f 849 850 855
f 849 855 854

usemtl Patch_709_Mat_MeetingRoomWall
f 850 851 856
f 850 856 855

usemtl Patch_710_Mat_MeetingRoomWall
f 851 852 857
f 851 857 856

usemtl Patch_711_Mat_MeetingRoomWall
f 853 854 858
f 853 858 739

usemtl Patch_712_Mat_MeetingRoomWall
f 854 855 859
f 854 859 858

usemtl Patch_713_Mat_MeetingRoomWall
f 855 856 860
f 855 860 859

usemtl Patch_714_Mat_MeetingRoomWall
f 856 857 814
f 856 814 860

usemtl Patch_715_Mat_MeetingRoomWall
f 586 587 861
f 586 861 665

usemtl Patch_716_Mat_MeetingRoomWall
f 587 588 862
f 587 862 861

usemtl Patch_717_Mat_MeetingRoomWall
f 588 589 863
f 588 863 862

usemtl Patch_718_Mat_MeetingRoomWall
f 589 590 740
f 589 740 863

usemtl Patch_719_Mat_MeetingRoomWall
f 665 861 864
f 665 864 685

usemtl Patch_720_Mat_MeetingRoomWall
f 861 862 865
f 861 865 864

usemtl Patch_721_Mat_MeetingRoomWall
f 862 863 866
f 862 866 865

usemtl Patch_722_Mat_MeetingRoomWall
f 863 740 760
f 863 760 866

usemtl Patch_723_Mat_MeetingRoomWall
f 685 864 867
f 685 867 696

usemtl Patch_724_Mat_MeetingRoomWall
f 864 865 868
f 864 868 867

usemtl Patch_725_Mat_MeetingRoomWall
f 865 866 869
f 865 869 868

usemtl Patch_726_Mat_MeetingRoomWall
f 866 760 771
f 866 771 869

usemtl Patch_727_Mat_MeetingRoomWall
f 696 867 870
f 696 870 707

usemtl Patch_728_Mat_MeetingRoomWall
f 867 868 871
f 867 871 870

usemtl Patch_729_Mat_MeetingRoomWall
f 868 869 872
f 868 872 871

usemtl Patch_730_Mat_MeetingRoomWall
f 869 771 782
f 869 782 872

usemtl Patch_731_Mat_MeetingRoomWall
f 707 870 873
f 707 873 718

usemtl Patch_732_Mat_MeetingRoomWall
f 870 871 874
f 870 874 873

usemtl Patch_733_Mat_MeetingRoomWall
f 871 872 875
f 871 875 874

usemtl Patch_734_Mat_MeetingRoomWall
f 872 782 793
f 872 793 875

usemtl Patch_735_Mat_MeetingRoomWall
f 718 873 817
f 718 817 729

usemtl Patch_736_Mat_MeetingRoomWall
f 873 874 819
f 873 819 817

usemtl Patch_737_Mat_MeetingRoomWall
f 874 875 821
f 874 821 819

usemtl Patch_738_Mat_MeetingRoomWall
f 875 793 804
f 875 804 821

usemtl Patch_739_Mat_MeetingRoomWall
f 591 684 876
f 591 876 594

usemtl Patch_740_Mat_MeetingRoomWall
f 594 876 877
f 594 877 596

usemtl Patch_741_Mat_MeetingRoomWall
f 596 877 878
f 596 878 598

usemtl Patch_742_Mat_MeetingRoomWall
f 598 878 759
f 598 759 600

usemtl Patch_743_Mat_MeetingRoomWall
f 684 695 879
f 684 879 876

usemtl Patch_744_Mat_MeetingRoomWall
f 876 879 880
f 876 880 877

usemtl Patch_745_Mat_MeetingRoomWall
f 877 880 881
f 877 881 878

usemtl Patch_746_Mat_MeetingRoomWall
f 878 881 770
f 878 770 759

usemtl Patch_747_Mat_MeetingRoomWall
f 695 706 882
f 695 882 879

usemtl Patch_748_Mat_MeetingRoomWall
f 879 882 883
f 879 883 880

usemtl Patch_749_Mat_MeetingRoomWall
f 880 883 884
f 880 884 881

usemtl Patch_750_Mat_MeetingRoomWall
f 881 884 781
f 881 781 770

usemtl Patch_751_Mat_MeetingRoomWall
f 706 717 885
f 706 885 882

usemtl Patch_752_Mat_MeetingRoomWall
f 882 885 886
f 882 886 883

usemtl Patch_753_Mat_MeetingRoomWall
f 883 886 887
f 883 887 884

usemtl Patch_754_Mat_MeetingRoomWall
f 884 887 792
f 884 792 781

usemtl Patch_755_Mat_MeetingRoomWall
f 717 728 888
f 717 888 885

usemtl Patch_756_Mat_MeetingRoomWall
f 885 888 889
f 885 889 886

usemtl Patch_757_Mat_MeetingRoomWall
f 886 889 890
f 886 890 887

usemtl Patch_758_Mat_MeetingRoomWall
f 887 890 803
f 887 803 792

usemtl Patch_759_Mat_MeetingRoomWall
f 728 739 858
f 728 858 888

usemtl Patch_760_Mat_MeetingRoomWall
f 888 858 859
f 888 859 889

usemtl Patch_761_Mat_MeetingRoomWall
f 889 859 860
f 889 860 890

usemtl Patch_762_Mat_MeetingRoomWall
f 890 860 814
f 890 814 803

usemtl Patch_763_Mat_MeetingRoomWall
f 586 621 622
f 586 622 587

usemtl Patch_764_Mat_MeetingRoomWall
f 587 622 623
f 587 623 588

usemtl Patch_765_Mat_MeetingRoomWall
f 588 623 624
f 588 624 589

usemtl Patch_766_Mat_MeetingRoomWall
f 589 624 625
f 589 625 590

usemtl Patch_767_Mat_MeetingRoomWall
f 621 626 627
f 621 627 622

usemtl Patch_768_Mat_MeetingRoomWall
f 622 627 628
f 622 628 623

usemtl Patch_769_Mat_MeetingRoomWall
f 623 628 629
f 623 629 624

usemtl Patch_770_Mat_MeetingRoomWall
f 624 629 630
f 624 630 625

usemtl Patch_771_Mat_MeetingRoomWall
f 626 631 632
f 626 632 627

usemtl Patch_772_Mat_MeetingRoomWall
f 627 632 633
f 627 633 628

usemtl Patch_773_Mat_MeetingRoomWall
f 628 633 634
f 628 634 629

usemtl Patch_774_Mat_MeetingRoomWall
f 629 634 635
f 629 635 630

usemtl Patch_775_Mat_MeetingRoomWall
f 631 636 637
f 631 637 632

usemtl Patch_776_Mat_MeetingRoomWall
f 632 637 638
f 632 638 633

usemtl Patch_777_Mat_MeetingRoomWall
f 633 638 639
f 633 639 634

usemtl Patch_778_Mat_MeetingRoomWall
f 634 639 640
f 634 640 635

usemtl Patch_779_Mat_MeetingRoomWall
f 641 642 643
f 641 643 644

usemtl Patch_780_Mat_MeetingRoomWall
f 644 643 645
f 644 645 640

usemtl Patch_781_Mat_MeetingRoomWall
f 646 647 648
f 646 648 649

usemtl Patch_782_Mat_MeetingRoomWall
f 649 648 650
f 649 650 651

usemtl Patch_783_Mat_MeetingRoomWall
f 651 650 652
f 651 652 653

usemtl Patch_784_Mat_MeetingRoomWall
f 653 652 654
f 653 654 645

usemtl Patch_785_Mat_MeetingRoomWall
f 647 655 656
f 647 656 648

usemtl Patch_786_Mat_MeetingRoomWall
f 648 656 657
f 648 657 650

usemtl Patch_787_Mat_MeetingRoomWall
f 650 657 658
f 650 658 652

usemtl Patch_788_Mat_MeetingRoomWall
f 652 658 659
f 652 659 654

usemtl Patch_789_Mat_MeetingRoomWall
f 655 660 661
f 655 661 656

usemtl Patch_790_Mat_MeetingRoomWall
f 656 661 662
f 656 662 657

usemtl Patch_791_Mat_MeetingRoomWall
f 657 662 663
f 657 663 658

usemtl Patch_792_Mat_MeetingRoomWall
f 658 663 664
f 658 664 659

usemtl Patch_793_Mat_MeetingRoomWall
f 660 591 594
f 660 594 661

usemtl Patch_794_Mat_MeetingRoomWall
f 661 594 596
f 661 596 662

usemtl Patch_795_Mat_MeetingRoomWall
f 662 596 598
f 662 598 663

usemtl Patch_796_Mat_MeetingRoomWall
f 663 598 600
f 663 600 664

